<?xml version="1.0" encoding="UTF-8"?>
<svg width="1440px" height="751px" viewBox="0 0 1440 751" version="1.1" xmlns="http://www.w3.org/2000/svg" xmlns:xlink="http://www.w3.org/1999/xlink">
    <title>Group 4</title>
    <g id="Page-1" stroke="none" stroke-width="1" fill="none" fill-rule="evenodd">
        <g id="Project-Copy-2" transform="translate(0.000000, -5374.000000)">
            <g id="Group-4" transform="translate(-336.512000, 5374.000000)">
                <rect id="Rectangle" fill="#FF9513" x="336.512" y="0" width="1440" height="751"></rect>
                <path d="M1336.696,372 L1343.932,346.584 L1339,346.584 L1333.492,366.636 L1327.804,346.584 L1322.8,346.584 L1330.288,372 L1336.696,372 Z M1351.816,372 L1351.816,346.584 L1347.136,346.584 L1347.136,372 L1351.816,372 Z M1376.548,372 L1376.548,367.716 L1362.256,367.716 L1362.256,360.912 L1374.496,360.912 L1374.496,356.808 L1362.256,356.808 L1362.256,350.832 L1375.648,350.832 L1375.648,346.584 L1357.576,346.584 L1357.576,372 L1376.548,372 Z M1384.9,372 L1384.9,362.568 L1389.148,362.568 L1394.188,372 L1399.624,372 L1393.972,361.668 C1395.412,361.236 1398.976,359.544 1398.976,354.684 C1398.976,351.732 1397.752,349.716 1396.168,348.42 C1393.936,346.62 1391.668,346.62 1388.284,346.584 L1380.184,346.584 L1380.184,372 L1384.9,372 Z M1386.84825,358.643587 L1384.9,358.644 L1384.9,350.688 L1387.096,350.688 C1389.904,350.688 1391.128,350.724 1392.136,351.228 C1394.116,352.236 1394.152,354.108 1394.152,354.648 C1394.152,358.356 1390.732,358.536 1389.688,358.572 C1389.51925,358.57875 1389.36062,358.5855 1389.20358,358.592013 L1388.88907,358.604651 C1388.35997,358.624954 1387.78517,358.640862 1386.84825,358.643587 Z M1423.924,372.648 C1426.048,372.648 1428.604,372.072 1430.872,369.84 L1430.872,372 L1434.94,372 L1434.94,358.104 L1424.248,358.104 L1424.248,362.28 L1430.584,362.28 C1430.152,366.78 1426.984,368.184 1424.32,368.184 C1420.18,368.184 1417.12,364.98 1417.12,359.4 C1417.12,354.396 1419.46,350.22 1424.248,350.22 C1428.568,350.22 1429.936,353.856 1430.404,355.26 L1434.94,353.424 C1433.392,349.176 1429.504,345.936 1424.212,345.936 C1417.228,345.936 1411.936,351.552 1411.936,359.544 C1411.936,366.384 1416.076,372.648 1423.924,372.648 Z M1444.912,372 L1444.912,362.568 L1449.16,362.568 L1454.2,372 L1459.636,372 L1453.984,361.668 C1455.424,361.236 1458.988,359.544 1458.988,354.684 C1458.988,351.732 1457.764,349.716 1456.18,348.42 C1453.948,346.62 1451.68,346.62 1448.296,346.584 L1440.196,346.584 L1440.196,372 L1444.912,372 Z M1446.86025,358.643587 L1444.912,358.644 L1444.912,350.688 L1447.108,350.688 C1449.916,350.688 1451.14,350.724 1452.148,351.228 C1454.128,352.236 1454.164,354.108 1454.164,354.648 C1454.164,358.356 1450.744,358.536 1449.7,358.572 C1449.53125,358.57875 1449.37262,358.5855 1449.21558,358.592013 L1448.90107,358.604651 C1448.37197,358.624954 1447.79717,358.640862 1446.86025,358.643587 Z M1482.316,372 L1482.316,367.716 L1468.024,367.716 L1468.024,360.912 L1480.264,360.912 L1480.264,356.808 L1468.024,356.808 L1468.024,350.832 L1481.416,350.832 L1481.416,346.584 L1463.344,346.584 L1463.344,372 L1482.316,372 Z M1490.632,372 L1490.344,354.18 L1501.468,372 L1505.608,372 L1505.608,346.584 L1500.928,346.584 L1501.504,364.548 L1490.272,346.584 L1485.988,346.584 L1485.988,372 L1490.632,372 Z M1529.224,372 L1529.224,367.716 L1515.868,367.716 L1529.224,350.652 L1529.224,346.584 L1510.576,346.584 L1510.576,350.868 L1523.284,350.868 L1509.388,368.112 L1509.388,372 L1529.224,372 Z M1543.912,372.648 C1546.036,372.648 1548.592,372.072 1550.86,369.84 L1550.86,372 L1554.928,372 L1554.928,358.104 L1544.236,358.104 L1544.236,362.28 L1550.572,362.28 C1550.14,366.78 1546.972,368.184 1544.308,368.184 C1540.168,368.184 1537.108,364.98 1537.108,359.4 C1537.108,354.396 1539.448,350.22 1544.236,350.22 C1548.556,350.22 1549.924,353.856 1550.392,355.26 L1554.928,353.424 C1553.38,349.176 1549.492,345.936 1544.2,345.936 C1537.216,345.936 1531.924,351.552 1531.924,359.544 C1531.924,366.384 1536.064,372.648 1543.912,372.648 Z M1567.456,344.208 L1567.456,339.78 L1563.424,339.78 L1563.424,344.208 L1567.456,344.208 Z M1574.728,344.208 L1574.728,339.78 L1570.624,339.78 L1570.624,344.208 L1574.728,344.208 Z M1562.596,372 L1564.072,367.032 L1573.612,367.032 L1575.088,372 L1580.164,372 L1571.488,346.584 L1566.088,346.584 L1557.52,372 L1562.596,372 Z M1572.352,362.892 L1565.332,362.892 L1568.86,351.192 L1572.352,362.892 Z M1588.12,372 L1587.832,354.18 L1598.956,372 L1603.096,372 L1603.096,346.584 L1598.416,346.584 L1598.992,364.548 L1587.76,346.584 L1583.476,346.584 L1583.476,372 L1588.12,372 Z M1619.656,372.648 C1621.78,372.648 1624.336,372.072 1626.604,369.84 L1626.604,372 L1630.672,372 L1630.672,358.104 L1619.98,358.104 L1619.98,362.28 L1626.316,362.28 C1625.884,366.78 1622.716,368.184 1620.052,368.184 C1615.912,368.184 1612.852,364.98 1612.852,359.4 C1612.852,354.396 1615.192,350.22 1619.98,350.22 C1624.3,350.22 1625.668,353.856 1626.136,355.26 L1630.672,353.424 C1629.124,349.176 1625.236,345.936 1619.944,345.936 C1612.96,345.936 1607.668,351.552 1607.668,359.544 C1607.668,366.384 1611.808,372.648 1619.656,372.648 Z M1654.792,372 L1654.792,367.716 L1640.5,367.716 L1640.5,360.912 L1652.74,360.912 L1652.74,356.808 L1640.5,356.808 L1640.5,350.832 L1653.892,350.832 L1653.892,346.584 L1635.82,346.584 L1635.82,372 L1654.792,372 Z M1663.144,372 L1663.144,362.568 L1667.392,362.568 L1672.432,372 L1677.868,372 L1672.216,361.668 C1673.656,361.236 1677.22,359.544 1677.22,354.684 C1677.22,351.732 1675.996,349.716 1674.412,348.42 C1672.18,346.62 1669.912,346.62 1666.528,346.584 L1658.428,346.584 L1658.428,372 L1663.144,372 Z M1665.09225,358.643587 L1663.144,358.644 L1663.144,350.688 L1665.34,350.688 C1668.148,350.688 1669.372,350.724 1670.38,351.228 C1672.36,352.236 1672.396,354.108 1672.396,354.648 C1672.396,358.356 1668.976,358.536 1667.932,358.572 C1667.76325,358.57875 1667.60462,358.5855 1667.44758,358.592013 L1667.13307,358.604651 C1666.60397,358.624954 1666.02917,358.640862 1665.09225,358.643587 Z M1686.328,372 L1686.328,346.584 L1681.648,346.584 L1681.648,372 L1686.328,372 Z M1696.876,372 L1696.588,354.18 L1707.712,372 L1711.852,372 L1711.852,346.584 L1707.172,346.584 L1707.748,364.548 L1696.516,346.584 L1692.232,346.584 L1692.232,372 L1696.876,372 Z M1722.364,372 L1722.076,354.18 L1733.2,372 L1737.34,372 L1737.34,346.584 L1732.66,346.584 L1733.236,364.548 L1722.004,346.584 L1717.72,346.584 L1717.72,372 L1722.364,372 Z M1762.036,372 L1762.036,367.716 L1747.744,367.716 L1747.744,360.912 L1759.984,360.912 L1759.984,356.808 L1747.744,356.808 L1747.744,350.832 L1761.136,350.832 L1761.136,346.584 L1743.064,346.584 L1743.064,372 L1762.036,372 Z M1770.352,372 L1770.064,354.18 L1781.188,372 L1785.328,372 L1785.328,346.584 L1780.648,346.584 L1781.224,364.548 L1769.992,346.584 L1765.708,346.584 L1765.708,372 L1770.352,372 Z M1818.628,370.164 C1821.328,367.86 1821.328,365.484 1821.364,362.604 L1821.364,346.584 L1816.576,346.584 L1816.576,361.956 C1816.576,364.08 1816.576,365.52 1815.172,366.78 C1813.82904,367.950783 1812.02496,368.034624 1811.20901,368.039701 L1811.104,368.04 C1809.592,368.04 1806.928,367.752 1805.956,365.304 C1805.596,364.332 1805.632,363.288 1805.632,362.208 L1805.632,346.584 L1800.88,346.584 L1800.88,361.74 C1800.916,364.908 1800.916,365.7 1801.24,366.816 C1801.816,368.724 1803.436,370.92 1806.46,371.964 C1807.9,372.468 1809.412,372.648 1810.96,372.648 C1812.688,372.648 1816.036,372.432 1818.628,370.164 Z M1831.84,372 L1831.552,354.18 L1842.676,372 L1846.816,372 L1846.816,346.584 L1842.136,346.584 L1842.712,364.548 L1831.48,346.584 L1827.196,346.584 L1827.196,372 L1831.84,372 Z M1860.424,372 C1863.412,371.964 1866.076,371.928 1868.596,370.452 C1872.34,368.292 1873.816,363.864 1873.816,359.508 C1873.816,356.664 1873.168,351.552 1868.92,348.564 C1866.256,346.656 1863.592,346.62 1861.396,346.584 L1852.288,346.584 L1852.288,372 L1860.424,372 Z M1859.40828,367.715399 L1857.04,367.716 L1857.04,350.904 L1859.56,350.904 C1862.764,350.94 1863.52,350.976 1864.888,351.588 C1868.416,353.28 1868.776,357.168 1868.776,359.544 C1868.776,364.836 1866.832,366.42 1864.996,367.14 C1863.952,367.5228 1862.7398,367.70376 1859.40828,367.715399 L1859.40828,367.715399 Z M1892.536,372 L1892.536,346.584 L1887.856,346.584 L1887.856,372 L1892.536,372 Z M1903.156,372 L1903.156,360.444 L1914.064,360.444 L1914.064,372 L1918.852,372 L1918.852,346.584 L1914.064,346.584 L1914.064,356.196 L1903.156,356.196 L1903.156,346.584 L1898.404,346.584 L1898.404,372 L1903.156,372 Z M1929.364,372 L1929.364,362.568 L1933.612,362.568 L1938.652,372 L1944.088,372 L1938.436,361.668 C1939.876,361.236 1943.44,359.544 1943.44,354.684 C1943.44,351.732 1942.216,349.716 1940.632,348.42 C1938.4,346.62 1936.132,346.62 1932.748,346.584 L1924.648,346.584 L1924.648,372 L1929.364,372 Z M1931.31225,358.643587 L1929.364,358.644 L1929.364,350.688 L1931.56,350.688 C1934.368,350.688 1935.592,350.724 1936.6,351.228 C1938.58,352.236 1938.616,354.108 1938.616,354.648 C1938.616,358.356 1935.196,358.536 1934.152,358.572 C1933.98325,358.57875 1933.82462,358.5855 1933.66758,358.592013 L1933.35307,358.604651 C1932.82397,358.624954 1932.24917,358.640862 1931.31225,358.643587 L1931.31225,358.643587 Z M1968.388,372.648 C1970.512,372.648 1973.068,372.072 1975.336,369.84 L1975.336,372 L1979.404,372 L1979.404,358.104 L1968.712,358.104 L1968.712,362.28 L1975.048,362.28 C1974.616,366.78 1971.448,368.184 1968.784,368.184 C1964.644,368.184 1961.584,364.98 1961.584,359.4 C1961.584,354.396 1963.924,350.22 1968.712,350.22 C1973.032,350.22 1974.4,353.856 1974.868,355.26 L1979.404,353.424 C1977.856,349.176 1973.968,345.936 1968.676,345.936 C1961.692,345.936 1956.4,351.552 1956.4,359.544 C1956.4,366.384 1960.54,372.648 1968.388,372.648 Z M1987.072,372 L1988.548,367.032 L1998.088,367.032 L1999.564,372 L2004.64,372 L1995.964,346.584 L1990.564,346.584 L1981.996,372 L1987.072,372 Z M1996.828,362.892 L1989.808,362.892 L1993.336,351.192 L1996.828,362.892 Z M2012.596,372 L2012.308,354.18 L2023.432,372 L2027.572,372 L2027.572,346.584 L2022.892,346.584 L2023.468,364.548 L2012.236,346.584 L2007.952,346.584 L2007.952,372 L2012.596,372 Z M2051.188,372 L2051.188,367.716 L2037.832,367.716 L2051.188,350.652 L2051.188,346.584 L2032.54,346.584 L2032.54,350.868 L2045.248,350.868 L2031.352,368.112 L2031.352,372 L2051.188,372 Z M1330.252,408 L1330.252,399.396 L1333.96,399.396 C1335.508,399.396 1336.84,399.396 1338.244,399.072 C1342.78,398.064 1344.364,394.428 1344.364,391.044 C1344.364,385.896 1340.872,383.664 1338.388,382.98 C1337.0596,382.6236 1335.7312,382.58796 1334.45529,382.584396 L1325.464,382.584 L1325.464,408 L1330.252,408 Z M1334.04346,395.471578 L1330.252,395.472 L1330.252,386.652 L1333.852,386.652 C1335.4,386.652 1337.056,386.688 1338.244,387.696 C1338.676,388.092 1339.504,389.064 1339.504,390.936 C1339.504,391.836 1339.324,394.536 1336.372,395.256 C1335.6475,395.445 1334.89544,395.468625 1334.04346,395.471578 Z M1366.792,408 L1366.792,403.716 L1352.5,403.716 L1352.5,396.912 L1364.74,396.912 L1364.74,392.808 L1352.5,392.808 L1352.5,386.832 L1365.892,386.832 L1365.892,382.584 L1347.82,382.584 L1347.82,408 L1366.792,408 Z M1375.144,408 L1375.144,398.568 L1379.392,398.568 L1384.432,408 L1389.868,408 L1384.216,397.668 C1385.656,397.236 1389.22,395.544 1389.22,390.684 C1389.22,387.732 1387.996,385.716 1386.412,384.42 C1384.18,382.62 1381.912,382.62 1378.528,382.584 L1370.428,382.584 L1370.428,408 L1375.144,408 Z M1377.09225,394.643587 L1375.144,394.644 L1375.144,386.688 L1377.98421,386.688912 C1380.34246,386.696755 1381.45264,386.76432 1382.38,387.228 C1384.36,388.236 1384.396,390.108 1384.396,390.648 C1384.396,394.356 1380.976,394.536 1379.932,394.572 C1379.76325,394.57875 1379.60462,394.5855 1379.44758,394.592013 L1379.13307,394.604651 C1378.60397,394.624954 1378.02917,394.640862 1377.09225,394.643587 Z M1402.72,408.648 C1408.12,408.648 1413.52,406.308 1413.52,400.476 C1413.52,395.04 1408.696,393.636 1405.276,392.916 L1402.648,392.34 C1400.344,391.908 1397.968,391.476 1397.968,389.316 C1397.968,387.372 1400.2,386.22 1402.756,386.22 C1406.824,386.22 1408.48,388.74 1409.344,390 L1413.232,387.084 C1411.432,384.636 1408.48,381.936 1403.008,381.936 C1397.032,381.936 1392.964,385.032 1392.964,389.856 C1392.964,394.068 1396.096,395.616 1397.248,396.084 C1398.04,396.408 1398.832,396.588 1400.452,396.984 L1403.512,397.632 C1405.40457,398.075571 1405.79111,398.179071 1406.18806,398.32161 L1406.29285,398.359929 C1406.34636,398.379781 1406.40229,398.400857 1406.464,398.424 C1407.256,398.748 1408.372,399.324 1408.372,400.944 C1408.372,401.808 1408.048,403.104 1406.212,403.86 C1405.312,404.22 1404.376,404.292 1403.476,404.292 C1398.112,404.292 1396.204,401.376 1395.592,400.44 L1391.596,403.248 C1393.504,406.344 1396.492,407.568 1398.184,408.072 C1399.732,408.504 1401.316,408.648 1402.72,408.648 Z M1427.092,380.208 L1427.092,375.78 L1423.06,375.78 L1423.06,380.208 L1427.092,380.208 Z M1434.364,380.208 L1434.364,375.78 L1430.26,375.78 L1430.26,380.208 L1434.364,380.208 Z M1428.64,408.648 C1436.452,408.648 1440.844,402.564 1440.88016,395.292 C1440.916,386.616 1435.012,381.936 1428.712,381.936 C1421.764,381.936 1416.508,387.552 1416.508,395.328 C1416.508,398.532 1417.372,401.844 1419.892,404.76 C1422.484,407.748 1425.436,408.648 1428.64,408.648 Z M1428.784,404.256 C1424.572,404.256 1421.404,400.836 1421.404,395.112 C1421.404,389.82 1424.32,386.292 1428.676,386.292 C1433.68,386.292 1436.236,390.864 1436.128,395.832 C1436.02,401.952 1431.952,404.256 1428.784,404.256 Z M1450.132,408 L1449.844,390.18 L1460.968,408 L1465.108,408 L1465.108,382.584 L1460.428,382.584 L1461.004,400.548 L1449.772,382.584 L1445.488,382.584 L1445.488,408 L1450.132,408 Z M1485.844,408 L1485.844,403.68 L1475.764,403.68 L1475.764,382.548 L1470.976,382.548 L1470.976,408 L1485.844,408 Z M1494.34,408 L1494.34,382.584 L1489.66,382.584 L1489.66,408 L1494.34,408 Z M1510.504,408.648 C1514.644,408.648 1517.488,406.812 1519.288,404.724 C1520.548,403.212 1521.16,401.736 1521.484,400.908 L1517.02,399.036 C1516.84,399.612 1516.516,400.548 1515.688,401.664 C1514.644,402.996 1513.204,404.148 1510.828,404.148 C1506.832,404.148 1503.772,400.944 1503.772,395.148 C1503.772,389.712 1506.652,386.292 1510.792,386.292 C1513.42,386.292 1514.824,387.732 1515.364,388.524 C1516.012,389.496 1516.228,390.576 1516.3,391.044 L1521.052,389.784 C1520.476,388.02 1518.604,381.936 1510.684,381.936 C1504.204,381.936 1498.624,386.58 1498.624,395.22 C1498.624,403.716 1503.772,408.648 1510.504,408.648 Z M1529.728,408 L1529.728,396.444 L1540.636,396.444 L1540.636,408 L1545.424,408 L1545.424,382.584 L1540.636,382.584 L1540.636,392.196 L1529.728,392.196 L1529.728,382.584 L1524.976,382.584 L1524.976,408 L1529.728,408 Z M1570.084,408 L1570.084,403.716 L1555.792,403.716 L1555.792,396.912 L1568.032,396.912 L1568.032,392.808 L1555.792,392.808 L1555.792,386.832 L1569.184,386.832 L1569.184,382.584 L1551.112,382.584 L1551.112,408 L1570.084,408 Z M1578.436,408 L1578.436,398.568 L1582.684,398.568 L1587.724,408 L1593.16,408 L1587.508,397.668 C1588.948,397.236 1592.512,395.544 1592.512,390.684 C1592.512,387.732 1591.288,385.716 1589.704,384.42 C1587.472,382.62 1585.204,382.62 1581.82,382.584 L1573.72,382.584 L1573.72,408 L1578.436,408 Z M1580.38425,394.643587 L1578.436,394.644 L1578.436,386.688 L1581.27621,386.688912 C1583.63446,386.696755 1584.74464,386.76432 1585.672,387.228 C1587.652,388.236 1587.688,390.108 1587.688,390.648 C1587.688,394.356 1584.268,394.536 1583.224,394.572 C1583.05525,394.57875 1582.89662,394.5855 1582.73958,394.592013 L1582.42507,394.604651 C1581.89597,394.624954 1581.32117,394.640862 1580.38425,394.643587 Z M1611.412,408 L1611.412,400.8 L1615.552,396.048 L1622.32,408 L1627.756,408 L1618.864,392.16 L1627.216,382.584 L1621.6,382.584 L1611.412,394.248 L1611.412,382.584 L1606.696,382.584 L1606.696,408 L1611.412,408 Z M1633.156,408 L1634.632,403.032 L1644.172,403.032 L1645.648,408 L1650.724,408 L1642.048,382.584 L1636.648,382.584 L1628.08,408 L1633.156,408 Z M1642.912,398.892 L1635.892,398.892 L1639.42,387.192 L1642.912,398.892 Z M1658.464,408 L1657.996,387.12 L1663.504,408 L1667.788,408 L1673.26,387.12 L1672.828,408 L1677.472,408 L1677.472,382.584 L1670.56,382.584 L1665.7,401.448 L1660.732,382.584 L1653.82,382.584 L1653.82,408 L1658.464,408 Z M1688.056,408 L1688.056,399.396 L1691.764,399.396 C1693.312,399.396 1694.644,399.396 1696.048,399.072 C1700.584,398.064 1702.168,394.428 1702.168,391.044 C1702.168,385.896 1698.676,383.664 1696.192,382.98 C1694.8636,382.6236 1693.5352,382.58796 1692.25929,382.584396 L1683.268,382.584 L1683.268,408 L1688.056,408 Z M1691.84746,395.471578 L1688.056,395.472 L1688.056,386.652 L1691.656,386.652 C1693.204,386.652 1694.86,386.688 1696.048,387.696 C1696.48,388.092 1697.308,389.064 1697.308,390.936 C1697.308,391.836 1697.128,394.536 1694.176,395.256 C1693.4515,395.445 1692.69944,395.468625 1691.84746,395.471578 Z M1710.448,408 L1710.448,397.236 L1721.068,397.236 L1721.068,393.168 L1710.448,393.168 L1710.448,386.832 L1722.544,386.832 L1722.544,382.584 L1705.732,382.584 L1705.732,408 L1710.448,408 Z M1740.436,408 L1740.436,397.236 L1751.056,397.236 L1751.056,393.168 L1740.436,393.168 L1740.436,386.832 L1752.532,386.832 L1752.532,382.584 L1735.72,382.584 L1735.72,408 L1740.436,408 Z M1764.556,380.208 L1764.556,375.78 L1760.524,375.78 L1760.524,380.208 L1764.556,380.208 Z M1771.828,380.208 L1771.828,375.78 L1767.724,375.78 L1767.724,380.208 L1771.828,380.208 Z M1773.664,406.164 C1776.364,403.86 1776.364,401.484 1776.4,398.604 L1776.4,382.584 L1771.612,382.584 L1771.612,397.956 C1771.612,400.08 1771.612,401.52 1770.208,402.78 C1768.804,404.004 1766.896,404.04 1766.14,404.04 C1764.628,404.04 1761.964,403.752 1760.992,401.304 C1760.632,400.332 1760.668,399.288 1760.668,398.208 L1760.668,382.584 L1755.916,382.584 L1755.916,397.74 C1755.952,400.908 1755.952,401.7 1756.276,402.816 C1756.852,404.724 1758.472,406.92 1761.496,407.964 C1762.936,408.468 1764.448,408.648 1765.996,408.648 C1767.724,408.648 1771.072,408.432 1773.664,406.164 Z M1786.912,408 L1786.912,398.568 L1791.16,398.568 L1796.2,408 L1801.636,408 L1795.984,397.668 C1797.424,397.236 1800.988,395.544 1800.988,390.684 C1800.988,387.732 1799.764,385.716 1798.18,384.42 C1795.948,382.62 1793.68,382.62 1790.296,382.584 L1782.196,382.584 L1782.196,408 L1786.912,408 Z M1788.86025,394.643587 L1786.912,394.644 L1786.912,386.688 L1789.75221,386.688912 C1792.11046,386.696755 1793.22064,386.76432 1794.148,387.228 C1796.128,388.236 1796.164,390.108 1796.164,390.648 C1796.164,394.356 1792.744,394.536 1791.7,394.572 C1791.53125,394.57875 1791.37262,394.5855 1791.21558,394.592013 L1790.90107,394.604651 C1790.37197,394.624954 1789.79717,394.640862 1788.86025,394.643587 Z M1832.92,406.164 C1835.62,403.86 1835.62,401.484 1835.656,398.604 L1835.656,382.584 L1830.868,382.584 L1830.868,397.956 C1830.868,400.08 1830.868,401.52 1829.464,402.78 C1828.06,404.004 1826.152,404.04 1825.396,404.04 C1823.884,404.04 1821.22,403.752 1820.248,401.304 C1819.888,400.332 1819.924,399.288 1819.924,398.208 L1819.924,382.584 L1815.172,382.584 L1815.172,397.74 C1815.208,400.908 1815.208,401.7 1815.532,402.816 C1816.108,404.724 1817.728,406.92 1820.752,407.964 C1822.192,408.468 1823.704,408.648 1825.252,408.648 C1826.98,408.648 1830.328,408.432 1832.92,406.164 Z M1846.132,408 L1845.844,390.18 L1856.968,408 L1861.108,408 L1861.108,382.584 L1856.428,382.584 L1857.004,400.548 L1845.772,382.584 L1841.488,382.584 L1841.488,408 L1846.132,408 Z M1869.352,408 L1870.828,403.032 L1880.368,403.032 L1881.844,408 L1886.92,408 L1878.244,382.584 L1872.844,382.584 L1864.276,408 L1869.352,408 Z M1879.108,398.892 L1872.088,398.892 L1875.616,387.192 L1879.108,398.892 Z M1905.892,407.388 C1908.952,406.308 1910.428,403.716 1910.428,400.8 C1910.428,396.876 1907.8,394.608 1904.992,394.104 C1906.36,393.852 1907.368,393.312 1908.16,392.268 C1908.88,391.296 1909.24,389.928 1909.24,388.812 C1909.24,386.04 1907.332,383.772 1904.776,383.016 C1903.552,382.656 1902.652,382.62 1899.268,382.584 L1890.196,382.584 L1890.196,408 L1900.132,408 C1903.012,408 1904.272,407.964 1905.892,407.388 Z M1897.3962,392.807558 L1894.912,392.808 L1894.912,386.472 L1897.9,386.472 C1901.356,386.508 1901.86,386.544 1902.868,387.12 C1903.84,387.696 1904.344,388.668 1904.344,389.64 C1904.344,390.792 1903.66,391.764 1902.652,392.268 C1901.788,392.736 1900.6,392.772 1899.412,392.772 C1898.96892,392.799692 1898.29153,392.806083 1897.3962,392.807558 Z M1900.16322,403.895685 L1894.912,403.896 L1894.912,396.372 L1899.628,396.408 C1901.248,396.408 1903.912,396.408 1905.064,398.46 C1905.424,399.108 1905.532,399.792 1905.532,400.368 C1905.532,401.592 1905.028,402.564 1904.38,403.032 C1903.24343,403.834286 1902.51039,403.891592 1900.16322,403.895685 Z M1919.716,408 L1919.716,396.444 L1930.624,396.444 L1930.624,408 L1935.412,408 L1935.412,382.584 L1930.624,382.584 L1930.624,392.196 L1919.716,392.196 L1919.716,382.584 L1914.964,382.584 L1914.964,408 L1919.716,408 Z M1948.48,380.208 L1948.48,375.78 L1944.448,375.78 L1944.448,380.208 L1948.48,380.208 Z M1955.752,380.208 L1955.752,375.78 L1951.648,375.78 L1951.648,380.208 L1955.752,380.208 Z M1943.62,408 L1945.096,403.032 L1954.636,403.032 L1956.112,408 L1961.188,408 L1952.512,382.584 L1947.112,382.584 L1938.544,408 L1943.62,408 Z M1953.376,398.892 L1946.356,398.892 L1949.884,387.192 L1953.376,398.892 Z M1969.144,408 L1968.856,390.18 L1979.98,408 L1984.12,408 L1984.12,382.584 L1979.44,382.584 L1980.016,400.548 L1968.784,382.584 L1964.5,382.584 L1964.5,408 L1969.144,408 Z M2000.68,408.648 C2002.804,408.648 2005.36,408.072 2007.628,405.84 L2007.628,408 L2011.696,408 L2011.696,394.104 L2001.004,394.104 L2001.004,398.28 L2007.34,398.28 C2006.908,402.78 2003.74,404.184 2001.076,404.184 C1996.936,404.184 1993.876,400.98 1993.876,395.4 C1993.876,390.396 1996.216,386.22 2001.004,386.22 C2005.324,386.22 2006.692,389.856 2007.16,391.26 L2011.696,389.424 C2010.148,385.176 2006.26,381.936 2000.968,381.936 C1993.984,381.936 1988.692,387.552 1988.692,395.544 C1988.692,402.384 1992.832,408.648 2000.68,408.648 Z M2021.596,408 L2021.596,382.584 L2016.916,382.584 L2016.916,408 L2021.596,408 Z M2038.192,408.648 C2040.316,408.648 2042.872,408.072 2045.14,405.84 L2045.14,408 L2049.208,408 L2049.208,394.104 L2038.516,394.104 L2038.516,398.28 L2044.852,398.28 C2044.42,402.78 2041.252,404.184 2038.588,404.184 C2034.448,404.184 2031.388,400.98 2031.388,395.4 C2031.388,390.396 2033.728,386.22 2038.516,386.22 C2042.836,386.22 2044.204,389.856 2044.672,391.26 L2049.208,389.424 C2047.66,385.176 2043.772,381.936 2038.48,381.936 C2031.496,381.936 2026.204,387.552 2026.204,395.544 C2026.204,402.384 2030.344,408.648 2038.192,408.648 Z M2059.144,408 L2059.144,400.8 L2063.284,396.048 L2070.052,408 L2075.488,408 L2066.596,392.16 L2074.948,382.584 L2069.332,382.584 L2059.144,394.248 L2059.144,382.584 L2054.428,382.584 L2054.428,408 L2059.144,408 Z M2097.34,408 L2097.34,403.716 L2083.048,403.716 L2083.048,396.912 L2095.288,396.912 L2095.288,392.808 L2083.048,392.808 L2083.048,386.832 L2096.44,386.832 L2096.44,382.584 L2078.368,382.584 L2078.368,408 L2097.34,408 Z M2105.62,408 L2105.62,382.584 L2100.94,382.584 L2100.94,408 L2105.62,408 Z M2121.028,408 L2121.028,386.904 L2128.048,386.904 L2128.048,382.584 L2109.4,382.584 L2109.4,386.904 L2116.276,386.904 L2116.276,408 L2121.028,408 Z" id="VIERGRENZGÄNGERINNENUNDIHRGANZPERSÖNLICHERKAMPFFÜRUNABHÄNGIGKEIT" fill="#000000" fill-rule="nonzero"></path>
                <path d="M344.3648,408.333333 L348.2024,395.416533 L373.0064,395.416533 L376.844,408.333333 L390.0416,408.333333 L367.484,342.251733 L353.444,342.251733 L331.1672,408.333333 L344.3648,408.333333 Z M369.7304,384.652533 L351.4784,384.652533 L360.6512,354.232533 L369.7304,384.652533 Z M426.452,410.018133 C431.9744,410.018133 438.62,408.520533 444.5168,402.717333 L444.5168,408.333333 L455.0936,408.333333 L455.0936,372.203733 L427.2944,372.203733 L427.2944,383.061333 L443.768,383.061333 C442.6448,394.761333 434.408,398.411733 427.4816,398.411733 C416.7176,398.411733 408.7616,390.081333 408.7616,375.573333 C408.7616,362.562933 414.8456,351.705333 427.2944,351.705333 C438.5264,351.705333 442.0832,361.158933 443.3,364.809333 L455.0936,360.035733 C451.0688,348.990933 440.96,340.566933 427.2008,340.566933 C409.0424,340.566933 395.2832,355.168533 395.2832,375.947733 C395.2832,393.731733 406.0472,410.018133 426.452,410.018133 Z M475.0304,408.333333 L478.868,395.416533 L503.672,395.416533 L507.5096,408.333333 L520.7072,408.333333 L498.1496,342.251733 L484.1096,342.251733 L461.8328,408.333333 L475.0304,408.333333 Z M500.396,384.652533 L482.144,384.652533 L491.3168,354.232533 L500.396,384.652533 Z M541.2992,408.333333 L541.2992,342.251733 L529.1312,342.251733 L529.1312,408.333333 L541.2992,408.333333 Z M568.724,408.333333 L567.9752,362.001333 L596.8976,408.333333 L607.6616,408.333333 L607.6616,342.251733 L595.4936,342.251733 L596.9912,388.958133 L567.788,342.251733 L556.6496,342.251733 L556.6496,408.333333 L568.724,408.333333 Z M646.3184,410.018133 C660.3584,410.018133 674.3984,403.934133 674.3984,388.770933 C674.3984,374.637333 661.856,370.986933 652.964,369.114933 L646.1312,367.617333 C645.937961,367.581101 645.744528,367.544869 645.551113,367.508486 L644.971139,367.398733 C639.369404,366.330504 633.9632,365.008611 633.9632,359.754933 C633.9632,354.700533 639.7664,351.705333 646.412,351.705333 C656.9888,351.705333 661.2944,358.257333 663.5408,361.533333 L673.6496,353.951733 C668.9696,347.586933 661.2944,340.566933 647.0672,340.566933 C631.5296,340.566933 620.9528,348.616533 620.9528,361.158933 C620.9528,372.110133 629.096,376.134933 632.0912,377.351733 C634.1504,378.194133 636.2096,378.662133 640.4216,379.691733 L648.3776,381.376533 C653.409536,382.555893 654.346734,382.810635 655.405453,383.194823 L655.557981,383.250702 C655.712246,383.307689 655.873088,383.368341 656.0528,383.435733 C658.112,384.278133 661.0136,385.775733 661.0136,389.987733 C661.0136,392.234133 660.1712,395.603733 655.3976,397.569333 C653.0576,398.505333 650.624,398.692533 648.284,398.692533 C634.3376,398.692533 629.3768,391.110933 627.7856,388.677333 L617.396,395.978133 C622.3568,404.027733 630.1256,407.210133 634.5248,408.520533 C638.5496,409.643733 642.668,410.018133 646.3184,410.018133 Z M710.06,408.333333 L710.06,353.483733 L728.312,353.483733 L728.312,342.251733 L679.8272,342.251733 L679.8272,353.483733 L697.7048,353.483733 L697.7048,408.333333 L710.06,408.333333 Z M769.496,408.333333 L773.3336,395.416533 L798.1376,395.416533 L801.9752,408.333333 L815.1728,408.333333 L792.6152,342.251733 L778.5752,342.251733 L756.2984,408.333333 L769.496,408.333333 Z M794.8616,384.652533 L776.6096,384.652533 L785.7824,354.232533 L794.8616,384.652533 Z M862.4408,408.333333 L862.4408,397.101333 L836.2328,397.101333 L836.2328,342.158133 L823.784,342.158133 L823.784,408.333333 L862.4408,408.333333 Z M911.2064,408.333333 L911.2064,397.101333 L884.9984,397.101333 L884.9984,342.158133 L872.5496,342.158133 L872.5496,408.333333 L911.2064,408.333333 Z M975.0416,410.018133 C995.3528,410.018133 1006.772,394.199733 1006.86603,375.292533 C1006.9592,352.734933 991.6088,340.566933 975.2288,340.566933 C957.164,340.566933 943.4984,355.168533 943.4984,375.386133 C943.4984,383.716533 945.7448,392.327733 952.2968,399.909333 C959.036,407.678133 966.7112,410.018133 975.0416,410.018133 Z M975.416,398.598933 C964.4648,398.598933 956.228,389.706933 956.228,374.824533 C956.228,361.065333 963.8096,351.892533 975.1352,351.892533 C988.1456,351.892533 994.7912,363.779733 994.5104,376.696533 C994.2296,392.608533 983.6528,398.598933 975.416,398.598933 Z M1038.9704,408.333333 C1046.7392,408.239733 1053.6656,408.146133 1060.2176,404.308533 C1069.952,398.692533 1073.7896,387.179733 1073.7896,375.854133 C1073.7896,368.459733 1072.1048,355.168533 1061.06,347.399733 C1054.1336,342.438933 1047.2072,342.345333 1041.4976,342.251733 L1017.8168,342.251733 L1017.8168,408.333333 L1038.9704,408.333333 Z M1035.90924,397.194485 L1030.172,397.194933 L1030.172,353.483733 L1036.724,353.483733 C1045.0544,353.577333 1047.02,353.670933 1050.5768,355.262133 C1059.7496,359.661333 1060.6856,369.770133 1060.6856,375.947733 C1060.6856,389.706933 1055.6312,393.825333 1050.8576,395.697333 C1048.09974,396.708548 1044.89045,397.17804 1035.90924,397.194485 L1035.90924,397.194485 Z M1105.2392,408.333333 C1113.008,408.239733 1119.9344,408.146133 1126.4864,404.308533 C1136.2208,398.692533 1140.0584,387.179733 1140.0584,375.854133 C1140.0584,368.459733 1138.3736,355.168533 1127.3288,347.399733 C1120.4024,342.438933 1113.476,342.345333 1107.7664,342.251733 L1084.0856,342.251733 L1084.0856,408.333333 L1105.2392,408.333333 Z M1102.17804,397.194485 L1096.4408,397.194933 L1096.4408,353.483733 L1102.9928,353.483733 C1111.3232,353.577333 1113.2888,353.670933 1116.8456,355.262133 C1126.0184,359.661333 1126.9544,369.770133 1126.9544,375.947733 C1126.9544,389.706933 1121.9,393.825333 1117.1264,395.697333 C1114.36854,396.708548 1111.15925,397.17804 1102.17804,397.194485 L1102.17804,397.194485 Z M1174.784,410.018133 C1188.824,410.018133 1202.864,403.934133 1202.864,388.770933 C1202.864,374.637333 1190.3216,370.986933 1181.4296,369.114933 L1174.5968,367.617333 C1174.40356,367.581101 1174.21013,367.544869 1174.01671,367.508486 L1173.43674,367.398733 L1173.43674,367.398733 L1172.56979,367.230429 L1172.56979,367.230429 L1171.99571,367.114455 C1166.94308,366.073372 1162.4288,364.555708 1162.4288,359.754933 C1162.4288,354.700533 1168.232,351.705333 1174.8776,351.705333 C1185.4544,351.705333 1189.76,358.257333 1192.0064,361.533333 L1202.1152,353.951733 C1197.4352,347.586933 1189.76,340.566933 1175.5328,340.566933 C1159.9952,340.566933 1149.4184,348.616533 1149.4184,361.158933 C1149.4184,372.110133 1157.5616,376.134933 1160.5568,377.351733 C1162.616,378.194133 1164.6752,378.662133 1168.8872,379.691733 L1176.8432,381.376533 C1182.8336,382.780533 1183.0208,382.874133 1184.5184,383.435733 C1186.5776,384.278133 1189.4792,385.775733 1189.4792,389.987733 C1189.4792,392.234133 1188.6368,395.603733 1183.8632,397.569333 C1181.5232,398.505333 1179.0896,398.692533 1176.7496,398.692533 C1162.8032,398.692533 1157.8424,391.110933 1156.2512,388.677333 L1145.8616,395.978133 C1150.8224,404.027733 1158.5912,407.210133 1162.9904,408.520533 C1167.0152,409.643733 1171.1336,410.018133 1174.784,410.018133 Z" id="AGAINSTALLODDS" fill="#000000" fill-rule="nonzero"></path>
                <polygon id="Fill-1" fill="#000000" points="1269.49048 361 1266.93232 363.56464 1279.35808 376.01344 1241.512 376.01344 1241.512 379.64008 1279.35808 379.64008 1266.93232 392.08888 1269.49048 394.65352 1286.28664 377.8264"></polygon>
                <path d="M12.168,259.666667 L12.168,193.585067 L1.93267624e-12,193.585067 L1.93267624e-12,259.666667 L12.168,259.666667 Z M54.1944,261.351467 C64.9584,261.351467 72.3528,256.577867 77.0328,251.149067 C80.3088,247.217867 81.9,243.380267 82.7424,241.227467 L71.136,236.360267 C70.668,237.857867 69.8256,240.291467 67.6728,243.193067 C64.9584,246.656267 61.2144,249.651467 55.0368,249.651467 C44.6472,249.651467 36.6912,241.321067 36.6912,226.251467 C36.6912,212.117867 44.1792,203.225867 54.9432,203.225867 C61.776,203.225867 65.4264,206.969867 66.8304,209.029067 C68.5152,211.556267 69.0768,214.364267 69.264,215.581067 L81.6192,212.305067 C80.1216,207.718667 75.2544,191.900267 54.6624,191.900267 C37.8144,191.900267 23.3064,203.974667 23.3064,226.438667 C23.3064,248.528267 36.6912,261.351467 54.1944,261.351467 Z M104.1768,259.666667 L104.1768,229.621067 L132.5376,229.621067 L132.5376,259.666667 L144.9864,259.666667 L144.9864,193.585067 L132.5376,193.585067 L132.5376,218.576267 L104.1768,218.576267 L104.1768,193.585067 L91.8216,193.585067 L91.8216,259.666667 L104.1768,259.666667 Z M197.7768,259.666667 L197.7768,229.621067 L226.1376,229.621067 L226.1376,259.666667 L238.5864,259.666667 L238.5864,193.585067 L226.1376,193.585067 L226.1376,218.576267 L197.7768,218.576267 L197.7768,193.585067 L185.4216,193.585067 L185.4216,259.666667 L197.7768,259.666667 Z M259.9272,259.666667 L263.7648,246.749867 L288.5688,246.749867 L292.4064,259.666667 L305.604,259.666667 L283.0464,193.585067 L269.0064,193.585067 L246.7296,259.666667 L259.9272,259.666667 Z M285.2928,235.985867 L267.0408,235.985867 L276.2136,205.565867 L285.2928,235.985867 Z M354.9312,258.075467 C362.8872,255.267467 366.7248,248.528267 366.7248,240.946667 C366.7248,230.744267 359.892,224.847467 352.5912,223.537067 C356.148,222.881867 358.7688,221.477867 360.828,218.763467 C362.7,216.236267 363.636,212.679467 363.636,209.777867 C363.636,202.570667 358.6752,196.673867 352.0296,194.708267 C348.8472,193.772267 346.5072,193.678667 337.7088,193.585067 L314.1216,193.585067 L314.1216,259.666667 L340.973219,259.665927 C347.749969,259.654922 350.915107,259.503411 354.9312,258.075467 Z M332.316665,220.166974 L326.3832,220.167467 L326.3832,203.693867 L334.152,203.693867 C343.1376,203.787467 344.448,203.881067 347.0688,205.378667 C349.596,206.876267 350.9064,209.403467 350.9064,211.930667 C350.9064,214.925867 349.128,217.453067 346.5072,218.763467 C344.2608,219.980267 341.172,220.073867 338.0832,220.073867 C336.846052,220.151188 334.906285,220.164636 332.316665,220.166974 L332.316665,220.166974 Z M339.809139,248.995781 L326.3832,248.996267 L326.3832,229.433867 L338.6448,229.527467 C342.8568,229.527467 349.7832,229.527467 352.7784,234.862667 C353.7144,236.547467 353.9952,238.325867 353.9952,239.823467 C353.9952,243.005867 352.6848,245.533067 351,246.749867 C348.008544,248.861483 346.092252,248.98818 339.809139,248.995781 L339.809139,248.995781 Z M427.5648,259.666667 L427.5648,248.528267 L390.4056,248.528267 L390.4056,230.837867 L422.2296,230.837867 L422.2296,220.167467 L390.4056,220.167467 L390.4056,204.629867 L425.2248,204.629867 L425.2248,193.585067 L378.2376,193.585067 L378.2376,259.666667 L427.5648,259.666667 Z M473.9904,259.666667 L472.7736,205.378667 L487.0944,259.666667 L498.2328,259.666667 L512.46,205.378667 L511.3368,259.666667 L523.4112,259.666667 L523.4112,193.585067 L505.44,193.585067 L492.804,242.631467 L479.8872,193.585067 L461.916,193.585067 L461.916,259.666667 L473.9904,259.666667 Z M550.4616,259.666667 L550.4616,193.585067 L538.2936,193.585067 L538.2936,259.666667 L550.4616,259.666667 Z M592.488,261.351467 C603.252,261.351467 610.6464,256.577867 615.3264,251.149067 C618.6024,247.217867 620.1936,243.380267 621.036,241.227467 L609.4296,236.360267 C608.9616,237.857867 608.1192,240.291467 605.9664,243.193067 C603.252,246.656267 599.508,249.651467 593.3304,249.651467 C582.9408,249.651467 574.9848,241.321067 574.9848,226.251467 C574.9848,212.117867 582.4728,203.225867 593.2368,203.225867 C600.0696,203.225867 603.72,206.969867 605.124,209.029067 C606.8088,211.556267 607.3704,214.364267 607.5576,215.581067 L619.9128,212.305067 C618.4152,207.718667 613.548,191.900267 592.956,191.900267 C576.108,191.900267 561.6,203.974667 561.6,226.438667 C561.6,248.528267 574.9848,261.351467 592.488,261.351467 Z M642.4704,259.666667 L642.4704,229.621067 L670.8312,229.621067 L670.8312,259.666667 L683.28,259.666667 L683.28,193.585067 L670.8312,193.585067 L670.8312,218.576267 L642.4704,218.576267 L642.4704,193.585067 L630.1152,193.585067 L630.1152,259.666667 L642.4704,259.666667 Z M729.9864,259.666667 L733.824,246.749867 L758.628,246.749867 L762.4656,259.666667 L775.6632,259.666667 L753.1056,193.585067 L739.0656,193.585067 L716.7888,259.666667 L729.9864,259.666667 Z M755.352,235.985867 L737.1,235.985867 L746.2728,205.565867 L755.352,235.985867 Z M830.232,254.893067 C837.252,248.902667 837.252,242.725067 837.3456,235.237067 L837.3456,193.585067 L824.8968,193.585067 L824.896457,234.294421 C824.889258,239.414063 824.730873,242.967576 821.2464,246.094667 C817.769829,249.125524 813.104686,249.354748 810.970311,249.369707 L810.6696,249.370667 C806.7384,249.370667 799.812,248.621867 797.2848,242.257067 C796.3488,239.729867 796.4424,237.015467 796.4424,234.207467 L796.4424,193.585067 L784.0872,193.585067 L784.0872,232.990667 C784.1808,241.227467 784.1808,243.286667 785.0232,246.188267 C786.5208,251.149067 790.7328,256.858667 798.5952,259.573067 C802.3392,260.883467 806.2704,261.351467 810.2952,261.351467 C814.788,261.351467 823.4928,260.789867 830.232,254.893067 Z M875.9088,261.351467 C889.9488,261.351467 903.9888,255.267467 903.9888,240.104267 C903.9888,225.970667 891.4464,222.320267 882.5544,220.448267 L875.7216,218.950667 C875.528361,218.914434 875.334928,218.878202 875.141513,218.841819 L874.561539,218.732067 C874.271794,218.676813 873.982573,218.620881 873.694595,218.563762 L873.120512,218.447789 C868.067876,217.406705 863.5536,215.889041 863.5536,211.088267 C863.5536,206.033867 869.3568,203.038667 876.0024,203.038667 C886.5792,203.038667 890.8848,209.590667 893.1312,212.866667 L903.24,205.285067 C898.56,198.920267 890.8848,191.900267 876.6576,191.900267 C861.12,191.900267 850.5432,199.949867 850.5432,212.492267 C850.5432,223.443467 858.6864,227.468267 861.6816,228.685067 C863.7408,229.527467 865.8,229.995467 870.012,231.025067 L877.968,232.709867 C883.9584,234.113867 884.1456,234.207467 885.6432,234.769067 C887.7024,235.611467 890.604,237.109067 890.604,241.321067 C890.604,243.567467 889.7616,246.937067 884.988,248.902667 C882.648,249.838667 880.2144,250.025867 877.8744,250.025867 C863.928,250.025867 858.9672,242.444267 857.376,240.010667 L846.9864,247.311467 C851.9472,255.361067 859.716,258.543467 864.1152,259.853867 C868.14,260.977067 872.2584,261.351467 875.9088,261.351467 Z M951.8184,259.666667 L950.6016,205.378667 L964.9224,259.666667 L976.0608,259.666667 L990.288,205.378667 L989.1648,259.666667 L1001.2392,259.666667 L1001.2392,193.585067 L983.268,193.585067 L970.632,242.631467 L957.7152,193.585067 L939.744,193.585067 L939.744,259.666667 L951.8184,259.666667 Z M1065.2616,259.666667 L1065.2616,248.528267 L1028.1024,248.528267 L1028.1024,230.837867 L1059.9264,230.837867 L1059.9264,220.167467 L1028.1024,220.167467 L1028.1024,204.629867 L1062.9216,204.629867 L1062.9216,193.585067 L1015.9344,193.585067 L1015.9344,259.666667 L1065.2616,259.666667 Z M1086.7896,259.666667 L1086.7896,193.585067 L1074.6216,193.585067 L1074.6216,259.666667 L1086.7896,259.666667 Z M1114.2144,259.666667 L1113.4656,213.334667 L1142.388,259.666667 L1153.152,259.666667 L1153.152,193.585067 L1140.984,193.585067 L1142.4816,240.291467 L1113.2784,193.585067 L1102.14,193.585067 L1102.14,259.666667 L1114.2144,259.666667 Z M1217.3616,259.666667 L1217.3616,248.528267 L1180.2024,248.528267 L1180.2024,230.837867 L1212.0264,230.837867 L1212.0264,220.167467 L1180.2024,220.167467 L1180.2024,204.629867 L1215.0216,204.629867 L1215.0216,193.585067 L1168.0344,193.585067 L1168.0344,259.666667 L1217.3616,259.666667 Z M1238.4216,259.666667 L1237.2048,205.378667 L1251.5256,259.666667 L1262.664,259.666667 L1276.8912,205.378667 L1275.768,259.666667 L1287.8424,259.666667 L1287.8424,193.585067 L1269.8712,193.585067 L1257.2352,242.631467 L1244.3184,193.585067 L1226.3472,193.585067 L1226.3472,259.666667 L1238.4216,259.666667 Z M1334.4552,259.666667 L1338.2928,246.749867 L1363.0968,246.749867 L1366.9344,259.666667 L1380.132,259.666667 L1357.5744,193.585067 L1343.5344,193.585067 L1321.2576,259.666667 L1334.4552,259.666667 Z M1359.8208,235.985867 L1341.5688,235.985867 L1350.7416,205.565867 L1359.8208,235.985867 Z M1434.7008,254.893067 C1441.7208,248.902667 1441.7208,242.725067 1441.8144,235.237067 L1441.8144,193.585067 L1429.3656,193.585067 L1429.36526,234.294421 C1429.35806,239.414063 1429.19967,242.967576 1425.7152,246.094667 C1422.23863,249.125524 1417.57349,249.354748 1415.43911,249.369707 L1415.1384,249.370667 C1411.2072,249.370667 1404.2808,248.621867 1401.7536,242.257067 C1400.8176,239.729867 1400.9112,237.015467 1400.9112,234.207467 L1400.9112,193.585067 L1388.556,193.585067 L1388.556,232.990667 C1388.634,239.854667 1388.647,242.428667 1389.13667,244.775167 L1389.20483,245.087042 C1389.28776,245.450156 1389.3828,245.812133 1389.492,246.188267 C1390.9896,251.149067 1395.2016,256.858667 1403.064,259.573067 C1406.808,260.883467 1410.7392,261.351467 1414.764,261.351467 C1419.2568,261.351467 1427.9616,260.789867 1434.7008,254.893067 Z M1480.3776,261.351467 C1494.4176,261.351467 1508.4576,255.267467 1508.4576,240.104267 C1508.4576,225.970667 1495.9152,222.320267 1487.0232,220.448267 L1480.1904,218.950667 C1479.99716,218.914434 1479.80373,218.878202 1479.61031,218.841819 L1479.03034,218.732067 C1473.4286,217.663837 1468.0224,216.341944 1468.0224,211.088267 C1468.0224,206.033867 1473.8256,203.038667 1480.4712,203.038667 C1491.048,203.038667 1495.3536,209.590667 1497.6,212.866667 L1507.7088,205.285067 C1503.0288,198.920267 1495.3536,191.900267 1481.1264,191.900267 C1465.5888,191.900267 1455.012,199.949867 1455.012,212.492267 C1455.012,223.443467 1463.1552,227.468267 1466.1504,228.685067 C1468.2096,229.527467 1470.2688,229.995467 1474.4808,231.025067 L1482.4368,232.709867 C1486.8697,233.748827 1488.12476,234.070212 1489.08459,234.394672 L1489.23811,234.447428 C1489.51648,234.544614 1489.78253,234.645515 1490.112,234.769067 C1492.1712,235.611467 1495.0728,237.109067 1495.0728,241.321067 C1495.0728,243.567467 1494.2304,246.937067 1489.4568,248.902667 C1487.1168,249.838667 1484.6832,250.025867 1482.3432,250.025867 C1468.3968,250.025867 1463.436,242.444267 1461.8448,240.010667 L1451.4552,247.311467 C1456.416,255.361067 1464.1848,258.543467 1468.584,259.853867 C1472.6088,260.977067 1476.7272,261.351467 1480.3776,261.351467 Z M1547.208,261.351467 C1552.7304,261.351467 1559.376,259.853867 1565.2728,254.050667 L1565.2728,259.666667 L1575.8496,259.666667 L1575.8496,223.537067 L1548.0504,223.537067 L1548.0504,234.394667 L1564.524,234.394667 C1563.4008,246.094667 1555.164,249.745067 1548.2376,249.745067 C1537.4736,249.745067 1529.5176,241.414667 1529.5176,226.906667 C1529.5176,213.896267 1535.6016,203.038667 1548.0504,203.038667 C1559.2824,203.038667 1562.8392,212.492267 1564.056,216.142667 L1575.8496,211.369067 C1571.8248,200.324267 1561.716,191.900267 1547.9568,191.900267 C1529.7984,191.900267 1516.0392,206.501867 1516.0392,227.281067 C1516.0392,245.065067 1526.8032,261.351467 1547.208,261.351467 Z M1638.5616,259.666667 L1638.5616,248.528267 L1601.4024,248.528267 L1601.4024,230.837867 L1633.2264,230.837867 L1633.2264,220.167467 L1601.4024,220.167467 L1601.4024,204.629867 L1636.2216,204.629867 L1636.2216,193.585067 L1589.2344,193.585067 L1589.2344,259.666667 L1638.5616,259.666667 Z M1671.5088,261.351467 C1685.5488,261.351467 1699.5888,255.267467 1699.5888,240.104267 C1699.5888,225.970667 1687.0464,222.320267 1678.1544,220.448267 L1671.3216,218.950667 C1671.12836,218.914434 1670.93493,218.878202 1670.74151,218.841819 L1670.16154,218.732067 C1669.87179,218.676813 1669.58257,218.620881 1669.29459,218.563762 L1668.72051,218.447789 C1663.66788,217.406705 1659.1536,215.889041 1659.1536,211.088267 C1659.1536,206.033867 1664.9568,203.038667 1671.6024,203.038667 C1682.1792,203.038667 1686.4848,209.590667 1688.7312,212.866667 L1698.84,205.285067 C1694.16,198.920267 1686.4848,191.900267 1672.2576,191.900267 C1656.72,191.900267 1646.1432,199.949867 1646.1432,212.492267 C1646.1432,223.443467 1654.2864,227.468267 1657.2816,228.685067 C1659.3408,229.527467 1661.4,229.995467 1665.612,231.025067 L1673.568,232.709867 C1679.5584,234.113867 1679.7456,234.207467 1681.2432,234.769067 C1683.3024,235.611467 1686.204,237.109067 1686.204,241.321067 C1686.204,243.567467 1685.3616,246.937067 1680.588,248.902667 C1678.248,249.838667 1675.8144,250.025867 1673.4744,250.025867 C1659.528,250.025867 1654.5672,242.444267 1652.976,240.010667 L1642.5864,247.311467 C1647.5472,255.361067 1655.316,258.543467 1659.7152,259.853867 C1663.74,260.977067 1667.8584,261.351467 1671.5088,261.351467 Z M1722.9888,259.666667 L1722.9888,237.296267 L1732.6296,237.296267 C1736.6544,237.296267 1740.1176,237.296267 1743.768,236.453867 C1755.5616,233.833067 1759.68,224.379467 1759.68,215.581067 C1759.68,202.196267 1750.6008,196.393067 1744.1424,194.614667 C1740.53054,193.645631 1736.91868,193.588629 1733.46289,193.585067 L1710.54,193.585067 L1710.54,259.666667 L1722.9888,259.666667 Z M1731.8808,227.093867 L1722.9888,227.093867 L1722.9888,204.161867 L1732.3488,204.161867 C1736.3736,204.161867 1740.6792,204.255467 1743.768,206.876267 C1744.8912,207.905867 1747.044,210.433067 1747.044,215.300267 C1747.044,217.640267 1746.576,224.660267 1738.9008,226.532267 C1736.748,227.093867 1734.5016,227.093867 1731.8808,227.093867 Z M1817.9928,259.666667 L1817.9928,248.528267 L1780.8336,248.528267 L1780.8336,230.837867 L1812.6576,230.837867 L1812.6576,220.167467 L1780.8336,220.167467 L1780.8336,204.629867 L1815.6528,204.629867 L1815.6528,193.585067 L1768.6656,193.585067 L1768.6656,259.666667 L1817.9928,259.666667 Z M1839.708,259.666667 L1839.708,235.143467 L1850.7528,235.143467 L1863.8568,259.666667 L1877.9904,259.666667 L1863.2952,232.803467 C1867.0392,231.680267 1876.3056,227.281067 1876.3056,214.645067 C1876.3056,206.969867 1873.1232,201.728267 1869.0048,198.358667 C1863.2016,193.678667 1857.3048,193.678667 1848.5064,193.585067 L1827.4464,193.585067 L1827.4464,259.666667 L1839.708,259.666667 Z M1844.44011,224.940737 L1839.708,224.941067 L1839.708,204.255467 L1845.4176,204.255467 C1852.7184,204.255467 1855.9008,204.349067 1858.5216,205.659467 C1863.6696,208.280267 1863.7632,213.147467 1863.7632,214.551467 C1863.7632,224.192267 1854.8712,224.660267 1852.1568,224.753867 C1851.75335,224.770005 1851.37216,224.786143 1850.99596,224.801801 L1850.32046,224.829364 C1848.81474,224.889003 1847.22305,224.936362 1844.44011,224.940737 L1844.44011,224.940737 Z M1900.1736,259.666667 L1900.1736,235.143467 L1911.2184,235.143467 L1924.3224,259.666667 L1938.456,259.666667 L1923.7608,232.803467 C1927.5048,231.680267 1936.7712,227.281067 1936.7712,214.645067 C1936.7712,206.969867 1933.5888,201.728267 1929.4704,198.358667 C1923.6672,193.678667 1917.7704,193.678667 1908.972,193.585067 L1887.912,193.585067 L1887.912,259.666667 L1900.1736,259.666667 Z M1904.90571,224.940737 L1900.1736,224.941067 L1900.1736,204.255467 L1905.8832,204.255467 C1913.184,204.255467 1916.3664,204.349067 1918.9872,205.659467 C1923.94094,208.181369 1924.21454,212.78333 1924.22813,214.378035 L1924.2288,214.551467 L1924.2288,214.551467 C1924.2288,224.192267 1915.3368,224.660267 1912.6224,224.753867 C1912.21895,224.770005 1911.83776,224.786143 1911.46156,224.801801 L1910.78606,224.829364 C1909.28034,224.889003 1907.68865,224.936362 1904.90571,224.940737 L1904.90571,224.940737 Z M1973.1816,259.666667 L1973.1816,204.817067 L1991.4336,204.817067 L1991.4336,193.585067 L1942.9488,193.585067 L1942.9488,204.817067 L1960.8264,204.817067 L1960.8264,259.666667 L1973.1816,259.666667 Z" id="ICHHABEMICHAUSMEINEMAUSGESPERRT" stroke="#000000" stroke-width="1.25" fill-opacity="0" fill="#000000" fill-rule="nonzero"></path>
                <path d="M140.3112,557 C148.08,556.9064 155.0064,556.8128 161.5584,552.9752 C171.2928,547.3592 175.1304,535.8464 175.1304,524.5208 C175.1304,517.1264 173.4456,503.8352 162.4008,496.0664 C155.4744,491.1056 148.548,491.012 142.8384,490.9184 L119.1576,490.9184 L119.1576,557 L140.3112,557 Z M137.25004,545.861152 L131.5128,545.8616 L131.5128,502.1504 L138.0648,502.1504 C146.3952,502.244 148.3608,502.3376 151.9176,503.9288 C161.0904,508.328 162.0264,518.4368 162.0264,524.6144 C162.0264,538.3736 156.972,542.492 152.1984,544.364 C149.440543,545.375214 146.231251,545.844707 137.25004,545.861152 Z M192.6336,557 L196.4712,544.0832 L221.2752,544.0832 L225.1128,557 L238.3104,557 L215.7528,490.9184 L201.7128,490.9184 L179.436,557 L192.6336,557 Z M217.9992,533.3192 L199.7472,533.3192 L208.92,502.8992 L217.9992,533.3192 Z M270.3216,558.6848 C284.3616,558.6848 298.4016,552.6008 298.4016,537.4376 C298.4016,523.304 285.8592,519.6536 276.9672,517.7816 L270.1344,516.284 C269.941161,516.247768 269.747728,516.211535 269.554313,516.175152 L268.974339,516.0654 C263.372604,514.99717 257.9664,513.675277 257.9664,508.4216 C257.9664,503.3672 263.7696,500.372 270.4152,500.372 C280.992,500.372 285.2976,506.924 287.544,510.2 L297.6528,502.6184 C292.9728,496.2536 285.2976,489.2336 271.0704,489.2336 C255.5328,489.2336 244.956,497.2832 244.956,509.8256 C244.956,520.7768 253.0992,524.8016 256.0944,526.0184 C258.1536,526.8608 260.2128,527.3288 264.4248,528.3584 L272.3808,530.0432 C276.813696,531.08216 278.06876,531.403545 279.028592,531.728005 L279.182108,531.780761 C279.460479,531.877947 279.726528,531.978848 280.056,532.1024 C282.1152,532.9448 285.0168,534.4424 285.0168,538.6544 C285.0168,540.9008 284.1744,544.2704 279.4008,546.236 C277.0608,547.172 274.6272,547.3592 272.2872,547.3592 C258.3408,547.3592 253.38,539.7776 251.7888,537.344 L241.3992,544.6448 C246.36,552.6944 254.1288,555.8768 258.528,557.1872 C262.5528,558.3104 266.6712,558.6848 270.3216,558.6848 Z M346.6992,557 L346.6992,490.9184 L334.5312,490.9184 L334.5312,557 L346.6992,557 Z M374.124,557 L373.3752,510.668 L402.2976,557 L413.0616,557 L413.0616,490.9184 L400.8936,490.9184 L402.3912,537.6248 L373.188,490.9184 L362.0496,490.9184 L362.0496,557 L374.124,557 Z M448.4424,557 C456.2112,556.9064 463.1376,556.8128 469.6896,552.9752 C479.424,547.3592 483.2616,535.8464 483.2616,524.5208 C483.2616,517.1264 481.5768,503.8352 470.532,496.0664 C463.6056,491.1056 456.6792,491.012 450.9696,490.9184 L427.2888,490.9184 L427.2888,557 L448.4424,557 Z M445.38124,545.861152 L439.644,545.8616 L439.644,502.1504 L446.196,502.1504 C454.5264,502.244 456.492,502.3376 460.0488,503.9288 C469.2216,508.328 470.1576,518.4368 470.1576,524.6144 C470.1576,538.3736 465.1032,542.492 460.3296,544.364 C457.571743,545.375214 454.362451,545.844707 445.38124,545.861152 L445.38124,545.861152 Z M506.568,557 L506.568,490.9184 L494.4,490.9184 L494.4,557 L506.568,557 Z M551.1216,557 L569.9352,490.9184 L557.112,490.9184 L542.7912,543.0536 L528.0024,490.9184 L514.992,490.9184 L534.4608,557 L551.1216,557 Z M590.4336,557 L590.4336,490.9184 L578.2656,490.9184 L578.2656,557 L590.4336,557 Z M625.908,557 C633.6768,556.9064 640.6032,556.8128 647.1552,552.9752 C656.8896,547.3592 660.7272,535.8464 660.7272,524.5208 C660.7272,517.1264 659.0424,503.8352 647.9976,496.0664 C641.0712,491.1056 634.1448,491.012 628.4352,490.9184 L604.7544,490.9184 L604.7544,557 L625.908,557 Z M622.84684,545.861152 L617.1096,545.8616 L617.1096,502.1504 L623.6616,502.1504 C631.992,502.244 633.9576,502.3376 637.5144,503.9288 C646.6872,508.328 647.6232,518.4368 647.6232,524.6144 C647.6232,538.3736 642.5688,542.492 637.7952,544.364 C635.037343,545.375214 631.828051,545.844707 622.84684,545.861152 L622.84684,545.861152 Z M718.0104,552.2264 C725.0304,546.236 725.0304,540.0584 725.124,532.5704 L725.124,490.9184 L712.6752,490.9184 L712.6752,530.8856 C712.6752,536.408 712.6752,540.152 709.0248,543.428 C705.548229,546.458857 700.883086,546.688082 698.748711,546.70304 L698.448,546.704 C694.5168,546.704 687.5904,545.9552 685.0632,539.5904 C684.182259,537.211859 684.213351,534.667493 684.220057,532.035339 L684.2208,490.9184 L671.8656,490.9184 L671.8656,530.324 C671.9592,538.5608 671.9592,540.62 672.8016,543.5216 C674.2992,548.4824 678.5112,554.192 686.3736,556.9064 C690.1176,558.2168 694.0488,558.6848 698.0736,558.6848 C702.5664,558.6848 711.2712,558.1232 718.0104,552.2264 Z M786.2448,552.2264 C793.2648,546.236 793.2648,540.0584 793.3584,532.5704 L793.3584,490.9184 L780.9096,490.9184 L780.909257,531.627754 C780.902058,536.747397 780.743673,540.300909 777.2592,543.428 C773.782629,546.458857 769.117486,546.688082 766.983111,546.70304 L766.6824,546.704 C762.7512,546.704 755.8248,545.9552 753.2976,539.5904 C752.3616,537.0632 752.4552,534.3488 752.4552,531.5408 L752.4552,490.9184 L740.1,490.9184 L740.1,530.324 C740.178,537.188 740.191,539.762 740.680667,542.1085 L740.748828,542.420375 C740.831756,542.783489 740.9268,543.145467 741.036,543.5216 C742.5336,548.4824 746.7456,554.192 754.608,556.9064 C758.352,558.2168 762.2832,558.6848 766.308,558.6848 C770.8008,558.6848 779.5056,558.1232 786.2448,552.2264 Z M820.0344,557 L818.8176,502.712 L833.1384,557 L844.2768,557 L858.504,502.712 L857.3808,557 L869.4552,557 L869.4552,490.9184 L851.484,490.9184 L838.848,539.9648 L825.9312,490.9184 L807.96,490.9184 L807.96,557 L820.0344,557 Z M931.512,557 L941.0592,511.0424 L950.3256,557 L964.74,557 L979.248,490.9184 L966.5184,490.9184 L957.252,541.2752 L946.7688,490.9184 L935.256,490.9184 L924.96,541.2752 L915.9744,490.9184 L903.3384,490.9184 L917.0976,557 L931.512,557 Z M999.84,557 L999.84,490.9184 L987.672,490.9184 L987.672,557 L999.84,557 Z M1027.3584,557 L1027.3584,532.4768 L1038.4032,532.4768 L1051.5072,557 L1065.6408,557 L1050.9456,530.1368 C1054.6896,529.0136 1063.956,524.6144 1063.956,511.9784 C1063.956,504.3032 1060.7736,499.0616 1056.6552,495.692 C1050.852,491.012 1044.9552,491.012 1036.1568,490.9184 L1015.0968,490.9184 L1015.0968,557 L1027.3584,557 Z M1032.09051,522.27407 L1027.3584,522.2744 L1027.3584,501.5888 L1033.068,501.5888 C1040.3688,501.5888 1043.5512,501.6824 1046.172,502.9928 C1051.32,505.6136 1051.4136,510.4808 1051.4136,511.8848 C1051.4136,521.5256 1042.5216,521.9936 1039.8072,522.0872 C1039.40375,522.103338 1039.02256,522.119476 1038.64636,522.135134 L1038.19621,522.153663 L1038.19621,522.153663 L1037.74422,522.171547 C1036.30299,522.226965 1034.73431,522.269914 1032.09051,522.27407 L1032.09051,522.27407 Z M1095.78,557 C1103.5488,556.9064 1110.4752,556.8128 1117.0272,552.9752 C1126.7616,547.3592 1130.5992,535.8464 1130.5992,524.5208 C1130.5992,517.1264 1128.9144,503.8352 1117.8696,496.0664 C1110.9432,491.1056 1104.0168,491.012 1098.3072,490.9184 L1074.6264,490.9184 L1074.6264,557 L1095.78,557 Z M1092.71884,545.861152 L1086.9816,545.8616 L1086.9816,502.1504 L1093.5336,502.1504 C1101.864,502.244 1103.8296,502.3376 1107.3864,503.9288 C1116.5592,508.328 1117.4952,518.4368 1117.4952,524.6144 C1117.4952,538.3736 1112.4408,542.492 1107.6672,544.364 C1104.90934,545.375214 1101.70005,545.844707 1092.71884,545.861152 L1092.71884,545.861152 Z M1213.4352,557 L1213.4352,545.8616 L1178.7096,545.8616 L1213.4352,501.4952 L1213.4352,490.9184 L1164.9504,490.9184 L1164.9504,502.0568 L1197.9912,502.0568 L1161.8616,546.8912 L1161.8616,557 L1213.4352,557 Z M1269.7824,552.2264 C1276.8024,546.236 1276.8024,540.0584 1276.896,532.5704 L1276.896,490.9184 L1264.4472,490.9184 L1264.4472,530.8856 C1264.4472,536.408 1264.4472,540.152 1260.7968,543.428 C1257.32023,546.458857 1252.65509,546.688082 1250.52071,546.70304 L1250.22,546.704 C1246.2888,546.704 1239.3624,545.9552 1236.8352,539.5904 C1235.95426,537.211859 1235.98535,534.667493 1235.99206,532.035339 L1235.9928,490.9184 L1223.6376,490.9184 L1223.6376,530.324 C1223.7312,538.5608 1223.7312,540.62 1224.5736,543.5216 C1226.0712,548.4824 1230.2832,554.192 1238.1456,556.9064 C1241.8896,558.2168 1245.8208,558.6848 1249.8456,558.6848 C1254.3384,558.6848 1263.0432,558.1232 1269.7824,552.2264 Z M1303.572,557 L1302.3552,502.712 L1316.676,557 L1327.8144,557 L1342.0416,502.712 L1340.9184,557 L1352.9928,557 L1352.9928,490.9184 L1335.0216,490.9184 L1322.3856,539.9648 L1309.4688,490.9184 L1291.4976,490.9184 L1291.4976,557 L1303.572,557 Z M1413.552,557 C1421.3208,556.9064 1428.2472,556.8128 1434.7992,552.9752 C1444.5336,547.3592 1448.3712,535.8464 1448.3712,524.5208 C1448.3712,517.1264 1446.6864,503.8352 1435.6416,496.0664 C1428.7152,491.1056 1421.7888,491.012 1416.0792,490.9184 L1392.3984,490.9184 L1392.3984,557 L1413.552,557 Z M1410.49084,545.861152 L1404.7536,545.8616 L1404.7536,502.1504 L1411.3056,502.1504 C1419.636,502.244 1421.6016,502.3376 1425.1584,503.9288 C1434.3312,508.328 1435.2672,518.4368 1435.2672,524.6144 C1435.2672,538.3736 1430.2128,542.492 1425.4392,544.364 C1422.68134,545.375214 1419.47205,545.844707 1410.49084,545.861152 L1410.49084,545.861152 Z M1465.8744,557 L1469.712,544.0832 L1494.516,544.0832 L1498.3536,557 L1511.5512,557 L1488.9936,490.9184 L1474.9536,490.9184 L1452.6768,557 L1465.8744,557 Z M1491.24,533.3192 L1472.988,533.3192 L1482.1608,502.8992 L1491.24,533.3192 Z M1544.8728,557 L1544.8728,502.1504 L1563.1248,502.1504 L1563.1248,490.9184 L1514.64,490.9184 L1514.64,502.1504 L1532.5176,502.1504 L1532.5176,557 L1544.8728,557 Z M1621.7184,557 L1621.7184,545.8616 L1584.5592,545.8616 L1584.5592,528.1712 L1616.3832,528.1712 L1616.3832,517.5008 L1584.5592,517.5008 L1584.5592,501.9632 L1619.3784,501.9632 L1619.3784,490.9184 L1572.3912,490.9184 L1572.3912,557 L1621.7184,557 Z M1643.34,557 L1642.5912,510.668 L1671.5136,557 L1682.2776,557 L1682.2776,490.9184 L1670.1096,490.9184 L1671.6072,537.6248 L1642.404,490.9184 L1631.2656,490.9184 L1631.2656,557 L1643.34,557 Z M1709.9832,557 L1709.9832,534.6296 L1719.624,534.6296 C1723.6488,534.6296 1727.112,534.6296 1730.7624,533.7872 C1742.556,531.1664 1746.6744,521.7128 1746.6744,512.9144 C1746.6744,499.5296 1737.5952,493.7264 1731.1368,491.948 C1727.52494,490.978965 1723.91308,490.921963 1720.45729,490.9184 L1697.5344,490.9184 L1697.5344,557 L1709.9832,557 Z M1718.8752,524.4272 L1709.9832,524.4272 L1709.9832,501.4952 L1719.3432,501.4952 C1723.368,501.4952 1727.6736,501.5888 1730.7624,504.2096 C1731.8856,505.2392 1734.0384,507.7664 1734.0384,512.6336 C1734.0384,514.9736 1733.5704,521.9936 1725.8952,523.8656 C1723.7424,524.4272 1721.496,524.4272 1718.8752,524.4272 Z M1801.992,552.2264 C1809.012,546.236 1809.012,540.0584 1809.1056,532.5704 L1809.1056,490.9184 L1796.6568,490.9184 L1796.65646,531.627754 C1796.64926,536.747397 1796.49087,540.300909 1793.0064,543.428 C1789.52983,546.458857 1784.86469,546.688082 1782.73031,546.70304 L1782.4296,546.704 C1778.4984,546.704 1771.572,545.9552 1769.0448,539.5904 C1768.1088,537.0632 1768.2024,534.3488 1768.2024,531.5408 L1768.2024,490.9184 L1755.8472,490.9184 L1755.8472,530.324 C1755.9408,538.5608 1755.9408,540.62 1756.7832,543.5216 C1758.2808,548.4824 1762.4928,554.192 1770.3552,556.9064 C1774.0992,558.2168 1778.0304,558.6848 1782.0552,558.6848 C1786.548,558.6848 1795.2528,558.1232 1801.992,552.2264 Z M1836.3432,557 L1835.5944,510.668 L1864.5168,557 L1875.2808,557 L1875.2808,490.9184 L1863.1128,490.9184 L1864.6104,537.6248 L1835.4072,490.9184 L1824.2688,490.9184 L1824.2688,557 L1836.3432,557 Z M1902.612,557 L1902.612,538.28 L1913.376,525.9248 L1930.9728,557 L1945.1064,557 L1921.9872,515.816 L1943.7024,490.9184 L1929.1008,490.9184 L1902.612,521.2448 L1902.612,490.9184 L1890.3504,490.9184 L1890.3504,557 L1902.612,557 Z M1977.6792,557 L1977.6792,502.1504 L1995.9312,502.1504 L1995.9312,490.9184 L1947.4464,490.9184 L1947.4464,502.1504 L1965.324,502.1504 L1965.324,557 L1977.6792,557 Z M2051.0616,557 C2058.8304,556.9064 2065.7568,556.8128 2072.3088,552.9752 C2082.0432,547.3592 2085.8808,535.8464 2085.8808,524.5208 C2085.8808,517.1264 2084.196,503.8352 2073.1512,496.0664 C2066.2248,491.1056 2059.2984,491.012 2053.5888,490.9184 L2029.908,490.9184 L2029.908,557 L2051.0616,557 Z M2048.00044,545.861152 L2042.2632,545.8616 L2042.2632,502.1504 L2048.8152,502.1504 C2057.1456,502.244 2059.1112,502.3376 2062.668,503.9288 C2071.8408,508.328 2072.7768,518.4368 2072.7768,524.6144 C2072.7768,538.3736 2067.7224,542.492 2062.9488,544.364 C2060.19094,545.375214 2056.98165,545.844707 2048.00044,545.861152 L2048.00044,545.861152 Z M2146.1592,557 L2146.1592,545.8616 L2109,545.8616 L2109,528.1712 L2140.824,528.1712 L2140.824,517.5008 L2109,517.5008 L2109,501.9632 L2143.8192,501.9632 L2143.8192,490.9184 L2096.832,490.9184 L2096.832,557 L2146.1592,557 Z M2183.5056,558.6848 C2189.028,558.6848 2195.6736,557.1872 2201.5704,551.384 L2201.5704,557 L2212.1472,557 L2212.1472,520.8704 L2184.348,520.8704 L2184.348,531.728 L2200.8216,531.728 C2199.6984,543.428 2191.4616,547.0784 2184.5352,547.0784 C2173.7712,547.0784 2165.8152,538.748 2165.8152,524.24 C2165.8152,511.2296 2171.8992,500.372 2184.348,500.372 C2195.58,500.372 2199.1368,509.8256 2200.3536,513.476 L2212.1472,508.7024 C2208.1224,497.6576 2198.0136,489.2336 2184.2544,489.2336 C2166.096,489.2336 2152.3368,503.8352 2152.3368,524.6144 C2152.3368,542.3984 2163.1008,558.6848 2183.5056,558.6848 Z M2238.0744,557 L2238.0744,532.4768 L2249.1192,532.4768 L2262.2232,557 L2276.3568,557 L2261.6616,530.1368 C2265.4056,529.0136 2274.672,524.6144 2274.672,511.9784 C2274.672,504.3032 2271.4896,499.0616 2267.3712,495.692 C2261.568,491.012 2255.6712,491.012 2246.8728,490.9184 L2225.8128,490.9184 L2225.8128,557 L2238.0744,557 Z M2242.80651,522.27407 L2238.0744,522.2744 L2238.0744,501.5888 L2243.784,501.5888 C2251.0848,501.5888 2254.2672,501.6824 2256.888,502.9928 C2262.036,505.6136 2262.1296,510.4808 2262.1296,511.8848 C2262.1296,521.5256 2253.2376,521.9936 2250.5232,522.0872 C2250.11975,522.103338 2249.73856,522.119476 2249.36236,522.135134 L2248.91221,522.153663 L2248.91221,522.153663 L2248.46022,522.171547 C2247.01899,522.226965 2245.45031,522.269914 2242.80651,522.27407 L2242.80651,522.27407 Z M2292.5496,557 L2296.3872,544.0832 L2321.1912,544.0832 L2325.0288,557 L2338.2264,557 L2315.6688,490.9184 L2301.6288,490.9184 L2279.352,557 L2292.5496,557 Z M2317.9152,533.3192 L2299.6632,533.3192 L2308.836,502.8992 L2317.9152,533.3192 Z M2366.9616,557 C2374.7304,556.9064 2381.6568,556.8128 2388.2088,552.9752 C2397.9432,547.3592 2401.7808,535.8464 2401.7808,524.5208 C2401.7808,517.1264 2400.096,503.8352 2389.0512,496.0664 C2382.1248,491.1056 2375.1984,491.012 2369.4888,490.9184 L2345.808,490.9184 L2345.808,557 L2366.9616,557 Z M2363.90044,545.861152 L2358.1632,545.8616 L2358.1632,502.1504 L2364.7152,502.1504 C2373.0456,502.244 2375.0112,502.3376 2378.568,503.9288 C2387.7408,508.328 2388.6768,518.4368 2388.6768,524.6144 C2388.6768,538.3736 2383.6224,542.492 2378.8488,544.364 C2376.09094,545.375214 2372.88165,545.844707 2363.90044,545.861152 L2363.90044,545.861152 Z M2425.0872,557 L2425.0872,490.9184 L2412.9192,490.9184 L2412.9192,557 L2425.0872,557 Z M2489.3904,557 L2489.3904,545.8616 L2452.2312,545.8616 L2452.2312,528.1712 L2484.0552,528.1712 L2484.0552,517.5008 L2452.2312,517.5008 L2452.2312,501.9632 L2487.0504,501.9632 L2487.0504,490.9184 L2440.0632,490.9184 L2440.0632,557 L2489.3904,557 Z M2511.1056,557 L2511.1056,532.4768 L2522.1504,532.4768 L2535.2544,557 L2549.388,557 L2534.6928,530.1368 C2538.4368,529.0136 2547.7032,524.6144 2547.7032,511.9784 C2547.7032,504.3032 2544.5208,499.0616 2540.4024,495.692 C2534.5992,491.012 2528.7024,491.012 2519.904,490.9184 L2498.844,490.9184 L2498.844,557 L2511.1056,557 Z M2515.83771,522.27407 L2511.1056,522.2744 L2511.1056,501.5888 L2516.8152,501.5888 C2524.116,501.5888 2527.2984,501.6824 2529.9192,502.9928 C2534.87294,505.514702 2535.14654,510.116663 2535.16013,511.711369 L2535.1608,511.8848 L2535.1608,511.8848 C2535.1608,521.5256 2526.2688,521.9936 2523.5544,522.0872 C2523.15095,522.103338 2522.76976,522.119476 2522.39356,522.135134 L2521.71806,522.162697 C2520.21234,522.222336 2518.62065,522.269695 2515.83771,522.27407 L2515.83771,522.27407 Z M2584.1136,557 L2584.1136,502.1504 L2602.3656,502.1504 L2602.3656,490.9184 L2553.8808,490.9184 L2553.8808,502.1504 L2571.7584,502.1504 L2571.7584,557 L2584.1136,557 Z" id="DASINDIVIDUUMWIRDZUMDATENPUNKTDEGRADIERT" stroke="#000000" stroke-width="1.25" fill-opacity="0" fill="#000000" fill-rule="nonzero"></path>
                <line x1="336.512" y1="450.5" x2="1775.99513" y2="450.5" id="Line-2-Copy-2" stroke="#000000" stroke-width="3.6" stroke-linecap="square"></line>
                <line x1="336.512" y1="301" x2="1775.99513" y2="301" id="Line-2-Copy-5" stroke="#000000" stroke-width="3.6" stroke-linecap="square"></line>
                <line x1="336.512" y1="151.5" x2="1775.99513" y2="151.5" id="Line-2-Copy-9" stroke="#000000" stroke-width="3.6" stroke-linecap="square"></line>
                <path d="M906.5872,112.6848 C920.6272,112.6848 934.6672,106.6008 934.6672,91.4376 C934.6672,77.304 922.1248,73.6536 913.2328,71.7816 L906.4,70.284 C906.206761,70.2477677 906.013328,70.2115355 905.819913,70.1751524 L905.239939,70.0654 L905.239939,70.0654 L904.372995,69.8970953 L904.372995,69.8970953 L903.798912,69.7811219 C898.746276,68.7400383 894.232,67.2223742 894.232,62.4216 C894.232,57.3672 900.0352,54.372 906.6808,54.372 C917.2576,54.372 921.5632,60.924 923.8096,64.2 L933.9184,56.6184 C929.2384,50.2536 921.5632,43.2336 907.336,43.2336 C891.7984,43.2336 881.2216,51.2832 881.2216,63.8256 C881.2216,74.7768 889.3648,78.8016 892.36,80.0184 C894.4192,80.8608 896.4784,81.3288 900.6904,82.3584 L908.6464,84.0432 C913.678336,85.22256 914.615534,85.4773018 915.674253,85.8614901 L915.826781,85.9173685 C915.981046,85.9743552 916.141888,86.035008 916.3216,86.1024 C918.3808,86.9448 921.2824,88.4424 921.2824,92.6544 C921.2824,94.9008 920.44,98.2704 915.6664,100.236 C913.3264,101.172 910.8928,101.3592 908.5528,101.3592 C894.6064,101.3592 889.6456,93.7776 888.0544,91.344 L877.6648,98.6448 C882.6256,106.6944 890.3944,109.8768 894.7936,111.1872 C898.8184,112.3104 902.9368,112.6848 906.5872,112.6848 Z M994.5712,111 L994.5712,99.8616 L957.412,99.8616 L957.412,82.1712 L989.236,82.1712 L989.236,71.5008 L957.412,71.5008 L957.412,55.9632 L992.2312,55.9632 L992.2312,44.9184 L945.244,44.9184 L945.244,111 L994.5712,111 Z M1016.0992,111 L1016.0992,44.9184 L1003.9312,44.9184 L1003.9312,111 L1016.0992,111 Z M1080.2152,112.6848 C1094.2552,112.6848 1108.2952,106.6008 1108.2952,91.4376 C1108.2952,77.304 1095.7528,73.6536 1086.8608,71.7816 L1080.028,70.284 C1079.83476,70.2477677 1079.64133,70.2115355 1079.44791,70.1751524 L1078.86794,70.0654 L1078.86794,70.0654 L1078.00099,69.8970953 L1078.00099,69.8970953 L1077.42691,69.7811219 C1072.37428,68.7400383 1067.86,67.2223742 1067.86,62.4216 C1067.86,57.3672 1073.6632,54.372 1080.3088,54.372 C1090.8856,54.372 1095.1912,60.924 1097.4376,64.2 L1107.5464,56.6184 C1102.8664,50.2536 1095.1912,43.2336 1080.964,43.2336 C1065.4264,43.2336 1054.8496,51.2832 1054.8496,63.8256 C1054.8496,74.7768 1062.9928,78.8016 1065.988,80.0184 C1068.0472,80.8608 1070.1064,81.3288 1074.3184,82.3584 L1082.2744,84.0432 C1087.30634,85.22256 1088.24353,85.4773018 1089.30225,85.8614901 L1089.45478,85.9173685 C1089.60905,85.9743552 1089.76989,86.035008 1089.9496,86.1024 C1092.0088,86.9448 1094.9104,88.4424 1094.9104,92.6544 C1094.9104,94.9008 1094.068,98.2704 1089.2944,100.236 C1086.9544,101.172 1084.5208,101.3592 1082.1808,101.3592 C1068.2344,101.3592 1063.2736,93.7776 1061.6824,91.344 L1051.2928,98.6448 C1056.2536,106.6944 1064.0224,109.8768 1068.4216,111.1872 C1072.4464,112.3104 1076.5648,112.6848 1080.2152,112.6848 Z M1147.6072,112.6848 C1167.9184,112.6848 1179.3376,96.8664 1179.43163,77.9592 C1179.5248,55.4016 1164.1744,43.2336 1147.7944,43.2336 C1129.7296,43.2336 1116.064,57.8352 1116.064,78.0528 C1116.064,86.3832 1118.3104,94.9944 1124.8624,102.576 C1131.6016,110.3448 1139.2768,112.6848 1147.6072,112.6848 Z M1147.9816,101.2656 C1137.0304,101.2656 1128.7936,92.3736 1128.7936,77.4912 C1128.7936,63.732 1136.3752,54.5592 1147.7008,54.5592 C1160.7112,54.5592 1167.3568,66.4464 1167.076,79.3632 C1166.7952,95.2752 1156.2184,101.2656 1147.9816,101.2656 Z M1228.9456,111 L1228.9456,83.0136 L1256.5576,83.0136 L1256.5576,72.4368 L1228.9456,72.4368 L1228.9456,55.9632 L1260.3952,55.9632 L1260.3952,44.9184 L1216.684,44.9184 L1216.684,111 L1228.9456,111 Z M1281.5488,111 L1281.5488,86.4768 L1292.5936,86.4768 L1305.6976,111 L1319.8312,111 L1305.136,84.1368 C1308.88,83.0136 1318.1464,78.6144 1318.1464,65.9784 C1318.1464,58.3032 1314.964,53.0616 1310.8456,49.692 C1305.0424,45.012 1299.1456,45.012 1290.3472,44.9184 L1269.2872,44.9184 L1269.2872,111 L1281.5488,111 Z M1286.28091,76.2740699 L1281.5488,76.2744 L1281.5488,55.5888 L1287.2584,55.5888 C1294.5592,55.5888 1297.7416,55.6824 1300.3624,56.9928 C1305.5104,59.6136 1305.604,64.4808 1305.604,65.8848 C1305.604,75.5256 1296.712,75.9936 1293.9976,76.0872 C1293.59415,76.1033379 1293.21296,76.1194759 1292.83676,76.1351341 L1292.16126,76.1626971 C1290.65554,76.2223365 1289.06385,76.2696949 1286.28091,76.2740699 Z M1378.7992,111 L1378.7992,99.8616 L1341.64,99.8616 L1341.64,82.1712 L1373.464,82.1712 L1373.464,71.5008 L1341.64,71.5008 L1341.64,55.9632 L1376.4592,55.9632 L1376.4592,44.9184 L1329.472,44.9184 L1329.472,111 L1378.7992,111 Z M1400.3272,111 L1400.3272,44.9184 L1388.1592,44.9184 L1388.1592,111 L1400.3272,111 Z M1424.1952,94.5264 L1427.752,70.1904 L1427.752,44.9184 L1415.4904,44.9184 L1415.4904,70.1904 L1418.9536,94.5264 L1424.1952,94.5264 Z M1427.752,111 L1427.752,98.0832 L1415.4904,98.0832 L1415.4904,111 L1427.752,111 Z" id="SEISOFREI!" fill="#000000" fill-rule="nonzero"></path>
                <path d="M346.7,111 L345.4832,56.712 L359.804,111 L370.9424,111 L385.1696,56.712 L384.0464,111 L396.1208,111 L396.1208,44.9184 L378.1496,44.9184 L365.5136,93.9648 L352.5968,44.9184 L334.6256,44.9184 L334.6256,111 L346.7,111 Z M423.6392,111 L423.6392,88.6296 L433.28,88.6296 C437.3048,88.6296 440.768,88.6296 444.4184,87.7872 C456.212,85.1664 460.3304,75.7128 460.3304,66.9144 C460.3304,53.5296 451.2512,47.7264 444.7928,45.948 C441.180941,44.9789647 437.569082,44.9219626 434.113293,44.9184 L411.1904,44.9184 L411.1904,111 L423.6392,111 Z M432.5312,78.4272 L423.6392,78.4272 L423.6392,55.4952 L432.9992,55.4952 C437.024,55.4952 441.3296,55.5888 444.4184,58.2096 C445.5416,59.2392 447.6944,61.7664 447.6944,66.6336 C447.6944,68.9736 447.2264,75.9936 439.5512,77.8656 C437.3984,78.4272 435.152,78.4272 432.5312,78.4272 Z M475.868,111 L479.7056,98.0832 L504.5096,98.0832 L508.3472,111 L521.5448,111 L498.9872,44.9184 L484.9472,44.9184 L462.6704,111 L475.868,111 Z M501.2336,87.3192 L482.9816,87.3192 L492.1544,56.8992 L501.2336,87.3192 Z M542.6048,111 L542.6048,88.6296 L552.2456,88.6296 C556.2704,88.6296 559.7336,88.6296 563.384,87.7872 C575.1776,85.1664 579.296,75.7128 579.296,66.9144 C579.296,53.5296 570.2168,47.7264 563.7584,45.948 C560.146541,44.9789647 556.534682,44.9219626 553.078893,44.9184 L530.156,44.9184 L530.156,111 L542.6048,111 Z M551.4968,78.4272 L542.6048,78.4272 L542.6048,55.4952 L551.9648,55.4952 C555.9896,55.4952 560.2952,55.5888 563.384,58.2096 C564.5072,59.2392 566.66,61.7664 566.66,66.6336 C566.66,68.9736 566.192,75.9936 558.5168,77.8656 C556.364,78.4272 554.1176,78.4272 551.4968,78.4272 Z M637.6088,111 L637.6088,99.8616 L600.4496,99.8616 L600.4496,82.1712 L632.2736,82.1712 L632.2736,71.5008 L600.4496,71.5008 L600.4496,55.9632 L635.2688,55.9632 L635.2688,44.9184 L588.2816,44.9184 L588.2816,111 L637.6088,111 Z M659.324,111 L659.324,86.4768 L670.3688,86.4768 L683.4728,111 L697.6064,111 L682.9112,84.1368 C686.6552,83.0136 695.9216,78.6144 695.9216,65.9784 C695.9216,58.3032 692.7392,53.0616 688.6208,49.692 C682.8176,45.012 676.9208,45.012 668.1224,44.9184 L647.0624,44.9184 L647.0624,111 L659.324,111 Z M664.056113,76.2740699 L659.324,76.2744 L659.324,55.5888 L665.0336,55.5888 C672.3344,55.5888 675.5168,55.6824 678.1376,56.9928 C683.2856,59.6136 683.3792,64.4808 683.3792,65.8848 C683.3792,75.5256 674.4872,75.9936 671.7728,76.0872 C671.369352,76.1033379 670.988163,76.1194759 670.611963,76.1351341 L669.936461,76.1626971 C668.43074,76.2223365 666.839053,76.2696949 664.056113,76.2740699 Z M747.4016,111 L750.2096,90.9696 L759.476,90.9696 L756.5744,111 L766.028,111 L768.9296,90.9696 L781.5656,90.9696 L781.5656,81.7032 L770.0528,81.7032 L771.3632,72.8112 L783.5312,72.8112 L783.5312,63.4512 L772.58,63.4512 L775.1072,44.8248 L765.6536,44.8248 L763.1264,63.4512 L753.9536,63.4512 L756.5744,44.8248 L746.84,44.8248 L744.3128,63.4512 L731.396,63.4512 L731.396,72.8112 L743.096,72.8112 L741.9728,81.7032 L729.2432,81.7032 L729.2432,90.9696 L740.6624,90.9696 L737.8544,111 L747.4016,111 Z M760.6928,81.7032 L751.3328,81.7032 L752.6432,72.8112 L761.9096,72.8112 L760.6928,81.7032 Z M814.232,111.8424 C828.74,111.8424 836.7896,103.2312 836.7896,92.28 C836.7896,82.1712 829.8632,78.1464 824.8088,77.1168 C826.868,76.5552 829.4888,75.9 831.8288,73.2792 C832.484,72.5304 835.292,69.5352 835.292,63.5448 C835.292,50.0664 821.9072,46.7904 815.168,46.7904 C809.7392,46.7904 804.1232,48.6624 800.3792,51.8448 C795.1376,56.244 794.0144,62.1408 793.4528,65.136 L805.808,67.7568 C805.9016,65.604 806.4632,57.18 814.7936,57.18 C820.0352,57.18 822.8432,60.924 822.8432,65.2296 C822.8432,72.3432 816.6656,72.624 815.2616,72.7176 L814.893267,72.7171667 C814.872178,72.7170944 814.850824,72.7170102 814.829125,72.7169119 L814.69415,72.7161375 C814.06235,72.71175 813.062,72.6942 810.1136,72.624 L810.1136,82.452 L813.2024,82.3584 C816.1976,82.3584 818.3504,82.7328 819.9416,83.6688 C822.8432,85.26 824.2472,88.2552 824.2472,91.6248 C824.2472,96.492 821.5328,101.64 814.4192,101.64 C808.148,101.64 804.4976,97.6152 804.4976,92.28 C804.4976,91.5312 804.4976,90.9696 804.5912,90.3144 L792.1424,90.3144 C792.1424,98.7384 795.4184,103.98 798.32,106.6008 C801.8768,109.9704 807.8672,111.8424 814.232,111.8424 Z" id="MPAPER#3" stroke="#000000" stroke-width="1.25" fill-opacity="0" fill="#000000" fill-rule="nonzero"></path>
                <path d="M1499.7,111 L1498.4832,56.712 L1512.804,111 L1523.9424,111 L1538.1696,56.712 L1537.0464,111 L1549.1208,111 L1549.1208,44.9184 L1531.1496,44.9184 L1518.5136,93.9648 L1505.5968,44.9184 L1487.6256,44.9184 L1487.6256,111 L1499.7,111 Z M1576.6392,111 L1576.6392,88.6296 L1586.28,88.6296 C1590.3048,88.6296 1593.768,88.6296 1597.4184,87.7872 C1609.212,85.1664 1613.3304,75.7128 1613.3304,66.9144 C1613.3304,53.5296 1604.2512,47.7264 1597.7928,45.948 C1594.18094,44.9789647 1590.56908,44.9219626 1587.11329,44.9184 L1564.1904,44.9184 L1564.1904,111 L1576.6392,111 Z M1585.5312,78.4272 L1576.6392,78.4272 L1576.6392,55.4952 L1585.9992,55.4952 C1590.024,55.4952 1594.3296,55.5888 1597.4184,58.2096 C1598.5416,59.2392 1600.6944,61.7664 1600.6944,66.6336 C1600.6944,68.9736 1600.2264,75.9936 1592.5512,77.8656 C1590.3984,78.4272 1588.152,78.4272 1585.5312,78.4272 Z M1628.868,111 L1632.7056,98.0832 L1657.5096,98.0832 L1661.3472,111 L1674.5448,111 L1651.9872,44.9184 L1637.9472,44.9184 L1615.6704,111 L1628.868,111 Z M1654.2336,87.3192 L1635.9816,87.3192 L1645.1544,56.8992 L1654.2336,87.3192 Z M1695.6048,111 L1695.6048,88.6296 L1705.2456,88.6296 C1709.2704,88.6296 1712.7336,88.6296 1716.384,87.7872 C1728.1776,85.1664 1732.296,75.7128 1732.296,66.9144 C1732.296,53.5296 1723.2168,47.7264 1716.7584,45.948 C1713.14654,44.9789647 1709.53468,44.9219626 1706.07889,44.9184 L1683.156,44.9184 L1683.156,111 L1695.6048,111 Z M1704.4968,78.4272 L1695.6048,78.4272 L1695.6048,55.4952 L1704.9648,55.4952 C1708.9896,55.4952 1713.2952,55.5888 1716.384,58.2096 C1717.5072,59.2392 1719.66,61.7664 1719.66,66.6336 C1719.66,68.9736 1719.192,75.9936 1711.5168,77.8656 C1709.364,78.4272 1707.1176,78.4272 1704.4968,78.4272 Z M1790.6088,111 L1790.6088,99.8616 L1753.4496,99.8616 L1753.4496,82.1712 L1785.2736,82.1712 L1785.2736,71.5008 L1753.4496,71.5008 L1753.4496,55.9632 L1788.2688,55.9632 L1788.2688,44.9184 L1741.2816,44.9184 L1741.2816,111 L1790.6088,111 Z M1812.324,111 L1812.324,86.4768 L1823.3688,86.4768 L1836.4728,111 L1850.6064,111 L1835.9112,84.1368 C1839.6552,83.0136 1848.9216,78.6144 1848.9216,65.9784 C1848.9216,58.3032 1845.7392,53.0616 1841.6208,49.692 C1835.8176,45.012 1829.9208,45.012 1821.1224,44.9184 L1800.0624,44.9184 L1800.0624,111 L1812.324,111 Z M1817.05611,76.2740699 L1812.324,76.2744 L1812.324,55.5888 L1818.0336,55.5888 C1825.3344,55.5888 1828.5168,55.6824 1831.1376,56.9928 C1836.2856,59.6136 1836.3792,64.4808 1836.3792,65.8848 C1836.3792,75.5256 1827.4872,75.9936 1824.7728,76.0872 C1824.36935,76.1033379 1823.98816,76.1194759 1823.61196,76.1351341 L1822.93646,76.1626971 C1821.43074,76.2223365 1819.83905,76.2696949 1817.05611,76.2740699 Z M1900.4016,111 L1903.2096,90.9696 L1912.476,90.9696 L1909.5744,111 L1919.028,111 L1921.9296,90.9696 L1934.5656,90.9696 L1934.5656,81.7032 L1923.0528,81.7032 L1924.3632,72.8112 L1936.5312,72.8112 L1936.5312,63.4512 L1925.58,63.4512 L1928.1072,44.8248 L1918.6536,44.8248 L1916.1264,63.4512 L1906.9536,63.4512 L1909.5744,44.8248 L1899.84,44.8248 L1897.3128,63.4512 L1884.396,63.4512 L1884.396,72.8112 L1896.096,72.8112 L1894.9728,81.7032 L1882.2432,81.7032 L1882.2432,90.9696 L1893.6624,90.9696 L1890.8544,111 L1900.4016,111 Z M1913.6928,81.7032 L1904.3328,81.7032 L1905.6432,72.8112 L1914.9096,72.8112 L1913.6928,81.7032 Z M1967.232,111.8424 C1981.74,111.8424 1989.7896,103.2312 1989.7896,92.28 C1989.7896,82.1712 1982.8632,78.1464 1977.8088,77.1168 C1979.868,76.5552 1982.4888,75.9 1984.8288,73.2792 C1985.484,72.5304 1988.292,69.5352 1988.292,63.5448 C1988.292,50.0664 1974.9072,46.7904 1968.168,46.7904 C1962.7392,46.7904 1957.1232,48.6624 1953.3792,51.8448 C1948.1376,56.244 1947.0144,62.1408 1946.4528,65.136 L1958.808,67.7568 C1958.9016,65.604 1959.4632,57.18 1967.7936,57.18 C1973.0352,57.18 1975.8432,60.924 1975.8432,65.2296 C1975.8432,72.3432 1969.6656,72.624 1968.2616,72.7176 L1967.89327,72.7171667 C1967.87218,72.7170944 1967.85082,72.7170102 1967.82913,72.7169119 L1967.69415,72.7161375 C1967.06235,72.71175 1966.062,72.6942 1963.1136,72.624 L1963.1136,82.452 L1966.2024,82.3584 C1969.1976,82.3584 1971.3504,82.7328 1972.9416,83.6688 C1975.8432,85.26 1977.2472,88.2552 1977.2472,91.6248 C1977.2472,96.492 1974.5328,101.64 1967.4192,101.64 C1961.148,101.64 1957.4976,97.6152 1957.4976,92.28 C1957.4976,91.5312 1957.4976,90.9696 1957.5912,90.3144 L1945.1424,90.3144 C1945.1424,98.7384 1948.4184,103.98 1951.32,106.6008 C1954.8768,109.9704 1960.8672,111.8424 1967.232,111.8424 Z" id="MPAPER#3" stroke="#000000" stroke-width="1.25" fill-opacity="0" fill="#000000" fill-rule="nonzero"></path>
                <line x1="336.512" y1="600.72" x2="1775.99513" y2="600.72" id="Line-2-Copy-7" stroke="#000000" stroke-width="3.6" stroke-linecap="square"></line>
                <path d="M326.8088,709.333333 L336.356,663.375733 L345.6224,709.333333 L360.0368,709.333333 L374.5448,643.251733 L361.8152,643.251733 L352.5488,693.608533 L342.0656,643.251733 L330.5528,643.251733 L320.2568,693.608533 L311.2712,643.251733 L298.6352,643.251733 L312.3944,709.333333 L326.8088,709.333333 Z M395.1368,709.333333 L395.1368,643.251733 L382.9688,643.251733 L382.9688,709.333333 L395.1368,709.333333 Z M459.44,709.333333 L459.44,698.194933 L422.2808,698.194933 L422.2808,680.504533 L454.1048,680.504533 L454.1048,669.834133 L422.2808,669.834133 L422.2808,654.296533 L457.1,654.296533 L457.1,643.251733 L410.1128,643.251733 L410.1128,709.333333 L459.44,709.333333 Z M540.3104,704.559733 C547.3304,698.569333 547.3304,692.391733 547.424,684.903733 L547.424,643.251733 L534.9752,643.251733 L534.9752,683.218933 C534.9752,688.741333 534.9752,692.485333 531.3248,695.761333 C527.848229,698.79219 523.183086,699.021415 521.048711,699.036373 L520.748,699.037333 C516.8168,699.037333 509.8904,698.288533 507.3632,691.923733 C506.482259,689.545192 506.513351,687.000827 506.520057,684.368672 L506.5208,643.251733 L494.1656,643.251733 L494.1656,682.657333 C494.2592,690.894133 494.2592,692.953333 495.1016,695.854933 C496.5992,700.815733 500.8112,706.525333 508.6736,709.239733 C512.4176,710.550133 516.3488,711.018133 520.3736,711.018133 C524.8664,711.018133 533.5712,710.456533 540.3104,704.559733 Z M574.6616,709.333333 L573.9128,663.001333 L602.8352,709.333333 L613.5992,709.333333 L613.5992,643.251733 L601.4312,643.251733 L602.9288,689.958133 L573.7256,643.251733 L562.5872,643.251733 L562.5872,709.333333 L574.6616,709.333333 Z M635.0336,709.333333 L638.8712,696.416533 L663.6752,696.416533 L667.5128,709.333333 L680.7104,709.333333 L658.1528,643.251733 L644.1128,643.251733 L621.836,709.333333 L635.0336,709.333333 Z M660.3992,685.652533 L642.1472,685.652533 L651.32,655.232533 L660.3992,685.652533 Z M730.0376,707.742133 C737.9936,704.934133 741.8312,698.194933 741.8312,690.613333 C741.8312,680.410933 734.9984,674.514133 727.6976,673.203733 C731.2544,672.548533 733.8752,671.144533 735.9344,668.430133 C737.8064,665.902933 738.7424,662.346133 738.7424,659.444533 C738.7424,652.237333 733.7816,646.340533 727.136,644.374933 C723.9536,643.438933 721.6136,643.345333 712.8152,643.251733 L689.228,643.251733 L689.228,709.333333 L716.079619,709.332594 C722.856369,709.321589 726.021507,709.170078 730.0376,707.742133 Z M707.423065,669.833641 L701.4896,669.834133 L701.4896,653.360533 L709.2584,653.360533 C718.244,653.454133 719.5544,653.547733 722.1752,655.045333 C724.7024,656.542933 726.0128,659.070133 726.0128,661.597333 C726.0128,664.592533 724.2344,667.119733 721.6136,668.430133 C719.3672,669.646933 716.2784,669.740533 713.1896,669.740533 C711.952452,669.817855 710.012685,669.831302 707.423065,669.833641 Z M714.915539,698.662448 L701.4896,698.662933 L701.4896,679.100533 L713.7512,679.194133 C717.9632,679.194133 724.8896,679.194133 727.8848,684.529333 C728.8208,686.214133 729.1016,687.992533 729.1016,689.490133 C729.1016,692.672533 727.7912,695.199733 726.1064,696.416533 C723.114944,698.528149 721.198652,698.654846 714.915539,698.662448 L714.915539,698.662448 Z M765.98,709.333333 L765.98,679.287733 L794.3408,679.287733 L794.3408,709.333333 L806.7896,709.333333 L806.7896,643.251733 L794.3408,643.251733 L794.3408,668.242933 L765.98,668.242933 L765.98,643.251733 L753.6248,643.251733 L753.6248,709.333333 L765.98,709.333333 Z M840.7664,637.074133 L840.7664,625.561333 L830.2832,625.561333 L830.2832,637.074133 L840.7664,637.074133 Z M859.6736,637.074133 L859.6736,625.561333 L849.0032,625.561333 L849.0032,637.074133 L859.6736,637.074133 Z M828.1304,709.333333 L831.968,696.416533 L856.772,696.416533 L860.6096,709.333333 L873.8072,709.333333 L851.2496,643.251733 L837.2096,643.251733 L814.9328,709.333333 L828.1304,709.333333 Z M853.496,685.652533 L835.244,685.652533 L844.4168,655.232533 L853.496,685.652533 Z M894.4928,709.333333 L893.744,663.001333 L922.6664,709.333333 L933.4304,709.333333 L933.4304,643.251733 L921.2624,643.251733 L922.76,689.958133 L893.5568,643.251733 L882.4184,643.251733 L882.4184,709.333333 L894.4928,709.333333 Z M976.4864,711.018133 C982.0088,711.018133 988.6544,709.520533 994.5512,703.717333 L994.5512,709.333333 L1005.128,709.333333 L1005.128,673.203733 L977.3288,673.203733 L977.3288,684.061333 L993.8024,684.061333 C992.6792,695.761333 984.4424,699.411733 977.516,699.411733 C966.752,699.411733 958.796,691.081333 958.796,676.573333 C958.796,663.562933 964.88,652.705333 977.3288,652.705333 C988.5608,652.705333 992.1176,662.158933 993.3344,665.809333 L1005.128,661.035733 C1001.1032,649.990933 990.9944,641.566933 977.2352,641.566933 C959.0768,641.566933 945.3176,656.168533 945.3176,676.947733 C945.3176,694.731733 956.0816,711.018133 976.4864,711.018133 Z M1030.868,709.333333 L1030.868,643.251733 L1018.7,643.251733 L1018.7,709.333333 L1030.868,709.333333 Z M1074.0176,711.018133 C1079.54,711.018133 1086.1856,709.520533 1092.0824,703.717333 L1092.0824,709.333333 L1102.6592,709.333333 L1102.6592,673.203733 L1074.86,673.203733 L1074.86,684.061333 L1091.3336,684.061333 C1090.2104,695.761333 1081.9736,699.411733 1075.0472,699.411733 C1064.2832,699.411733 1056.3272,691.081333 1056.3272,676.573333 C1056.3272,663.562933 1062.4112,652.705333 1074.86,652.705333 C1086.092,652.705333 1089.6488,662.158933 1090.8656,665.809333 L1102.6592,661.035733 C1098.6344,649.990933 1088.5256,641.566933 1074.7664,641.566933 C1056.608,641.566933 1042.8488,656.168533 1042.8488,676.947733 C1042.8488,694.731733 1053.6128,711.018133 1074.0176,711.018133 Z M1182.5,707.742133 C1190.456,704.934133 1194.2936,698.194933 1194.2936,690.613333 C1194.2936,680.410933 1187.4608,674.514133 1180.16,673.203733 C1183.7168,672.548533 1186.3376,671.144533 1188.3968,668.430133 C1190.2688,665.902933 1191.2048,662.346133 1191.2048,659.444533 C1191.2048,652.237333 1186.244,646.340533 1179.5984,644.374933 C1176.416,643.438933 1174.076,643.345333 1165.2776,643.251733 L1141.6904,643.251733 L1141.6904,709.333333 L1168.54202,709.332594 C1175.31877,709.321589 1178.48391,709.170078 1182.5,707.742133 Z M1159.88546,669.833641 L1153.952,669.834133 L1153.952,653.360533 L1161.7208,653.360533 C1170.7064,653.454133 1172.0168,653.547733 1174.6376,655.045333 C1177.1648,656.542933 1178.4752,659.070133 1178.4752,661.597333 C1178.4752,664.592533 1176.6968,667.119733 1174.076,668.430133 C1171.8296,669.646933 1168.7408,669.740533 1165.652,669.740533 C1164.41485,669.817855 1162.47509,669.831302 1159.88546,669.833641 L1159.88546,669.833641 Z M1167.37794,698.662448 L1153.952,698.662933 L1153.952,679.100533 L1166.2136,679.194133 C1170.4256,679.194133 1177.352,679.194133 1180.3472,684.529333 C1181.2832,686.214133 1181.564,687.992533 1181.564,689.490133 C1181.564,692.672533 1180.2536,695.199733 1178.5688,696.416533 C1175.57734,698.528149 1173.66105,698.654846 1167.37794,698.662448 L1167.37794,698.662448 Z M1218.1616,709.333333 L1218.1616,643.251733 L1205.9936,643.251733 L1205.9936,709.333333 L1218.1616,709.333333 Z M1256.912,711.018133 C1270.952,711.018133 1284.992,704.934133 1284.992,689.770933 C1284.992,675.637333 1272.4496,671.986933 1263.5576,670.114933 L1256.7248,668.617333 C1256.53156,668.581101 1256.33813,668.544869 1256.14471,668.508486 L1255.56474,668.398733 L1255.56474,668.398733 L1254.69779,668.230429 L1254.69779,668.230429 L1254.12371,668.114455 C1249.07108,667.073372 1244.5568,665.555708 1244.5568,660.754933 C1244.5568,655.700533 1250.36,652.705333 1257.0056,652.705333 C1267.5824,652.705333 1271.888,659.257333 1274.1344,662.533333 L1284.2432,654.951733 C1279.5632,648.586933 1271.888,641.566933 1257.6608,641.566933 C1242.1232,641.566933 1231.5464,649.616533 1231.5464,662.158933 C1231.5464,673.110133 1239.6896,677.134933 1242.6848,678.351733 C1244.744,679.194133 1246.8032,679.662133 1251.0152,680.691733 L1258.9712,682.376533 C1264.9616,683.780533 1265.1488,683.874133 1266.6464,684.435733 C1268.7056,685.278133 1271.6072,686.775733 1271.6072,690.987733 C1271.6072,693.234133 1270.7648,696.603733 1265.9912,698.569333 C1263.6512,699.505333 1261.2176,699.692533 1258.8776,699.692533 C1244.9312,699.692533 1239.9704,692.110933 1238.3792,689.677333 L1227.9896,696.978133 C1232.9504,705.027733 1240.7192,708.210133 1245.1184,709.520533 C1249.1432,710.643733 1253.2616,711.018133 1256.912,711.018133 Z M1320.6536,709.333333 L1320.6536,654.483733 L1338.9056,654.483733 L1338.9056,643.251733 L1290.4208,643.251733 L1290.4208,654.483733 L1308.2984,654.483733 L1308.2984,709.333333 L1320.6536,709.333333 Z M1394.036,709.333333 C1401.8048,709.239733 1408.7312,709.146133 1415.2832,705.308533 C1425.0176,699.692533 1428.8552,688.179733 1428.8552,676.854133 C1428.8552,669.459733 1427.1704,656.168533 1416.1256,648.399733 C1409.1992,643.438933 1402.2728,643.345333 1396.5632,643.251733 L1372.8824,643.251733 L1372.8824,709.333333 L1394.036,709.333333 Z M1390.97484,698.194485 L1385.2376,698.194933 L1385.2376,654.483733 L1391.7896,654.483733 C1400.12,654.577333 1402.0856,654.670933 1405.6424,656.262133 C1414.8152,660.661333 1415.7512,670.770133 1415.7512,676.947733 C1415.7512,690.706933 1410.6968,694.825333 1405.9232,696.697333 C1403.16534,697.708548 1399.95605,698.17804 1390.97484,698.194485 L1390.97484,698.194485 Z M1486.1384,704.559733 C1493.1584,698.569333 1493.1584,692.391733 1493.252,684.903733 L1493.252,643.251733 L1480.8032,643.251733 L1480.8032,683.218933 C1480.8032,688.741333 1480.8032,692.485333 1477.1528,695.761333 C1473.67623,698.79219 1469.01109,699.021415 1466.87671,699.036373 L1466.576,699.037333 C1462.6448,699.037333 1455.7184,698.288533 1453.1912,691.923733 C1452.31026,689.545192 1452.34135,687.000827 1452.34806,684.368672 L1452.3488,643.251733 L1439.9936,643.251733 L1439.9936,682.657333 C1440.0872,690.894133 1440.0872,692.953333 1440.9296,695.854933 C1442.4272,700.815733 1446.6392,706.525333 1454.5016,709.239733 C1458.2456,710.550133 1462.1768,711.018133 1466.2016,711.018133 C1470.6944,711.018133 1479.3992,710.456533 1486.1384,704.559733 Z M1545.7616,709.333333 L1545.7616,643.251733 L1533.5936,643.251733 L1533.5936,709.333333 L1545.7616,709.333333 Z M1573.1864,709.333333 L1572.4376,663.001333 L1601.36,709.333333 L1612.124,709.333333 L1612.124,643.251733 L1599.956,643.251733 L1601.4536,689.958133 L1572.2504,643.251733 L1561.112,643.251733 L1561.112,709.333333 L1573.1864,709.333333 Z M1672.8704,709.333333 C1680.6392,709.239733 1687.5656,709.146133 1694.1176,705.308533 C1703.852,699.692533 1707.6896,688.179733 1707.6896,676.854133 C1707.6896,669.459733 1706.0048,656.168533 1694.96,648.399733 C1688.0336,643.438933 1681.1072,643.345333 1675.3976,643.251733 L1651.7168,643.251733 L1651.7168,709.333333 L1672.8704,709.333333 Z M1669.80924,698.194485 L1664.072,698.194933 L1664.072,654.483733 L1670.624,654.483733 C1678.9544,654.577333 1680.92,654.670933 1684.4768,656.262133 C1693.6496,660.661333 1694.5856,670.770133 1694.5856,676.947733 C1694.5856,690.706933 1689.5312,694.825333 1684.7576,696.697333 C1681.99974,697.708548 1678.79045,698.17804 1669.80924,698.194485 L1669.80924,698.194485 Z M1767.968,709.333333 L1767.968,698.194933 L1730.8088,698.194933 L1730.8088,680.504533 L1762.6328,680.504533 L1762.6328,669.834133 L1730.8088,669.834133 L1730.8088,654.296533 L1765.628,654.296533 L1765.628,643.251733 L1718.6408,643.251733 L1718.6408,709.333333 L1767.968,709.333333 Z M1789.496,709.333333 L1789.496,643.251733 L1777.328,643.251733 L1777.328,709.333333 L1789.496,709.333333 Z M1816.9208,709.333333 L1816.172,663.001333 L1845.0944,709.333333 L1855.8584,709.333333 L1855.8584,643.251733 L1843.6904,643.251733 L1845.188,689.958133 L1815.9848,643.251733 L1804.8464,643.251733 L1804.8464,709.333333 L1816.9208,709.333333 Z M1920.068,709.333333 L1920.068,698.194933 L1882.9088,698.194933 L1882.9088,680.504533 L1914.7328,680.504533 L1914.7328,669.834133 L1882.9088,669.834133 L1882.9088,654.296533 L1917.728,654.296533 L1917.728,643.251733 L1870.7408,643.251733 L1870.7408,709.333333 L1920.068,709.333333 Z M1941.7832,709.333333 L1941.7832,684.810133 L1952.828,684.810133 L1965.932,709.333333 L1980.0656,709.333333 L1965.3704,682.470133 C1969.1144,681.346933 1978.3808,676.947733 1978.3808,664.311733 C1978.3808,656.636533 1975.1984,651.394933 1971.08,648.025333 C1965.2768,643.345333 1959.38,643.345333 1950.5816,643.251733 L1929.5216,643.251733 L1929.5216,709.333333 L1941.7832,709.333333 Z M1946.51531,674.607403 L1941.7832,674.607733 L1941.7832,653.922133 L1947.4928,653.922133 C1954.7936,653.922133 1957.976,654.015733 1960.5968,655.326133 C1965.7448,657.946933 1965.8384,662.814133 1965.8384,664.218133 C1965.8384,673.858933 1956.9464,674.326933 1954.232,674.420533 C1953.66717,674.443126 1953.14597,674.46572 1952.62101,674.486996 L1952.16902,674.50488 C1950.72779,674.560298 1949.15911,674.603247 1946.51531,674.607403 L1946.51531,674.607403 Z M2056.1624,707.742133 C2064.1184,704.934133 2067.956,698.194933 2067.956,690.613333 C2067.956,680.410933 2061.1232,674.514133 2053.8224,673.203733 C2057.3792,672.548533 2060,671.144533 2062.0592,668.430133 C2063.9312,665.902933 2064.8672,662.346133 2064.8672,659.444533 C2064.8672,652.237333 2059.9064,646.340533 2053.2608,644.374933 C2050.0784,643.438933 2047.7384,643.345333 2038.94,643.251733 L2015.3528,643.251733 L2015.3528,709.333333 L2042.20442,709.332594 C2048.98117,709.321589 2052.14631,709.170078 2056.1624,707.742133 Z M2033.54786,669.833641 L2027.6144,669.834133 L2027.6144,653.360533 L2035.3832,653.360533 C2044.3688,653.454133 2045.6792,653.547733 2048.3,655.045333 C2050.8272,656.542933 2052.1376,659.070133 2052.1376,661.597333 C2052.1376,664.592533 2050.3592,667.119733 2047.7384,668.430133 C2045.492,669.646933 2042.4032,669.740533 2039.3144,669.740533 C2038.07725,669.817855 2036.13749,669.831302 2033.54786,669.833641 L2033.54786,669.833641 Z M2041.04034,698.662448 L2027.6144,698.662933 L2027.6144,679.100533 L2039.876,679.194133 C2044.088,679.194133 2051.0144,679.194133 2054.0096,684.529333 C2054.9456,686.214133 2055.2264,687.992533 2055.2264,689.490133 C2055.2264,692.672533 2053.916,695.199733 2052.2312,696.416533 C2049.23974,698.528149 2047.32345,698.654846 2041.04034,698.662448 Z M2128.796,709.333333 L2128.796,698.194933 L2091.6368,698.194933 L2091.6368,680.504533 L2123.4608,680.504533 L2123.4608,669.834133 L2091.6368,669.834133 L2091.6368,654.296533 L2126.456,654.296533 L2126.456,643.251733 L2079.4688,643.251733 L2079.4688,709.333333 L2128.796,709.333333 Z M2184.488,709.333333 L2184.488,698.194933 L2149.7624,698.194933 L2184.488,653.828533 L2184.488,643.251733 L2136.0032,643.251733 L2136.0032,654.390133 L2169.044,654.390133 L2132.9144,699.224533 L2132.9144,709.333333 L2184.488,709.333333 Z M2206.8584,709.333333 L2206.8584,643.251733 L2194.6904,643.251733 L2194.6904,709.333333 L2206.8584,709.333333 Z M2271.1616,709.333333 L2271.1616,698.194933 L2234.0024,698.194933 L2234.0024,680.504533 L2265.8264,680.504533 L2265.8264,669.834133 L2234.0024,669.834133 L2234.0024,654.296533 L2268.8216,654.296533 L2268.8216,643.251733 L2221.8344,643.251733 L2221.8344,709.333333 L2271.1616,709.333333 Z M2292.9704,709.333333 L2292.9704,679.287733 L2321.3312,679.287733 L2321.3312,709.333333 L2333.78,709.333333 L2333.78,643.251733 L2321.3312,643.251733 L2321.3312,668.242933 L2292.9704,668.242933 L2292.9704,643.251733 L2280.6152,643.251733 L2280.6152,709.333333 L2292.9704,709.333333 Z M2394.9008,704.559733 C2401.9208,698.569333 2401.9208,692.391733 2402.0144,684.903733 L2402.0144,643.251733 L2389.5656,643.251733 L2389.56526,683.961088 C2389.55806,689.08073 2389.39967,692.634242 2385.9152,695.761333 C2382.43863,698.79219 2377.77349,699.021415 2375.63911,699.036373 L2375.3384,699.037333 C2371.4072,699.037333 2364.4808,698.288533 2361.9536,691.923733 C2361.0176,689.396533 2361.1112,686.682133 2361.1112,683.874133 L2361.1112,643.251733 L2348.756,643.251733 L2348.756,682.657333 C2348.834,689.521333 2348.847,692.095333 2349.33667,694.441833 L2349.40483,694.753709 C2349.48776,695.116822 2349.5828,695.4788 2349.692,695.854933 C2351.1896,700.815733 2355.4016,706.525333 2363.264,709.239733 C2367.008,710.550133 2370.9392,711.018133 2374.964,711.018133 C2379.4568,711.018133 2388.1616,710.456533 2394.9008,704.559733 Z M2429.252,709.333333 L2428.5032,663.001333 L2457.4256,709.333333 L2468.1896,709.333333 L2468.1896,643.251733 L2456.0216,643.251733 L2457.5192,689.958133 L2428.316,643.251733 L2417.1776,643.251733 L2417.1776,709.333333 L2429.252,709.333333 Z M2511.2456,711.018133 C2516.768,711.018133 2523.4136,709.520533 2529.3104,703.717333 L2529.3104,709.333333 L2539.8872,709.333333 L2539.8872,673.203733 L2512.088,673.203733 L2512.088,684.061333 L2528.5616,684.061333 C2527.4384,695.761333 2519.2016,699.411733 2512.2752,699.411733 C2501.5112,699.411733 2493.5552,691.081333 2493.5552,676.573333 C2493.5552,663.562933 2499.6392,652.705333 2512.088,652.705333 C2523.32,652.705333 2526.8768,662.158933 2528.0936,665.809333 L2539.8872,661.035733 C2535.8624,649.990933 2525.7536,641.566933 2511.9944,641.566933 C2493.836,641.566933 2480.0768,656.168533 2480.0768,676.947733 C2480.0768,694.731733 2490.8408,711.018133 2511.2456,711.018133 Z M2579.3864,692.391733 C2579.29949,691.783333 2579.29328,691.174933 2579.29283,690.041944 L2579.2928,689.770933 C2579.2928,686.026933 2579.2928,683.499733 2582.756,680.598133 C2584.4408,679.100533 2586.5,677.883733 2588.372,676.479733 C2591.2736,674.326933 2595.9536,669.834133 2595.9536,661.597333 C2595.9536,650.833333 2587.7168,642.128533 2573.6768,642.128533 C2564.2232,642.128533 2552.0552,646.621333 2550.932,663.750133 L2562.2576,665.060533 C2562.632,657.572533 2566.376,652.798933 2573.1152,652.798933 C2579.012,652.798933 2583.1304,657.010933 2583.1304,661.878133 C2583.1304,666.183733 2580.0416,668.804533 2578.7312,669.834133 C2577.14,670.957333 2575.4552,671.893333 2573.9576,673.110133 C2573.42904,673.546199 2572.93965,673.967341 2572.48891,674.40806 L2572.26676,674.63021 C2569.67602,677.282076 2568.4352,680.820571 2568.4352,692.391733 L2579.3864,692.391733 Z M2580.2288,709.333333 L2580.2288,696.510133 L2567.78,696.510133 L2567.78,709.333333 L2580.2288,709.333333 Z" id="WIEUNABHÄNGIGBISTDUINDEINERBEZIEHUNG?" fill="#000000" fill-rule="nonzero"></path>
            </g>
        </g>
    </g>
</svg>