<?xml version="1.0" encoding="UTF-8"?>
<svg width="1440px" height="751px" viewBox="0 0 1440 751" version="1.1" xmlns="http://www.w3.org/2000/svg" xmlns:xlink="http://www.w3.org/1999/xlink">
    <title>Group 19</title>
    <defs>
        <filter id="filter-1">
            <feColorMatrix in="SourceGraphic" type="matrix" values="0 0 0 0 0.000000 0 0 0 0 0.000000 0 0 0 0 0.000000 0 0 0 1.000000 0"></feColorMatrix>
        </filter>
    </defs>
    <g id="Page-1" stroke="none" stroke-width="1" fill="none" fill-rule="evenodd">
        <g id="Project-Copy" transform="translate(0.000000, -5374.000000)">
            <g id="Group-19" transform="translate(-416.886400, 5374.000000)">
                <text id="Eine-Fotostrecke-zei-Copy" font-family="AkzidenzGroteskBE-Md, Berthold Akzidenz Grotesk BE" font-size="36" font-weight="400" line-spacing="36" fill="#000000">
                    <tspan x="1640.8864" y="672">EINE FOTOSTRECKE ZEIGT JUGENDLICHE </tspan>
                    <tspan x="1640.8864" y="708">ALLER WELT BEIM ABHÄNGEN</tspan>
                </text>
                <g id="arrow-copy-3" transform="translate(1557.286400, 665.000000)" filter="url(#filter-1)">
                    <g>
                        <polygon id="Fill-1" fill="#FF9513" points="27.97848 -5.1159077e-15 25.42032 2.56464 37.84608 15.01344 -3.83693077e-14 15.01344 -3.83693077e-14 18.64008 37.84608 18.64008 25.42032 31.08888 27.97848 33.65352 44.77464 16.8264"></polygon>
                    </g>
                </g>
                <rect id="Rectangle" fill="#15F918" x="416.8864" y="0" width="1440" height="751"></rect>
                <path d="M1071.85304,372.324 C1077.61304,372.324 1080.88904,368.364 1080.88904,363.36 C1080.88904,358.464 1077.82904,355.26 1073.50904,355.26 C1071.63704,355.26 1069.90904,355.98 1068.82904,357.06 L1069.65704,351.696 L1079.12504,351.696 L1079.48504,347.628 L1065.98504,347.628 L1064.25704,360.984 L1068.32504,361.236 C1068.90104,359.724 1070.30504,358.968 1071.96104,358.968 C1074.12104,358.968 1075.99304,360.516 1075.99304,363.54 C1075.99304,365.448 1075.23704,367.14 1074.15704,367.86 C1073.58104,368.256 1072.86104,368.436 1072.03304,368.436 C1070.19704,368.436 1068.64904,367.32 1068.54104,364.836 L1063.50104,365.196 C1063.60904,366.384 1063.86104,369.516 1067.24504,371.316 C1068.64904,372.036 1070.23304,372.324 1071.85304,372.324 Z M1105.83704,372.648 C1107.96104,372.648 1110.51704,372.072 1112.78504,369.84 L1112.78504,372 L1116.85304,372 L1116.85304,358.104 L1106.16104,358.104 L1106.16104,362.28 L1112.49704,362.28 C1112.06504,366.78 1108.89704,368.184 1106.23304,368.184 C1102.09304,368.184 1099.03304,364.98 1099.03304,359.4 C1099.03304,354.396 1101.37304,350.22 1106.16104,350.22 C1110.48104,350.22 1111.84904,353.856 1112.31704,355.26 L1116.85304,353.424 C1115.30504,349.176 1111.41704,345.936 1106.12504,345.936 C1099.14104,345.936 1093.84904,351.552 1093.84904,359.544 C1093.84904,366.384 1097.98904,372.648 1105.83704,372.648 Z M1126.82504,372 L1126.82504,362.568 L1131.07304,362.568 L1136.11304,372 L1141.54904,372 L1135.89704,361.668 C1137.33704,361.236 1140.90104,359.544 1140.90104,354.684 C1140.90104,351.732 1139.67704,349.716 1138.09304,348.42 C1135.86104,346.62 1133.59304,346.62 1130.20904,346.584 L1122.10904,346.584 L1122.10904,372 L1126.82504,372 Z M1128.77329,358.643587 L1126.82504,358.644 L1126.82504,350.688 L1129.66525,350.688912 C1132.0235,350.696755 1133.13368,350.76432 1134.06104,351.228 C1136.04104,352.236 1136.07704,354.108 1136.07704,354.648 C1136.07704,358.356 1132.65704,358.536 1131.61304,358.572 C1131.44429,358.57875 1131.28567,358.5855 1131.12862,358.592013 L1130.81411,358.604651 C1130.28501,358.624954 1129.71021,358.640862 1128.77329,358.643587 Z M1153.96904,344.208 L1153.96904,339.78 L1149.93704,339.78 L1149.93704,344.208 L1153.96904,344.208 Z M1161.24104,344.208 L1161.24104,339.78 L1157.13704,339.78 L1157.13704,344.208 L1161.24104,344.208 Z M1155.40904,372.648 C1157.13704,372.648 1160.48504,372.432 1163.07704,370.164 C1165.77704,367.86 1165.77704,365.484 1165.81304,362.604 L1165.81304,346.584 L1161.02504,346.584 L1161.02504,361.956 C1161.02504,364.08 1161.02504,365.52 1159.62104,366.78 C1158.27808,367.950783 1156.474,368.034624 1155.65805,368.039701 L1155.55304,368.04 C1154.04104,368.04 1151.37704,367.752 1150.40504,365.304 C1150.04504,364.332 1150.08104,363.288 1150.08104,362.208 L1150.08104,346.584 L1145.32904,346.584 L1145.32904,361.74 C1145.36504,364.908 1145.36504,365.7 1145.68904,366.816 C1146.26504,368.724 1147.88504,370.92 1150.90904,371.964 C1152.34904,372.468 1153.86104,372.648 1155.40904,372.648 Z M1176.28904,372 L1176.00104,354.18 L1187.12504,372 L1191.26504,372 L1191.26504,346.584 L1186.58504,346.584 L1187.16104,364.548 L1175.92904,346.584 L1171.64504,346.584 L1171.64504,372 L1176.28904,372 Z M1204.87304,372 C1207.86104,371.964 1210.52504,371.928 1213.04504,370.452 C1216.78904,368.292 1218.26504,363.864 1218.26504,359.508 C1218.26504,356.664 1217.61704,351.552 1213.36904,348.564 C1210.70504,346.656 1208.04104,346.62 1205.84504,346.584 L1196.73704,346.584 L1196.73704,372 L1204.87304,372 Z M1203.85732,367.715399 L1201.48904,367.716 L1201.48904,350.904 L1204.00904,350.904 C1207.21304,350.94 1207.96904,350.976 1209.33704,351.588 C1212.86504,353.28 1213.22504,357.168 1213.22504,359.544 C1213.22504,364.836 1211.28104,366.42 1209.44504,367.14 C1208.40104,367.5228 1207.18884,367.70376 1203.85732,367.715399 L1203.85732,367.715399 Z M1241.44904,372 L1241.44904,367.716 L1227.15704,367.716 L1227.15704,360.912 L1239.39704,360.912 L1239.39704,356.808 L1227.15704,356.808 L1227.15704,350.832 L1240.54904,350.832 L1240.54904,346.584 L1222.47704,346.584 L1222.47704,372 L1241.44904,372 Z M1243.78904,377.004 C1245.12104,376.716 1246.05704,376.5 1246.99304,375.672 C1248.28904,374.556 1248.28904,373.476 1248.28904,371.424 L1248.28904,367.068 L1243.50104,367.068 L1243.50104,372 L1245.73304,372 L1245.73342,372.324736 C1245.72344,373.15424 1245.56744,374.6976 1243.78904,374.916 L1243.78904,377.004 Z M1270.68104,372 L1274.35304,354.324 L1277.91704,372 L1283.46104,372 L1289.04104,346.584 L1284.14504,346.584 L1280.58104,365.952 L1276.54904,346.584 L1272.12104,346.584 L1268.16104,365.952 L1264.70504,346.584 L1259.84504,346.584 L1265.13704,372 L1270.68104,372 Z M1294.72904,372 L1296.20504,367.032 L1305.74504,367.032 L1307.22104,372 L1312.29704,372 L1303.62104,346.584 L1298.22104,346.584 L1289.65304,372 L1294.72904,372 Z M1304.48504,362.892 L1297.46504,362.892 L1300.99304,351.192 L1304.48504,362.892 Z M1320.28904,372 L1320.28904,362.568 L1324.53704,362.568 L1329.57704,372 L1335.01304,372 L1329.36104,361.668 C1330.80104,361.236 1334.36504,359.544 1334.36504,354.684 C1334.36504,351.732 1333.14104,349.716 1331.55704,348.42 C1329.32504,346.62 1327.05704,346.62 1323.67304,346.584 L1315.57304,346.584 L1315.57304,372 L1320.28904,372 Z M1322.23729,358.643587 L1320.28904,358.644 L1320.28904,350.688 L1323.12925,350.688912 C1325.4875,350.696755 1326.59768,350.76432 1327.52504,351.228 C1329.50504,352.236 1329.54104,354.108 1329.54104,354.648 C1329.54104,358.356 1326.12104,358.536 1325.07704,358.572 C1324.90829,358.57875 1324.74967,358.5855 1324.59262,358.592013 L1324.27811,358.604651 C1323.74901,358.624954 1323.17421,358.640862 1322.23729,358.643587 Z M1348.87304,372.648 C1350.60104,372.648 1353.94904,372.432 1356.54104,370.164 C1359.24104,367.86 1359.24104,365.484 1359.27704,362.604 L1359.27704,346.584 L1354.48904,346.584 L1354.48904,361.956 C1354.48904,364.08 1354.48904,365.52 1353.08504,366.78 C1351.74208,367.950783 1349.938,368.034624 1349.12205,368.039701 L1349.01704,368.04 C1347.50504,368.04 1344.84104,367.752 1343.86904,365.304 C1343.50904,364.332 1343.54504,363.288 1343.54504,362.208 L1343.54504,346.584 L1338.79304,346.584 L1338.79304,361.74 C1338.82904,364.908 1338.82904,365.7 1339.15304,366.816 C1339.72904,368.724 1341.34904,370.92 1344.37304,371.964 C1345.81304,372.468 1347.32504,372.648 1348.87304,372.648 Z M1369.53704,372 L1369.06904,351.12 L1374.57704,372 L1378.86104,372 L1384.33304,351.12 L1383.90104,372 L1388.54504,372 L1388.54504,346.584 L1381.63304,346.584 L1376.77304,365.448 L1371.80504,346.584 L1364.89304,346.584 L1364.89304,372 L1369.53704,372 Z M1414.10504,372.648 C1415.83304,372.648 1419.18104,372.432 1421.77304,370.164 C1424.47304,367.86 1424.47304,365.484 1424.50904,362.604 L1424.50904,346.584 L1419.72104,346.584 L1419.72104,361.956 C1419.72104,364.08 1419.72104,365.52 1418.31704,366.78 C1416.97408,367.950783 1415.17,368.034624 1414.35405,368.039701 L1414.24904,368.04 C1412.73704,368.04 1410.07304,367.752 1409.10104,365.304 C1408.74104,364.332 1408.77704,363.288 1408.77704,362.208 L1408.77704,346.584 L1404.02504,346.584 L1404.02504,361.74 C1404.06104,364.908 1404.06104,365.7 1404.38504,366.816 C1404.96104,368.724 1406.58104,370.92 1409.60504,371.964 C1411.04504,372.468 1412.55704,372.648 1414.10504,372.648 Z M1434.98504,372 L1434.69704,354.18 L1445.82104,372 L1449.96104,372 L1449.96104,346.584 L1445.28104,346.584 L1445.85704,364.548 L1434.62504,346.584 L1430.34104,346.584 L1430.34104,372 L1434.98504,372 Z M1464.82904,372.648 C1470.22904,372.648 1475.62904,370.308 1475.62904,364.476 C1475.62904,359.04 1470.80504,357.636 1467.38504,356.916 L1464.75704,356.34 C1462.45304,355.908 1460.07704,355.476 1460.07704,353.316 C1460.07704,351.372 1462.30904,350.22 1464.86504,350.22 C1468.93304,350.22 1470.58904,352.74 1471.45304,354 L1475.34104,351.084 C1473.54104,348.636 1470.58904,345.936 1465.11704,345.936 C1459.14104,345.936 1455.07304,349.032 1455.07304,353.856 C1455.07304,358.068 1458.20504,359.616 1459.35704,360.084 C1460.14904,360.408 1460.94104,360.588 1462.56104,360.984 L1465.62104,361.632 C1467.51361,362.075571 1467.90015,362.179071 1468.2971,362.32161 L1468.40189,362.359929 C1468.4554,362.379781 1468.51133,362.400857 1468.57304,362.424 C1469.36504,362.748 1470.48104,363.324 1470.48104,364.944 C1470.48104,365.808 1470.15704,367.104 1468.32104,367.86 C1467.42104,368.22 1466.48504,368.292 1465.58504,368.292 C1460.22104,368.292 1458.31304,365.376 1457.70104,364.44 L1453.70504,367.248 C1455.61304,370.344 1458.60104,371.568 1460.29304,372.072 C1461.84104,372.504 1463.42504,372.648 1464.82904,372.648 Z M1497.33704,372 C1500.32504,371.964 1502.98904,371.928 1505.50904,370.452 C1509.25304,368.292 1510.72904,363.864 1510.72904,359.508 C1510.72904,356.664 1510.08104,351.552 1505.83304,348.564 C1503.16904,346.656 1500.50504,346.62 1498.30904,346.584 L1489.20104,346.584 L1489.20104,372 L1497.33704,372 Z M1496.32132,367.715399 L1493.95304,367.716 L1493.95304,350.904 L1496.47304,350.904 C1499.67704,350.94 1500.43304,350.976 1501.80104,351.588 C1505.32904,353.28 1505.68904,357.168 1505.68904,359.544 C1505.68904,364.836 1503.74504,366.42 1501.90904,367.14 C1500.86504,367.5228 1499.65284,367.70376 1496.32132,367.715399 Z M1519.69304,372 L1519.69304,346.584 L1515.01304,346.584 L1515.01304,372 L1519.69304,372 Z M1544.42504,372 L1544.42504,367.716 L1530.13304,367.716 L1530.13304,360.912 L1542.37304,360.912 L1542.37304,356.808 L1530.13304,356.808 L1530.13304,350.832 L1543.52504,350.832 L1543.52504,346.584 L1525.45304,346.584 L1525.45304,372 L1544.42504,372 Z M1069.94504,408 L1069.94504,399.396 L1073.65304,399.396 C1075.20104,399.396 1076.53304,399.396 1077.93704,399.072 C1082.47304,398.064 1084.05704,394.428 1084.05704,391.044 C1084.05704,385.896 1080.56504,383.664 1078.08104,382.98 C1076.75264,382.6236 1075.42424,382.58796 1074.14833,382.584396 L1065.15704,382.584 L1065.15704,408 L1069.94504,408 Z M1073.36504,395.472 L1069.94504,395.472 L1069.94504,386.652 L1073.54504,386.652 C1075.09304,386.652 1076.74904,386.688 1077.93704,387.696 C1078.36904,388.092 1079.19704,389.064 1079.19704,390.936 C1079.19704,391.836 1079.01704,394.536 1076.06504,395.256 C1075.23704,395.472 1074.37304,395.472 1073.36504,395.472 Z M1102.52504,408 L1102.52504,403.68 L1092.44504,403.68 L1092.44504,382.548 L1087.65704,382.548 L1087.65704,408 L1102.52504,408 Z M1108.78904,408 L1110.26504,403.032 L1119.80504,403.032 L1121.28104,408 L1126.35704,408 L1117.68104,382.584 L1112.28104,382.584 L1103.71304,408 L1108.78904,408 Z M1118.54504,398.892 L1111.52504,398.892 L1115.05304,387.192 L1118.54504,398.892 Z M1139.17304,408 L1139.17304,386.904 L1146.19304,386.904 L1146.19304,382.584 L1127.54504,382.584 L1127.54504,386.904 L1134.42104,386.904 L1134.42104,408 L1139.17304,408 Z M1159.40504,408 L1159.40504,386.904 L1166.42504,386.904 L1166.42504,382.584 L1147.77704,382.584 L1147.77704,386.904 L1154.65304,386.904 L1154.65304,408 L1159.40504,408 Z M1174.81304,408 L1174.81304,397.236 L1185.43304,397.236 L1185.43304,393.168 L1174.81304,393.168 L1174.81304,386.832 L1186.90904,386.832 L1186.90904,382.584 L1170.09704,382.584 L1170.09704,408 L1174.81304,408 Z M1201.27304,408.648 C1209.08504,408.648 1213.47704,402.564 1213.5132,395.292 C1213.54904,386.616 1207.64504,381.936 1201.34504,381.936 C1194.39704,381.936 1189.14104,387.552 1189.14104,395.328 C1189.14104,398.532 1190.00504,401.844 1192.52504,404.76 C1195.11704,407.748 1198.06904,408.648 1201.27304,408.648 Z M1201.41704,404.256 C1197.20504,404.256 1194.03704,400.836 1194.03704,395.112 C1194.03704,389.82 1196.95304,386.292 1201.30904,386.292 C1206.31304,386.292 1208.86904,390.864 1208.76104,395.832 C1208.65304,401.952 1204.58504,404.256 1201.41704,404.256 Z M1222.80104,408 L1222.80104,398.568 L1227.04904,398.568 L1232.08904,408 L1237.52504,408 L1231.87304,397.668 C1233.31304,397.236 1236.87704,395.544 1236.87704,390.684 C1236.87704,387.732 1235.65304,385.716 1234.06904,384.42 C1231.83704,382.62 1229.56904,382.62 1226.18504,382.584 L1218.08504,382.584 L1218.08504,408 L1222.80104,408 Z M1224.74929,394.643587 L1222.80104,394.644 L1222.80104,386.688 L1225.64125,386.688912 C1227.9995,386.696755 1229.10968,386.76432 1230.03704,387.228 C1232.01704,388.236 1232.05304,390.108 1232.05304,390.648 C1232.05304,394.356 1228.63304,394.536 1227.58904,394.572 C1227.42029,394.57875 1227.26167,394.5855 1227.10462,394.592013 L1226.79011,394.604651 C1226.26101,394.624954 1225.68621,394.640862 1224.74929,394.643587 Z M1245.80504,408 L1245.33704,387.12 L1250.84504,408 L1255.12904,408 L1260.60104,387.12 L1260.16904,408 L1264.81304,408 L1264.81304,382.584 L1257.90104,382.584 L1253.04104,401.448 L1248.07304,382.584 L1241.16104,382.584 L1241.16104,408 L1245.80504,408 Z M1289.36504,408.648 C1294.76504,408.648 1300.16504,406.308 1300.16504,400.476 C1300.16504,395.04 1295.34104,393.636 1291.92104,392.916 L1289.29304,392.34 C1286.98904,391.908 1284.61304,391.476 1284.61304,389.316 C1284.61304,387.372 1286.84504,386.22 1289.40104,386.22 C1293.46904,386.22 1295.12504,388.74 1295.98904,390 L1299.87704,387.084 C1298.07704,384.636 1295.12504,381.936 1289.65304,381.936 C1283.67704,381.936 1279.60904,385.032 1279.60904,389.856 C1279.60904,394.068 1282.74104,395.616 1283.89304,396.084 C1284.68504,396.408 1285.47704,396.588 1287.09704,396.984 L1290.15704,397.632 C1292.04961,398.075571 1292.43615,398.179071 1292.8331,398.32161 L1292.93789,398.359929 C1292.9914,398.379781 1293.04733,398.400857 1293.10904,398.424 C1293.90104,398.748 1295.01704,399.324 1295.01704,400.944 C1295.01704,401.808 1294.69304,403.104 1292.85704,403.86 C1291.95704,404.22 1291.02104,404.292 1290.12104,404.292 C1284.75704,404.292 1282.84904,401.376 1282.23704,400.44 L1278.24104,403.248 C1280.14904,406.344 1283.13704,407.568 1284.82904,408.072 C1286.37704,408.504 1287.96104,408.648 1289.36504,408.648 Z M1315.28504,408.648 C1323.09704,408.648 1327.48904,402.564 1327.5252,395.292 C1327.56104,386.616 1321.65704,381.936 1315.35704,381.936 C1308.40904,381.936 1303.15304,387.552 1303.15304,395.328 C1303.15304,398.532 1304.01704,401.844 1306.53704,404.76 C1309.12904,407.748 1312.08104,408.648 1315.28504,408.648 Z M1315.42904,404.256 C1311.21704,404.256 1308.04904,400.836 1308.04904,395.112 C1308.04904,389.82 1310.96504,386.292 1315.32104,386.292 C1320.32504,386.292 1322.88104,390.864 1322.77304,395.832 C1322.66504,401.952 1318.59704,404.256 1315.42904,404.256 Z M1344.26504,408 L1345.74104,403.032 L1355.28104,403.032 L1356.75704,408 L1361.83304,408 L1353.15704,382.584 L1347.75704,382.584 L1339.18904,408 L1344.26504,408 Z M1354.02104,398.892 L1347.00104,398.892 L1350.52904,387.192 L1354.02104,398.892 Z M1375.04504,408 C1377.92504,408 1379.18504,407.964 1380.80504,407.388 C1383.86504,406.308 1385.34104,403.716 1385.34104,400.8 C1385.34104,396.876 1382.71304,394.608 1379.90504,394.104 C1381.27304,393.852 1382.28104,393.312 1383.07304,392.268 C1383.79304,391.296 1384.15304,389.928 1384.15304,388.812 C1384.15304,386.04 1382.24504,383.772 1379.68904,383.016 C1378.46504,382.656 1377.56504,382.62 1374.18104,382.584 L1365.10904,382.584 L1365.10904,408 L1375.04504,408 Z M1371.44504,392.808 L1369.82504,392.808 L1369.82504,386.472 L1372.81304,386.472 C1376.26904,386.508 1376.77304,386.544 1377.78104,387.12 C1378.75304,387.696 1379.25704,388.668 1379.25704,389.64 C1379.25704,390.792 1378.57304,391.764 1377.56504,392.268 C1376.70104,392.736 1375.51304,392.772 1374.32504,392.772 C1373.88196,392.799692 1373.20457,392.806083 1372.30924,392.807558 L1371.74602,392.808 C1371.64783,392.808 1371.5475,392.808 1371.44504,392.808 Z M1374.50504,403.896 L1369.82504,403.896 L1369.82504,396.372 L1374.54104,396.408 L1374.89027,396.408673 C1376.5213,396.41776 1378.90449,396.549517 1379.97704,398.46 C1380.33704,399.108 1380.44504,399.792 1380.44504,400.368 C1380.44504,401.592 1379.94104,402.564 1379.29304,403.032 C1378.06904,403.896 1377.31304,403.896 1374.50504,403.896 Z M1394.59304,408 L1394.59304,397.236 L1405.21304,397.236 L1405.21304,393.168 L1394.59304,393.168 L1394.59304,386.832 L1406.68904,386.832 L1406.68904,382.584 L1389.87704,382.584 L1389.87704,408 L1394.59304,408 Z M1420.15304,408.648 C1421.88104,408.648 1425.22904,408.432 1427.82104,406.164 C1430.52104,403.86 1430.52104,401.484 1430.55704,398.604 L1430.55704,382.584 L1425.76904,382.584 L1425.76904,397.956 C1425.76904,400.08 1425.76904,401.52 1424.36504,402.78 C1422.96104,404.004 1421.05304,404.04 1420.29704,404.04 C1418.78504,404.04 1416.12104,403.752 1415.14904,401.304 C1414.78904,400.332 1414.82504,399.288 1414.82504,398.208 L1414.82504,382.584 L1410.07304,382.584 L1410.07304,397.74 C1410.10904,400.908 1410.10904,401.7 1410.43304,402.816 C1411.00904,404.724 1412.62904,406.92 1415.65304,407.964 C1417.09304,408.468 1418.60504,408.648 1420.15304,408.648 Z M1446.64904,408.648 C1450.78904,408.648 1453.63304,406.812 1455.43304,404.724 C1456.69304,403.212 1457.30504,401.736 1457.62904,400.908 L1453.16504,399.036 C1452.98504,399.612 1452.66104,400.548 1451.83304,401.664 C1450.78904,402.996 1449.34904,404.148 1446.97304,404.148 C1442.97704,404.148 1439.91704,400.944 1439.91704,395.148 C1439.91704,389.712 1442.79704,386.292 1446.93704,386.292 C1449.56504,386.292 1450.96904,387.732 1451.50904,388.524 C1452.15704,389.496 1452.37304,390.576 1452.44504,391.044 L1457.19704,389.784 C1456.62104,388.02 1454.74904,381.936 1446.82904,381.936 C1440.34904,381.936 1434.76904,386.58 1434.76904,395.22 C1434.76904,403.716 1439.91704,408.648 1446.64904,408.648 Z M1465.80104,408 L1465.80104,400.8 L1469.94104,396.048 L1476.70904,408 L1482.14504,408 L1473.25304,392.16 L1481.60504,382.584 L1475.98904,382.584 L1465.80104,394.248 L1465.80104,382.584 L1461.08504,382.584 L1461.08504,408 L1465.80104,408 Z M1494.67304,408 L1494.67304,386.904 L1501.69304,386.904 L1501.69304,382.584 L1483.04504,382.584 L1483.04504,386.904 L1489.92104,386.904 L1489.92104,408 L1494.67304,408 Z" id="5GRÜNDE,WARUMUNSDIEPLATTFORMSOABFUCKT" fill="#000000" fill-rule="nonzero"></path>
                <path d="M428.5424,408.333333 L428.5424,342.251733 L416.3744,342.251733 L416.3744,408.333333 L428.5424,408.333333 Z M455.9672,408.333333 L455.2184,362.001333 L484.1408,408.333333 L494.9048,408.333333 L494.9048,342.251733 L482.7368,342.251733 L484.2344,388.958133 L455.0312,342.251733 L443.8928,342.251733 L443.8928,408.333333 L455.9672,408.333333 Z M533.5616,410.018133 C547.6016,410.018133 561.6416,403.934133 561.6416,388.770933 C561.6416,374.637333 549.0992,370.986933 540.2072,369.114933 L533.3744,367.617333 C533.181161,367.581101 532.987728,367.544869 532.794313,367.508486 L532.214339,367.398733 L532.214339,367.398733 L531.347395,367.230429 L531.347395,367.230429 L530.773312,367.114455 C525.720676,366.073372 521.2064,364.555708 521.2064,359.754933 C521.2064,354.700533 527.0096,351.705333 533.6552,351.705333 C544.232,351.705333 548.5376,358.257333 550.784,361.533333 L560.8928,353.951733 C556.2128,347.586933 548.5376,340.566933 534.3104,340.566933 C518.7728,340.566933 508.196,348.616533 508.196,361.158933 C508.196,372.110133 516.3392,376.134933 519.3344,377.351733 C521.3936,378.194133 523.4528,378.662133 527.6648,379.691733 L535.6208,381.376533 C540.652736,382.555893 541.589934,382.810635 542.648653,383.194823 L542.801181,383.250702 C542.955446,383.307689 543.116288,383.368341 543.296,383.435733 C545.3552,384.278133 548.2568,385.775733 548.2568,389.987733 C548.2568,392.234133 547.4144,395.603733 542.6408,397.569333 C540.3008,398.505333 537.8672,398.692533 535.5272,398.692533 C521.5808,398.692533 516.62,391.110933 515.0288,388.677333 L504.6392,395.978133 C509.6,404.027733 517.3688,407.210133 521.768,408.520533 C525.7928,409.643733 529.9112,410.018133 533.5616,410.018133 Z M597.3032,408.333333 L597.3032,353.483733 L615.5552,353.483733 L615.5552,342.251733 L567.0704,342.251733 L567.0704,353.483733 L584.948,353.483733 L584.948,408.333333 L597.3032,408.333333 Z M631.3736,408.333333 L635.2112,395.416533 L660.0152,395.416533 L663.8528,408.333333 L677.0504,408.333333 L654.4928,342.251733 L640.4528,342.251733 L618.176,408.333333 L631.3736,408.333333 Z M656.7392,384.652533 L638.4872,384.652533 L647.66,354.232533 L656.7392,384.652533 Z M713.4608,410.018133 C718.9832,410.018133 725.6288,408.520533 731.5256,402.717333 L731.5256,408.333333 L742.1024,408.333333 L742.1024,372.203733 L714.3032,372.203733 L714.3032,383.061333 L730.7768,383.061333 C729.6536,394.761333 721.4168,398.411733 714.4904,398.411733 C703.7264,398.411733 695.7704,390.081333 695.7704,375.573333 C695.7704,362.562933 701.8544,351.705333 714.3032,351.705333 C725.5352,351.705333 729.092,361.158933 730.3088,364.809333 L742.1024,360.035733 C738.0776,348.990933 727.9688,340.566933 714.2096,340.566933 C696.0512,340.566933 682.292,355.168533 682.292,375.947733 C682.292,393.731733 693.056,410.018133 713.4608,410.018133 Z M768.0296,408.333333 L768.0296,383.810133 L779.0744,383.810133 L792.1784,408.333333 L806.312,408.333333 L791.6168,381.470133 C795.3608,380.346933 804.6272,375.947733 804.6272,363.311733 C804.6272,355.636533 801.4448,350.394933 797.3264,347.025333 C791.5232,342.345333 785.6264,342.345333 776.828,342.251733 L755.768,342.251733 L755.768,408.333333 L768.0296,408.333333 Z M772.761713,373.607403 L768.0296,373.607733 L768.0296,352.922133 L773.7392,352.922133 C781.04,352.922133 784.2224,353.015733 786.8432,354.326133 C791.9912,356.946933 792.0848,361.814133 792.0848,363.218133 C792.0848,372.858933 783.1928,373.326933 780.4784,373.420533 C779.913572,373.443126 779.392373,373.46572 778.867412,373.486996 L778.41542,373.50488 C776.974193,373.560298 775.405506,373.603247 772.761713,373.607403 Z M822.5048,408.333333 L826.3424,395.416533 L851.1464,395.416533 L854.984,408.333333 L868.1816,408.333333 L845.624,342.251733 L831.584,342.251733 L809.3072,408.333333 L822.5048,408.333333 Z M847.8704,384.652533 L829.6184,384.652533 L838.7912,354.232533 L847.8704,384.652533 Z M888.3056,408.333333 L887.0888,354.045333 L901.4096,408.333333 L912.548,408.333333 L926.7752,354.045333 L925.652,408.333333 L937.7264,408.333333 L937.7264,342.251733 L919.7552,342.251733 L907.1192,391.298133 L894.2024,342.251733 L876.2312,342.251733 L876.2312,408.333333 L888.3056,408.333333 Z" id="INSTAGRAM" fill="#000000" fill-rule="nonzero"></path>
                <path d="M1665.4344,408.333333 L1665.4344,397.194933 L1628.2752,397.194933 L1628.2752,379.504533 L1660.0992,379.504533 L1660.0992,368.834133 L1628.2752,368.834133 L1628.2752,353.296533 L1663.0944,353.296533 L1663.0944,342.251733 L1616.1072,342.251733 L1616.1072,408.333333 L1665.4344,408.333333 Z M1702.5,408.333333 L1702.5,382.218933 L1724.7768,342.251733 L1711.0176,342.251733 L1696.5096,369.676533 L1682.1888,342.251733 L1668.2424,342.251733 L1690.332,382.218933 L1690.332,408.333333 L1702.5,408.333333 Z M1765.0248,408.333333 L1768.8624,395.416533 L1793.6664,395.416533 L1797.504,408.333333 L1810.7016,408.333333 L1788.144,342.251733 L1774.104,342.251733 L1751.8272,408.333333 L1765.0248,408.333333 Z M1790.3904,384.652533 L1772.1384,384.652533 L1781.3112,354.232533 L1790.3904,384.652533 Z M1857.9696,408.333333 L1857.9696,397.101333 L1831.7616,397.101333 L1831.7616,342.158133 L1819.3128,342.158133 L1819.3128,408.333333 L1857.9696,408.333333 Z M1892.7888,408.333333 L1892.7888,353.483733 L1911.0408,353.483733 L1911.0408,342.251733 L1862.556,342.251733 L1862.556,353.483733 L1880.4336,353.483733 L1880.4336,408.333333 L1892.7888,408.333333 Z M1969.6344,408.333333 L1969.6344,397.194933 L1932.4752,397.194933 L1932.4752,379.504533 L1964.2992,379.504533 L1964.2992,368.834133 L1932.4752,368.834133 L1932.4752,353.296533 L1967.2944,353.296533 L1967.2944,342.251733 L1920.3072,342.251733 L1920.3072,408.333333 L1969.6344,408.333333 Z M1991.3496,408.333333 L1991.3496,383.810133 L2002.3944,383.810133 L2015.4984,408.333333 L2029.632,408.333333 L2014.9368,381.470133 C2018.6808,380.346933 2027.9472,375.947733 2027.9472,363.311733 C2027.9472,355.636533 2024.7648,350.394933 2020.6464,347.025333 C2014.8432,342.345333 2008.9464,342.345333 2000.148,342.251733 L1979.088,342.251733 L1979.088,408.333333 L1991.3496,408.333333 Z M1996.08171,373.607403 L1991.3496,373.607733 L1991.3496,352.922133 L1997.0592,352.922133 C2004.36,352.922133 2007.5424,353.015733 2010.1632,354.326133 C2015.3112,356.946933 2015.4048,361.814133 2015.4048,363.218133 C2015.4048,372.858933 2006.5128,373.326933 2003.7984,373.420533 C2003.23357,373.443126 2002.71237,373.46572 2002.18741,373.486996 L2001.73542,373.50488 C2000.29419,373.560298 1998.72551,373.603247 1996.08171,373.607403 Z M2036.184,421.343733 C2039.6472,420.594933 2042.0808,420.033333 2044.5144,417.880533 C2047.73084,415.110824 2047.87704,412.426399 2047.88368,407.547842 L2047.884,395.510133 L2035.4352,395.510133 L2035.4352,408.333333 L2041.2384,408.333333 C2041.2384,408.455864 2041.23989,408.597208 2041.24059,408.754232 L2041.24077,409.001137 C2041.23283,411.107173 2040.93718,415.33121 2036.184,415.914933 L2036.184,421.343733 Z M2112.2808,410.018133 C2117.8032,410.018133 2124.4488,408.520533 2130.3456,402.717333 L2130.3456,408.333333 L2140.9224,408.333333 L2140.9224,372.203733 L2113.1232,372.203733 L2113.1232,383.061333 L2129.5968,383.061333 C2128.4736,394.761333 2120.2368,398.411733 2113.3104,398.411733 C2102.5464,398.411733 2094.5904,390.081333 2094.5904,375.573333 C2094.5904,362.562933 2100.6744,351.705333 2113.1232,351.705333 C2124.3552,351.705333 2127.912,361.158933 2129.1288,364.809333 L2140.9224,360.035733 C2136.8976,348.990933 2126.7888,340.566933 2113.0296,340.566933 C2094.8712,340.566933 2081.112,355.168533 2081.112,375.947733 C2081.112,393.731733 2091.876,410.018133 2112.2808,410.018133 Z M2203.6344,408.333333 L2203.6344,397.194933 L2166.4752,397.194933 L2166.4752,379.504533 L2198.2992,379.504533 L2198.2992,368.834133 L2166.4752,368.834133 L2166.4752,353.296533 L2201.2944,353.296533 L2201.2944,342.251733 L2154.3072,342.251733 L2154.3072,408.333333 L2203.6344,408.333333 Z M2225.4432,408.333333 L2225.4432,378.287733 L2253.804,378.287733 L2253.804,408.333333 L2266.2528,408.333333 L2266.2528,342.251733 L2253.804,342.251733 L2253.804,367.242933 L2225.4432,367.242933 L2225.4432,342.251733 L2213.088,342.251733 L2213.088,408.333333 L2225.4432,408.333333 Z M2306.1264,408.333333 L2306.1264,353.483733 L2324.3784,353.483733 L2324.3784,342.251733 L2275.8936,342.251733 L2275.8936,353.483733 L2293.7712,353.483733 L2293.7712,408.333333 L2306.1264,408.333333 Z M2330.7432,367.991733 C2333.0832,367.804533 2337.2952,367.336533 2340.2904,363.592533 C2342.15255,361.287018 2342.25056,359.317528 2342.25571,354.659826 L2342.256,342.251733 L2330.088,342.251733 L2330.088,355.262133 L2335.7976,355.262133 C2335.7976,358.912533 2335.7976,361.533333 2330.7432,363.030933 L2330.7432,367.991733 Z M2376.888,410.018133 C2390.928,410.018133 2404.968,403.934133 2404.968,388.770933 C2404.968,374.637333 2392.4256,370.986933 2383.5336,369.114933 L2376.7008,367.617333 C2376.50756,367.581101 2376.31413,367.544869 2376.12071,367.508486 L2375.54074,367.398733 C2369.939,366.330504 2364.5328,365.008611 2364.5328,359.754933 C2364.5328,354.700533 2370.336,351.705333 2376.9816,351.705333 C2387.5584,351.705333 2391.864,358.257333 2394.1104,361.533333 L2404.2192,353.951733 C2399.5392,347.586933 2391.864,340.566933 2377.6368,340.566933 C2362.0992,340.566933 2351.5224,348.616533 2351.5224,361.158933 C2351.5224,372.110133 2359.6656,376.134933 2362.6608,377.351733 C2364.72,378.194133 2366.7792,378.662133 2370.9912,379.691733 L2378.9472,381.376533 C2383.3801,382.415493 2384.63516,382.736878 2385.59499,383.061339 L2385.74851,383.114095 C2386.02688,383.211281 2386.29293,383.312181 2386.6224,383.435733 C2388.6816,384.278133 2391.5832,385.775733 2391.5832,389.987733 C2391.5832,392.234133 2390.7408,395.603733 2385.9672,397.569333 C2383.6272,398.505333 2381.1936,398.692533 2378.8536,398.692533 C2364.9072,398.692533 2359.9464,391.110933 2358.3552,388.677333 L2347.9656,395.978133 C2352.9264,404.027733 2360.6952,407.210133 2365.0944,408.520533 C2369.1192,409.643733 2373.2376,410.018133 2376.888,410.018133 Z M2453.3592,408.333333 L2452.6104,362.001333 L2481.5328,408.333333 L2492.2968,408.333333 L2492.2968,342.251733 L2480.1288,342.251733 L2481.6264,388.958133 L2452.4232,342.251733 L2441.2848,342.251733 L2441.2848,408.333333 L2453.3592,408.333333 Z M2535.9144,410.018133 C2556.2256,410.018133 2567.6448,394.199733 2567.73883,375.292533 C2567.832,352.734933 2552.4816,340.566933 2536.1016,340.566933 C2518.0368,340.566933 2504.3712,355.168533 2504.3712,375.386133 C2504.3712,383.716533 2506.6176,392.327733 2513.1696,399.909333 C2519.9088,407.678133 2527.584,410.018133 2535.9144,410.018133 Z M2536.2888,398.598933 C2525.3376,398.598933 2517.1008,389.706933 2517.1008,374.824533 C2517.1008,361.065333 2524.6824,351.892533 2536.008,351.892533 C2549.0184,351.892533 2555.664,363.779733 2555.3832,376.696533 C2555.1024,392.608533 2544.5256,398.598933 2536.2888,398.598933 Z M2606.3952,410.018133 C2617.1592,410.018133 2624.5536,405.244533 2629.2336,399.815733 C2632.5096,395.884533 2634.1008,392.046933 2634.9432,389.894133 L2623.3368,385.026933 C2622.8688,386.524533 2622.0264,388.958133 2619.8736,391.859733 C2617.1592,395.322933 2613.4152,398.318133 2607.2376,398.318133 C2596.848,398.318133 2588.892,389.987733 2588.892,374.918133 C2588.892,360.784533 2596.38,351.892533 2607.144,351.892533 C2613.9768,351.892533 2617.6272,355.636533 2619.0312,357.695733 C2620.716,360.222933 2621.2776,363.030933 2621.4648,364.247733 L2633.82,360.971733 C2632.3224,356.385333 2627.4552,340.566933 2606.8632,340.566933 C2590.0152,340.566933 2575.5072,352.641333 2575.5072,375.105333 C2575.5072,397.194933 2588.892,410.018133 2606.3952,410.018133 Z M2656.3776,408.333333 L2656.3776,378.287733 L2684.7384,378.287733 L2684.7384,408.333333 L2697.1872,408.333333 L2697.1872,342.251733 L2684.7384,342.251733 L2684.7384,367.242933 L2656.3776,367.242933 L2656.3776,342.251733 L2644.0224,342.251733 L2644.0224,408.333333 L2656.3776,408.333333 Z M2720.868,391.859733 L2724.4248,367.523733 L2724.4248,342.251733 L2712.1632,342.251733 L2712.1632,367.523733 L2715.6264,391.859733 L2720.868,391.859733 Z M2724.4248,408.333333 L2724.4248,395.416533 L2712.1632,395.416533 L2712.1632,408.333333 L2724.4248,408.333333 Z M2761.4904,391.391733 C2761.41017,390.830133 2761.39871,390.268533 2761.39707,389.294329 L2761.39727,388.204319 C2761.40591,384.766749 2761.5744,382.350933 2764.86,379.598133 C2766.5448,378.100533 2768.604,376.883733 2770.476,375.479733 C2773.3776,373.326933 2778.0576,368.834133 2778.0576,360.597333 C2778.0576,349.833333 2769.8208,341.128533 2755.7808,341.128533 C2746.3272,341.128533 2734.1592,345.621333 2733.036,362.750133 L2744.3616,364.060533 C2744.736,356.572533 2748.48,351.798933 2755.2192,351.798933 C2761.116,351.798933 2765.2344,356.010933 2765.2344,360.878133 C2765.2344,365.183733 2762.1456,367.804533 2760.8352,368.834133 C2759.244,369.957333 2757.5592,370.893333 2756.0616,372.110133 C2752.3176,375.198933 2750.5392,377.538933 2750.5392,391.391733 L2761.4904,391.391733 Z M2762.3328,408.333333 L2762.3328,395.510133 L2749.884,395.510133 L2749.884,408.333333 L2762.3328,408.333333 Z" id="EYALTER,GEHT’SNOCH!?" fill="#000000" fill-rule="nonzero"></path>
                <polygon id="Fill-1" fill="#000000" points="1006.70488 361 1004.14672 363.56464 1016.57248 376.01344 978.7264 376.01344 978.7264 379.64008 1016.57248 379.64008 1004.14672 392.08888 1006.70488 394.65352 1023.50104 377.8264"></polygon>
                <polygon id="Fill-1-Copy" fill="#000000" points="1584.30568 660 1581.74752 662.56464 1594.17328 675.01344 1556.3272 675.01344 1556.3272 678.64008 1594.17328 678.64008 1581.74752 691.08888 1584.30568 693.65352 1601.10184 676.8264"></polygon>
                <path d="M362.636,259.666667 L361.8872,213.334667 L390.8096,259.666667 L401.5736,259.666667 L401.5736,193.585067 L389.4056,193.585067 L390.9032,240.291467 L361.7,193.585067 L350.5616,193.585067 L350.5616,259.666667 L362.636,259.666667 Z M423.008,259.666667 L426.8456,246.749867 L451.6496,246.749867 L455.4872,259.666667 L468.6848,259.666667 L446.1272,193.585067 L432.0872,193.585067 L409.8104,259.666667 L423.008,259.666667 Z M448.3736,235.985867 L430.1216,235.985867 L439.2944,205.565867 L448.3736,235.985867 Z M488.8088,259.666667 L487.592,205.378667 L501.9128,259.666667 L513.0512,259.666667 L527.2784,205.378667 L526.1552,259.666667 L538.2296,259.666667 L538.2296,193.585067 L520.2584,193.585067 L507.6224,242.631467 L494.7056,193.585067 L476.7344,193.585067 L476.7344,259.666667 L488.8088,259.666667 Z M602.252,259.666667 L602.252,248.528267 L565.0928,248.528267 L565.0928,230.837867 L596.9168,230.837867 L596.9168,220.167467 L565.0928,220.167467 L565.0928,204.629867 L599.912,204.629867 L599.912,193.585067 L552.9248,193.585067 L552.9248,259.666667 L602.252,259.666667 Z M665.5256,261.351467 C685.8368,261.351467 697.256,245.533067 697.350026,226.625867 C697.4432,204.068267 682.0928,191.900267 665.7128,191.900267 C647.648,191.900267 633.9824,206.501867 633.9824,226.719467 C633.9824,235.049867 636.2288,243.661067 642.7808,251.242667 C649.52,259.011467 657.1952,261.351467 665.5256,261.351467 Z M665.9,249.932267 C654.9488,249.932267 646.712,241.040267 646.712,226.157867 C646.712,212.398667 654.2936,203.225867 665.6192,203.225867 C678.6296,203.225867 685.2752,215.113067 684.9944,228.029867 C684.7136,243.941867 674.1368,249.932267 665.9,249.932267 Z M738.5336,259.666667 L757.3472,193.585067 L744.524,193.585067 L730.2032,245.720267 L715.4144,193.585067 L702.404,193.585067 L721.8728,259.666667 L738.5336,259.666667 Z M814.8176,259.666667 L814.8176,248.528267 L777.6584,248.528267 L777.6584,230.837867 L809.4824,230.837867 L809.4824,220.167467 L777.6584,220.167467 L777.6584,204.629867 L812.4776,204.629867 L812.4776,193.585067 L765.4904,193.585067 L765.4904,259.666667 L814.8176,259.666667 Z M836.5328,259.666667 L836.5328,235.143467 L847.5776,235.143467 L860.6816,259.666667 L874.8152,259.666667 L860.12,232.803467 C863.864,231.680267 873.1304,227.281067 873.1304,214.645067 C873.1304,206.969867 869.948,201.728267 865.8296,198.358667 C860.0264,193.678667 854.1296,193.678667 845.3312,193.585067 L824.2712,193.585067 L824.2712,259.666667 L836.5328,259.666667 Z M841.264913,224.940737 L836.5328,224.941067 L836.5328,204.255467 L842.2424,204.255467 C849.5432,204.255467 852.7256,204.349067 855.3464,205.659467 C860.4944,208.280267 860.588,213.147467 860.588,214.551467 C860.588,224.192267 851.696,224.660267 848.9816,224.753867 C848.578152,224.770005 848.196963,224.786143 847.820763,224.801801 L847.370612,224.82033 L847.370612,224.82033 L846.91862,224.838214 C845.477393,224.893632 843.908706,224.93658 841.264913,224.940737 Z M896.8112,224.847467 L896.8112,212.024267 L884.456,212.024267 L884.456,224.847467 L896.8112,224.847467 Z M896.8112,259.666667 L896.8112,246.843467 L884.456,246.843467 L884.456,259.666667 L896.8112,259.666667 Z M955.2176,259.666667 L964.7648,213.709067 L974.0312,259.666667 L988.4456,259.666667 L1002.9536,193.585067 L990.224,193.585067 L980.9576,243.941867 L970.4744,193.585067 L958.9616,193.585067 L948.6656,243.941867 L939.68,193.585067 L927.044,193.585067 L940.8032,259.666667 L955.2176,259.666667 Z M1017.7424,259.666667 L1021.58,246.749867 L1046.384,246.749867 L1050.2216,259.666667 L1063.4192,259.666667 L1040.8616,193.585067 L1026.8216,193.585067 L1004.5448,259.666667 L1017.7424,259.666667 Z M1043.108,235.985867 L1024.856,235.985867 L1034.0288,205.565867 L1043.108,235.985867 Z M1095.4304,261.351467 C1109.4704,261.351467 1123.5104,255.267467 1123.5104,240.104267 C1123.5104,225.970667 1110.968,222.320267 1102.076,220.448267 L1095.2432,218.950667 C1095.04996,218.914434 1094.85653,218.878202 1094.66311,218.841819 L1094.08314,218.732067 L1094.08314,218.732067 L1093.21619,218.563762 L1093.21619,218.563762 L1092.64211,218.447789 C1087.58948,217.406705 1083.0752,215.889041 1083.0752,211.088267 C1083.0752,206.033867 1088.8784,203.038667 1095.524,203.038667 C1106.1008,203.038667 1110.4064,209.590667 1112.6528,212.866667 L1122.7616,205.285067 C1118.0816,198.920267 1110.4064,191.900267 1096.1792,191.900267 C1080.6416,191.900267 1070.0648,199.949867 1070.0648,212.492267 C1070.0648,223.443467 1078.208,227.468267 1081.2032,228.685067 C1083.2624,229.527467 1085.3216,229.995467 1089.5336,231.025067 L1097.4896,232.709867 C1103.48,234.113867 1103.6672,234.207467 1105.1648,234.769067 C1107.224,235.611467 1110.1256,237.109067 1110.1256,241.321067 C1110.1256,243.567467 1109.2832,246.937067 1104.5096,248.902667 C1102.1696,249.838667 1099.736,250.025867 1097.396,250.025867 C1083.4496,250.025867 1078.4888,242.444267 1076.8976,240.010667 L1066.508,247.311467 C1071.4688,255.361067 1079.2376,258.543467 1083.6368,259.853867 C1087.6616,260.977067 1091.78,261.351467 1095.4304,261.351467 Z M1171.9016,259.666667 L1171.9016,240.946667 L1182.6656,228.591467 L1200.2624,259.666667 L1214.396,259.666667 L1191.2768,218.482667 L1212.992,193.585067 L1198.3904,193.585067 L1171.9016,223.911467 L1171.9016,193.585067 L1159.64,193.585067 L1159.64,259.666667 L1171.9016,259.666667 Z M1250.6192,261.351467 C1270.9304,261.351467 1282.3496,245.533067 1282.44363,226.625867 C1282.5368,204.068267 1267.1864,191.900267 1250.8064,191.900267 C1232.7416,191.900267 1219.076,206.501867 1219.076,226.719467 C1219.076,235.049867 1221.3224,243.661067 1227.8744,251.242667 C1234.6136,259.011467 1242.2888,261.351467 1250.6192,261.351467 Z M1250.9936,249.932267 C1240.0424,249.932267 1231.8056,241.040267 1231.8056,226.157867 C1231.8056,212.398667 1239.3872,203.225867 1250.7128,203.225867 C1263.7232,203.225867 1270.3688,215.113067 1270.088,228.029867 C1269.8072,243.941867 1259.2304,249.932267 1250.9936,249.932267 Z M1305.9368,259.666667 L1304.72,205.378667 L1319.0408,259.666667 L1330.1792,259.666667 L1344.4064,205.378667 L1343.2832,259.666667 L1355.3576,259.666667 L1355.3576,193.585067 L1337.3864,193.585067 L1324.7504,242.631467 L1311.8336,193.585067 L1293.8624,193.585067 L1293.8624,259.666667 L1305.9368,259.666667 Z M1381.94,259.666667 L1380.7232,205.378667 L1395.044,259.666667 L1406.1824,259.666667 L1420.4096,205.378667 L1419.2864,259.666667 L1431.3608,259.666667 L1431.3608,193.585067 L1413.3896,193.585067 L1400.7536,242.631467 L1387.8368,193.585067 L1369.8656,193.585067 L1369.8656,259.666667 L1381.94,259.666667 Z M1471.1408,259.666667 L1471.1408,204.817067 L1489.3928,204.817067 L1489.3928,193.585067 L1440.908,193.585067 L1440.908,204.817067 L1458.7856,204.817067 L1458.7856,259.666667 L1471.1408,259.666667 Z M1536.4736,259.666667 L1535.7248,213.334667 L1564.6472,259.666667 L1575.4112,259.666667 L1575.4112,193.585067 L1563.2432,193.585067 L1564.7408,240.291467 L1535.5376,193.585067 L1524.3992,193.585067 L1524.3992,259.666667 L1536.4736,259.666667 Z M1596.8456,259.666667 L1600.6832,246.749867 L1625.4872,246.749867 L1629.3248,259.666667 L1642.5224,259.666667 L1619.9648,193.585067 L1605.9248,193.585067 L1583.648,259.666667 L1596.8456,259.666667 Z M1622.2112,235.985867 L1603.9592,235.985867 L1613.132,205.565867 L1622.2112,235.985867 Z M1677.8096,261.351467 C1688.5736,261.351467 1695.968,256.577867 1700.648,251.149067 C1703.924,247.217867 1705.5152,243.380267 1706.3576,241.227467 L1694.7512,236.360267 C1694.2832,237.857867 1693.4408,240.291467 1691.288,243.193067 C1688.5736,246.656267 1684.8296,249.651467 1678.652,249.651467 C1668.2624,249.651467 1660.3064,241.321067 1660.3064,226.251467 C1660.3064,212.117867 1667.7944,203.225867 1678.5584,203.225867 C1685.3912,203.225867 1689.0416,206.969867 1690.4456,209.029067 C1692.1304,211.556267 1692.692,214.364267 1692.8792,215.581067 L1705.2344,212.305067 C1703.7368,207.718667 1698.8696,191.900267 1678.2776,191.900267 C1661.4296,191.900267 1646.9216,203.974667 1646.9216,226.438667 C1646.9216,248.528267 1660.3064,261.351467 1677.8096,261.351467 Z M1727.792,259.666667 L1727.792,229.621067 L1756.1528,229.621067 L1756.1528,259.666667 L1768.6016,259.666667 L1768.6016,193.585067 L1756.1528,193.585067 L1756.1528,218.576267 L1727.792,218.576267 L1727.792,193.585067 L1715.4368,193.585067 L1715.4368,259.666667 L1727.792,259.666667 Z M1816.6184,259.666667 L1831.688,235.237067 L1847.132,259.666667 L1861.2656,259.666667 L1838.8952,223.817867 L1857.5216,193.585067 L1843.1072,193.585067 L1831.688,212.492267 L1819.7072,193.585067 L1805.48,193.585067 L1824.4808,223.817867 L1802.2976,259.666667 L1816.6184,259.666667 Z M1897.1144,259.666667 L1897.1144,233.552267 L1919.3912,193.585067 L1905.632,193.585067 L1891.124,221.009867 L1876.8032,193.585067 L1862.8568,193.585067 L1884.9464,233.552267 L1884.9464,259.666667 L1897.1144,259.666667 Z M1974.2408,259.666667 L1974.2408,248.528267 L1939.5152,248.528267 L1974.2408,204.161867 L1974.2408,193.585067 L1925.756,193.585067 L1925.756,204.723467 L1958.7968,204.723467 L1922.6672,249.557867 L1922.6672,259.666667 L1974.2408,259.666667 Z M2010.3704,242.725067 C2010.29017,242.163467 2010.27871,241.601867 2010.27707,240.627663 L2010.27727,239.537652 C2010.28591,236.100082 2010.4544,233.684267 2013.74,230.931467 C2015.4248,229.433867 2017.484,228.217067 2019.356,226.813067 C2022.2576,224.660267 2026.9376,220.167467 2026.9376,211.930667 C2026.9376,201.166667 2018.7008,192.461867 2004.6608,192.461867 C1995.2072,192.461867 1983.0392,196.954667 1981.916,214.083467 L1993.2416,215.393867 C1993.616,207.905867 1997.36,203.132267 2004.0992,203.132267 C2009.996,203.132267 2014.1144,207.344267 2014.1144,212.211467 C2014.1144,216.517067 2011.0256,219.137867 2009.7152,220.167467 C2008.124,221.290667 2006.4392,222.226667 2004.9416,223.443467 C2001.1976,226.532267 1999.4192,228.872267 1999.4192,242.725067 L2010.3704,242.725067 Z M2011.2128,259.666667 L2011.2128,246.843467 L1998.764,246.843467 L1998.764,259.666667 L2011.2128,259.666667 Z" id="NAMEOVER:WASKOMMTNACHXYZ?" stroke="#000000" stroke-width="1.25" fill-opacity="0" fill="#000000" fill-rule="nonzero"></path>
                <path d="M430.1832,557 L439.7304,511.0424 L448.9968,557 L463.4112,557 L477.9192,490.9184 L465.1896,490.9184 L455.9232,541.2752 L445.44,490.9184 L433.9272,490.9184 L423.6312,541.2752 L414.6456,490.9184 L402.0096,490.9184 L415.7688,557 L430.1832,557 Z M492.708,557 L496.5456,544.0832 L521.3496,544.0832 L525.1872,557 L538.3848,557 L515.8272,490.9184 L501.7872,490.9184 L479.5104,557 L492.708,557 Z M518.0736,533.3192 L499.8216,533.3192 L508.9944,502.8992 L518.0736,533.3192 Z M570.396,558.6848 C584.436,558.6848 598.476,552.6008 598.476,537.4376 C598.476,523.304 585.9336,519.6536 577.0416,517.7816 L570.2088,516.284 C570.015561,516.247768 569.822128,516.211535 569.628713,516.175152 L569.048739,516.0654 C563.447004,514.99717 558.0408,513.675277 558.0408,508.4216 C558.0408,503.3672 563.844,500.372 570.4896,500.372 C581.0664,500.372 585.372,506.924 587.6184,510.2 L597.7272,502.6184 C593.0472,496.2536 585.372,489.2336 571.1448,489.2336 C555.6072,489.2336 545.0304,497.2832 545.0304,509.8256 C545.0304,520.7768 553.1736,524.8016 556.1688,526.0184 C558.228,526.8608 560.2872,527.3288 564.4992,528.3584 L572.4552,530.0432 C576.888096,531.08216 578.14316,531.403545 579.102992,531.728005 L579.256508,531.780761 C579.534879,531.877947 579.800928,531.978848 580.1304,532.1024 C582.1896,532.9448 585.0912,534.4424 585.0912,538.6544 C585.0912,540.9008 584.2488,544.2704 579.4752,546.236 C577.1352,547.172 574.7016,547.3592 572.3616,547.3592 C558.4152,547.3592 553.4544,539.7776 551.8632,537.344 L541.4736,544.6448 C546.4344,552.6944 554.2032,555.8768 558.6024,557.1872 C562.6272,558.3104 566.7456,558.6848 570.396,558.6848 Z M658.1928,558.6848 C672.2328,558.6848 686.2728,552.6008 686.2728,537.4376 C686.2728,523.304 673.7304,519.6536 664.8384,517.7816 L658.0056,516.284 C657.812361,516.247768 657.618928,516.211535 657.425513,516.175152 L656.845539,516.0654 C651.243804,514.99717 645.8376,513.675277 645.8376,508.4216 C645.8376,503.3672 651.6408,500.372 658.2864,500.372 C668.8632,500.372 673.1688,506.924 675.4152,510.2 L685.524,502.6184 C680.844,496.2536 673.1688,489.2336 658.9416,489.2336 C643.404,489.2336 632.8272,497.2832 632.8272,509.8256 C632.8272,520.7768 640.9704,524.8016 643.9656,526.0184 C646.0248,526.8608 648.084,527.3288 652.296,528.3584 L660.252,530.0432 C665.283936,531.22256 666.221134,531.477302 667.279853,531.86149 L667.432381,531.917369 C667.586646,531.974355 667.747488,532.035008 667.9272,532.1024 C669.9864,532.9448 672.888,534.4424 672.888,538.6544 C672.888,540.9008 672.0456,544.2704 667.272,546.236 C664.932,547.172 662.4984,547.3592 660.1584,547.3592 C646.212,547.3592 641.2512,539.7776 639.66,537.344 L629.2704,544.6448 C634.2312,552.6944 642,555.8768 646.3992,557.1872 C650.424,558.3104 654.5424,558.6848 658.1928,558.6848 Z M709.2048,557 L709.2048,490.9184 L697.0368,490.9184 L697.0368,557 L709.2048,557 Z M736.6296,557 L735.8808,510.668 L764.8032,557 L775.5672,557 L775.5672,490.9184 L763.3992,490.9184 L764.8968,537.6248 L735.6936,490.9184 L724.5552,490.9184 L724.5552,557 L736.6296,557 Z M810.948,557 C818.7168,556.9064 825.6432,556.8128 832.1952,552.9752 C841.9296,547.3592 845.7672,535.8464 845.7672,524.5208 C845.7672,517.1264 844.0824,503.8352 833.0376,496.0664 C826.1112,491.1056 819.1848,491.012 813.4752,490.9184 L789.7944,490.9184 L789.7944,557 L810.948,557 Z M807.88684,545.861152 L802.1496,545.8616 L802.1496,502.1504 L808.7016,502.1504 C817.032,502.244 818.9976,502.3376 822.5544,503.9288 C831.7272,508.328 832.6632,518.4368 832.6632,524.6144 C832.6632,538.3736 827.6088,542.492 822.8352,544.364 C820.077343,545.375214 816.868051,545.844707 807.88684,545.861152 L807.88684,545.861152 Z M902.5824,557 C910.3512,556.9064 917.2776,556.8128 923.8296,552.9752 C933.564,547.3592 937.4016,535.8464 937.4016,524.5208 C937.4016,517.1264 935.7168,503.8352 924.672,496.0664 C917.7456,491.1056 910.8192,491.012 905.1096,490.9184 L881.4288,490.9184 L881.4288,557 L902.5824,557 Z M899.52124,545.861152 L893.784,545.8616 L893.784,502.1504 L900.336,502.1504 C908.6664,502.244 910.632,502.3376 914.1888,503.9288 C923.3616,508.328 924.2976,518.4368 924.2976,524.6144 C924.2976,538.3736 919.2432,542.492 914.4696,544.364 C911.711743,545.375214 908.502451,545.844707 899.52124,545.861152 L899.52124,545.861152 Z M960.708,557 L960.708,490.9184 L948.54,490.9184 L948.54,557 L960.708,557 Z M1025.0112,557 L1025.0112,545.8616 L987.852,545.8616 L987.852,528.1712 L1019.676,528.1712 L1019.676,517.5008 L987.852,517.5008 L987.852,501.9632 L1022.6712,501.9632 L1022.6712,490.9184 L975.684,490.9184 L975.684,557 L1025.0112,557 Z M1071.9048,557 L1071.9048,490.9184 L1059.7368,490.9184 L1059.7368,557 L1071.9048,557 Z M1107.3792,557 C1115.148,556.9064 1122.0744,556.8128 1128.6264,552.9752 C1138.3608,547.3592 1142.1984,535.8464 1142.1984,524.5208 C1142.1984,517.1264 1140.5136,503.8352 1129.4688,496.0664 C1122.5424,491.1056 1115.616,491.012 1109.9064,490.9184 L1086.2256,490.9184 L1086.2256,557 L1107.3792,557 Z M1104.31804,545.861152 L1098.5808,545.8616 L1098.5808,502.1504 L1105.1328,502.1504 C1113.4632,502.244 1115.4288,502.3376 1118.9856,503.9288 C1128.1584,508.328 1129.0944,518.4368 1129.0944,524.6144 C1129.0944,538.3736 1124.04,542.492 1119.2664,544.364 C1119.16611,544.400771 1119.06523,544.436827 1118.9635,544.47217 L1118.65548,544.576067 C1116.01121,545.441108 1112.64607,545.845903 1104.31804,545.861152 L1104.31804,545.861152 Z M1181.8848,558.6848 C1202.196,558.6848 1213.6152,542.8664 1213.70923,523.9592 C1213.8024,501.4016 1198.452,489.2336 1182.072,489.2336 C1164.0072,489.2336 1150.3416,503.8352 1150.3416,524.0528 C1150.3416,532.3832 1152.588,540.9944 1159.14,548.576 C1165.8792,556.3448 1173.5544,558.6848 1181.8848,558.6848 Z M1182.2592,547.2656 C1171.308,547.2656 1163.0712,538.3736 1163.0712,523.4912 C1163.0712,509.732 1170.6528,500.5592 1181.9784,500.5592 C1194.9888,500.5592 1201.6344,512.4464 1201.3536,525.3632 C1201.0728,541.2752 1190.496,547.2656 1182.2592,547.2656 Z M1264.3464,557 L1264.3464,545.768 L1238.1384,545.768 L1238.1384,490.8248 L1225.6896,490.8248 L1225.6896,557 L1264.3464,557 Z M1323.408,557 L1323.408,545.8616 L1286.2488,545.8616 L1286.2488,528.1712 L1318.0728,528.1712 L1318.0728,517.5008 L1286.2488,517.5008 L1286.2488,501.9632 L1321.068,501.9632 L1321.068,490.9184 L1274.0808,490.9184 L1274.0808,557 L1323.408,557 Z M1387.524,557 L1406.3376,490.9184 L1393.5144,490.9184 L1379.1936,543.0536 L1364.4048,490.9184 L1351.3944,490.9184 L1370.8632,557 L1387.524,557 Z M1443.216,558.6848 C1463.5272,558.6848 1474.9464,542.8664 1475.04043,523.9592 C1475.1336,501.4016 1459.7832,489.2336 1443.4032,489.2336 C1425.3384,489.2336 1411.6728,503.8352 1411.6728,524.0528 C1411.6728,532.3832 1413.9192,540.9944 1420.4712,548.576 C1427.2104,556.3448 1434.8856,558.6848 1443.216,558.6848 Z M1443.5904,547.2656 C1432.6392,547.2656 1424.4024,538.3736 1424.4024,523.4912 C1424.4024,509.732 1431.984,500.5592 1443.3096,500.5592 C1456.32,500.5592 1462.9656,512.4464 1462.6848,525.3632 C1462.404,541.2752 1451.8272,547.2656 1443.5904,547.2656 Z M1499.0952,557 L1498.3464,510.668 L1527.2688,557 L1538.0328,557 L1538.0328,490.9184 L1525.8648,490.9184 L1527.3624,537.6248 L1498.1592,490.9184 L1487.0208,490.9184 L1487.0208,557 L1499.0952,557 Z M1590.9168,557 L1590.9168,526.9544 L1619.2776,526.9544 L1619.2776,557 L1631.7264,557 L1631.7264,490.9184 L1619.2776,490.9184 L1619.2776,515.9096 L1590.9168,515.9096 L1590.9168,490.9184 L1578.5616,490.9184 L1578.5616,557 L1590.9168,557 Z M1695.8424,557 L1695.8424,545.8616 L1658.6832,545.8616 L1658.6832,528.1712 L1690.5072,528.1712 L1690.5072,517.5008 L1658.6832,517.5008 L1658.6832,501.9632 L1693.5024,501.9632 L1693.5024,490.9184 L1646.5152,490.9184 L1646.5152,557 L1695.8424,557 Z M1751.3472,552.2264 C1758.3672,546.236 1758.3672,540.0584 1758.4608,532.5704 L1758.4608,490.9184 L1746.012,490.9184 L1746.01166,531.627754 C1746.00446,536.747397 1745.84607,540.300909 1742.3616,543.428 C1738.88503,546.458857 1734.21989,546.688082 1732.08551,546.70304 L1731.7848,546.704 C1727.8536,546.704 1720.9272,545.9552 1718.4,539.5904 C1717.464,537.0632 1717.5576,534.3488 1717.5576,531.5408 L1717.5576,490.9184 L1705.2024,490.9184 L1705.2024,530.324 C1705.2804,537.188 1705.2934,539.762 1705.78307,542.1085 L1705.85123,542.420375 C1705.93416,542.783489 1706.0292,543.145467 1706.1384,543.5216 C1707.636,548.4824 1711.848,554.192 1719.7104,556.9064 C1723.4544,558.2168 1727.3856,558.6848 1731.4104,558.6848 C1735.9032,558.6848 1744.608,558.1232 1751.3472,552.2264 Z M1798.3344,557 L1798.3344,502.1504 L1816.5864,502.1504 L1816.5864,490.9184 L1768.1016,490.9184 L1768.1016,502.1504 L1785.9792,502.1504 L1785.9792,557 L1798.3344,557 Z M1875.18,557 L1875.18,545.8616 L1838.0208,545.8616 L1838.0208,528.1712 L1869.8448,528.1712 L1869.8448,517.5008 L1838.0208,517.5008 L1838.0208,501.9632 L1872.84,501.9632 L1872.84,490.9184 L1825.8528,490.9184 L1825.8528,557 L1875.18,557 Z M1910.4672,540.0584 C1910.38697,539.4968 1910.37551,538.9352 1910.37387,537.960996 L1910.37407,536.870985 C1910.38271,533.433415 1910.5512,531.0176 1913.8368,528.2648 C1915.5216,526.7672 1917.5808,525.5504 1919.4528,524.1464 C1922.3544,521.9936 1927.0344,517.5008 1927.0344,509.264 C1927.0344,498.5 1918.7976,489.7952 1904.7576,489.7952 C1895.304,489.7952 1883.136,494.288 1882.0128,511.4168 L1893.3384,512.7272 C1893.7128,505.2392 1897.4568,500.4656 1904.196,500.4656 C1910.0928,500.4656 1914.2112,504.6776 1914.2112,509.5448 C1914.2112,513.8504 1911.1224,516.4712 1909.812,517.5008 C1908.2208,518.624 1906.536,519.56 1905.0384,520.7768 C1901.2944,523.8656 1899.516,526.2056 1899.516,540.0584 L1910.4672,540.0584 Z M1911.3096,557 L1911.3096,544.1768 L1898.8608,544.1768 L1898.8608,557 L1911.3096,557 Z M2011.6488,557 L2011.6488,545.8616 L1974.4896,545.8616 L1974.4896,528.1712 L2006.3136,528.1712 L2006.3136,517.5008 L1974.4896,517.5008 L1974.4896,501.9632 L2009.3088,501.9632 L2009.3088,490.9184 L1962.3216,490.9184 L1962.3216,557 L2011.6488,557 Z M2033.1768,557 L2033.1768,490.9184 L2021.0088,490.9184 L2021.0088,557 L2033.1768,557 Z M2060.6016,557 L2059.8528,510.668 L2088.7752,557 L2099.5392,557 L2099.5392,490.9184 L2087.3712,490.9184 L2088.8688,537.6248 L2059.6656,490.9184 L2048.5272,490.9184 L2048.5272,557 L2060.6016,557 Z M2163.7488,557 L2163.7488,545.8616 L2126.5896,545.8616 L2126.5896,528.1712 L2158.4136,528.1712 L2158.4136,517.5008 L2126.5896,517.5008 L2126.5896,501.9632 L2161.4088,501.9632 L2161.4088,490.9184 L2114.4216,490.9184 L2114.4216,557 L2163.7488,557 Z M2226.4608,558.6848 C2231.9832,558.6848 2238.6288,557.1872 2244.5256,551.384 L2244.5256,557 L2255.1024,557 L2255.1024,520.8704 L2227.3032,520.8704 L2227.3032,531.728 L2243.7768,531.728 C2242.6536,543.428 2234.4168,547.0784 2227.4904,547.0784 C2216.7264,547.0784 2208.7704,538.748 2208.7704,524.24 C2208.7704,511.2296 2214.8544,500.372 2227.3032,500.372 C2238.5352,500.372 2242.092,509.8256 2243.3088,513.476 L2255.1024,508.7024 C2251.0776,497.6576 2240.9688,489.2336 2227.2096,489.2336 C2209.0512,489.2336 2195.292,503.8352 2195.292,524.6144 C2195.292,542.3984 2206.056,558.6848 2226.4608,558.6848 Z M2307.5184,557 L2307.5184,545.768 L2281.3104,545.768 L2281.3104,490.8248 L2268.8616,490.8248 L2268.8616,557 L2307.5184,557 Z M2345.988,558.6848 C2366.2992,558.6848 2377.7184,542.8664 2377.81243,523.9592 C2377.9056,501.4016 2362.5552,489.2336 2346.1752,489.2336 C2328.1104,489.2336 2314.4448,503.8352 2314.4448,524.0528 C2314.4448,532.3832 2316.6912,540.9944 2323.2432,548.576 C2329.9824,556.3448 2337.6576,558.6848 2345.988,558.6848 Z M2346.3624,547.2656 C2335.4112,547.2656 2327.1744,538.3736 2327.1744,523.4912 C2327.1744,509.732 2334.756,500.5592 2346.0816,500.5592 C2359.092,500.5592 2365.7376,512.4464 2365.4568,525.3632 C2365.176,541.2752 2354.5992,547.2656 2346.3624,547.2656 Z M2413.1928,558.6848 C2427.2328,558.6848 2441.2728,552.6008 2441.2728,537.4376 C2441.2728,523.304 2428.7304,519.6536 2419.8384,517.7816 L2413.0056,516.284 C2412.81236,516.247768 2412.61893,516.211535 2412.42551,516.175152 L2411.84554,516.0654 C2406.2438,514.99717 2400.8376,513.675277 2400.8376,508.4216 C2400.8376,503.3672 2406.6408,500.372 2413.2864,500.372 C2423.8632,500.372 2428.1688,506.924 2430.4152,510.2 L2440.524,502.6184 C2435.844,496.2536 2428.1688,489.2336 2413.9416,489.2336 C2398.404,489.2336 2387.8272,497.2832 2387.8272,509.8256 C2387.8272,520.7768 2395.9704,524.8016 2398.9656,526.0184 C2401.0248,526.8608 2403.084,527.3288 2407.296,528.3584 L2415.252,530.0432 C2420.28394,531.22256 2421.22113,531.477302 2422.27985,531.86149 L2422.43238,531.917369 C2422.58665,531.974355 2422.74749,532.035008 2422.9272,532.1024 C2424.9864,532.9448 2427.888,534.4424 2427.888,538.6544 C2427.888,540.9008 2427.0456,544.2704 2422.272,546.236 C2419.932,547.172 2417.4984,547.3592 2415.1584,547.3592 C2401.212,547.3592 2396.2512,539.7776 2394.66,537.344 L2384.2704,544.6448 C2389.2312,552.6944 2397,555.8768 2401.3992,557.1872 C2405.424,558.3104 2409.5424,558.6848 2413.1928,558.6848 Z M2475.624,558.6848 C2489.664,558.6848 2503.704,552.6008 2503.704,537.4376 C2503.704,523.304 2491.1616,519.6536 2482.2696,517.7816 L2475.4368,516.284 C2475.24356,516.247768 2475.05013,516.211535 2474.85671,516.175152 L2474.27674,516.0654 C2468.675,514.99717 2463.2688,513.675277 2463.2688,508.4216 C2463.2688,503.3672 2469.072,500.372 2475.7176,500.372 C2486.2944,500.372 2490.6,506.924 2492.8464,510.2 L2502.9552,502.6184 C2498.2752,496.2536 2490.6,489.2336 2476.3728,489.2336 C2460.8352,489.2336 2450.2584,497.2832 2450.2584,509.8256 C2450.2584,520.7768 2458.4016,524.8016 2461.3968,526.0184 C2463.456,526.8608 2465.5152,527.3288 2469.7272,528.3584 L2477.6832,530.0432 C2482.1161,531.08216 2483.37116,531.403545 2484.33099,531.728005 L2484.48451,531.780761 C2484.76288,531.877947 2485.02893,531.978848 2485.3584,532.1024 C2487.4176,532.9448 2490.3192,534.4424 2490.3192,538.6544 C2490.3192,540.9008 2489.4768,544.2704 2484.7032,546.236 C2482.3632,547.172 2479.9296,547.3592 2477.5896,547.3592 C2463.6432,547.3592 2458.6824,539.7776 2457.0912,537.344 L2446.7016,544.6448 C2451.6624,552.6944 2459.4312,555.8768 2463.8304,557.1872 C2467.8552,558.3104 2471.9736,558.6848 2475.624,558.6848 Z M2563.608,557 L2563.608,545.8616 L2526.4488,545.8616 L2526.4488,528.1712 L2558.2728,528.1712 L2558.2728,517.5008 L2526.4488,517.5008 L2526.4488,501.9632 L2561.268,501.9632 L2561.268,490.9184 L2514.2808,490.9184 L2514.2808,557 L2563.608,557 Z" id="WASSINDDIEIDOLEVONHEUTE?EINEGLOSSE" stroke="#000000" stroke-width="1.25" fill-opacity="0" fill="#000000" fill-rule="nonzero"></path>
                <line x1="416.8864" y1="450.5" x2="1856.36953" y2="450.5" id="Line-2-Copy-2" stroke="#000000" stroke-width="3.6" stroke-linecap="square"></line>
                <line x1="416.8864" y1="600.5" x2="1856.36953" y2="600.5" id="Line-2-Copy-6" stroke="#000000" stroke-width="3.6" stroke-linecap="square"></line>
                <line x1="416.8864" y1="301" x2="1856.36953" y2="301" id="Line-2-Copy-5" stroke="#000000" stroke-width="3.6" stroke-linecap="square"></line>
                <line x1="416.8864" y1="151.5" x2="1856.36953" y2="151.5" id="Line-2-Copy-9" stroke="#000000" stroke-width="3.6" stroke-linecap="square"></line>
                <path d="M558.3608,112.6848 C563.8832,112.6848 570.5288,111.1872 576.4256,105.384 L576.4256,111 L587.0024,111 L587.0024,74.8704 L559.2032,74.8704 L559.2032,85.728 L575.6768,85.728 C574.5536,97.428 566.3168,101.0784 559.3904,101.0784 C548.6264,101.0784 540.6704,92.748 540.6704,78.24 C540.6704,65.2296 546.7544,54.372 559.2032,54.372 C570.4352,54.372 573.992,63.8256 575.2088,67.476 L587.0024,62.7024 C582.9776,51.6576 572.8688,43.2336 559.1096,43.2336 C540.9512,43.2336 527.192,57.8352 527.192,78.6144 C527.192,96.3984 537.956,112.6848 558.3608,112.6848 Z M649.7144,111 L649.7144,99.8616 L612.5552,99.8616 L612.5552,82.1712 L644.3792,82.1712 L644.3792,71.5008 L612.5552,71.5008 L612.5552,55.9632 L647.3744,55.9632 L647.3744,44.9184 L600.3872,44.9184 L600.3872,111 L649.7144,111 Z M671.336,111 L670.5872,64.668 L699.5096,111 L710.2736,111 L710.2736,44.9184 L698.1056,44.9184 L699.6032,91.6248 L670.4,44.9184 L659.2616,44.9184 L659.2616,111 L671.336,111 Z M774.4832,111 L774.4832,99.8616 L737.324,99.8616 L737.324,82.1712 L769.148,82.1712 L769.148,71.5008 L737.324,71.5008 L737.324,55.9632 L772.1432,55.9632 L772.1432,44.9184 L725.156,44.9184 L725.156,111 L774.4832,111 Z M796.1984,111 L796.1984,86.4768 L807.2432,86.4768 L820.3472,111 L834.4808,111 L819.7856,84.1368 C823.5296,83.0136 832.796,78.6144 832.796,65.9784 C832.796,58.3032 829.6136,53.0616 825.4952,49.692 C819.692,45.012 813.7952,45.012 804.9968,44.9184 L783.9368,44.9184 L783.9368,111 L796.1984,111 Z M800.930513,76.2740699 L796.1984,76.2744 L796.1984,55.5888 L801.908,55.5888 C809.2088,55.5888 812.3912,55.6824 815.012,56.9928 C820.16,59.6136 820.2536,64.4808 820.2536,65.8848 C820.2536,75.5256 811.3616,75.9936 808.6472,76.0872 C808.243752,76.1033379 807.862563,76.1194759 807.486363,76.1351341 L806.810861,76.1626971 C805.30514,76.2223365 803.713453,76.2696949 800.930513,76.2740699 Z M850.6736,111 L854.5112,98.0832 L879.3152,98.0832 L883.1528,111 L896.3504,111 L873.7928,44.9184 L859.7528,44.9184 L837.476,111 L850.6736,111 Z M876.0392,87.3192 L857.7872,87.3192 L866.96,56.8992 L876.0392,87.3192 Z M929.672,111 L929.672,56.1504 L947.924,56.1504 L947.924,44.9184 L899.4392,44.9184 L899.4392,56.1504 L917.3168,56.1504 L917.3168,111 L929.672,111 Z M969.5456,111 L969.5456,44.9184 L957.3776,44.9184 L957.3776,111 L969.5456,111 Z M1013.2568,112.6848 C1033.568,112.6848 1044.9872,96.8664 1045.08123,77.9592 C1045.1744,55.4016 1029.824,43.2336 1013.444,43.2336 C995.3792,43.2336 981.7136,57.8352 981.7136,78.0528 C981.7136,86.3832 983.96,94.9944 990.512,102.576 C997.2512,110.3448 1004.9264,112.6848 1013.2568,112.6848 Z M1013.6312,101.2656 C1002.68,101.2656 994.4432,92.3736 994.4432,77.4912 C994.4432,63.732 1002.0248,54.5592 1013.3504,54.5592 C1026.3608,54.5592 1033.0064,66.4464 1032.7256,79.3632 C1032.4448,95.2752 1021.868,101.2656 1013.6312,101.2656 Z M1069.136,111 L1068.3872,64.668 L1097.3096,111 L1108.0736,111 L1108.0736,44.9184 L1095.9056,44.9184 L1097.4032,91.6248 L1068.2,44.9184 L1057.0616,44.9184 L1057.0616,111 L1069.136,111 Z M1172.2832,111 L1172.2832,99.8616 L1135.124,99.8616 L1135.124,82.1712 L1166.948,82.1712 L1166.948,71.5008 L1135.124,71.5008 L1135.124,55.9632 L1169.9432,55.9632 L1169.9432,44.9184 L1122.956,44.9184 L1122.956,111 L1172.2832,111 Z M1193.9048,111 L1193.156,64.668 L1222.0784,111 L1232.8424,111 L1232.8424,44.9184 L1220.6744,44.9184 L1222.172,91.6248 L1192.9688,44.9184 L1181.8304,44.9184 L1181.8304,111 L1193.9048,111 Z M1301.264,112.6848 C1306.7864,112.6848 1313.432,111.1872 1319.3288,105.384 L1319.3288,111 L1329.9056,111 L1329.9056,74.8704 L1302.1064,74.8704 L1302.1064,85.728 L1318.58,85.728 C1317.4568,97.428 1309.22,101.0784 1302.2936,101.0784 C1291.5296,101.0784 1283.5736,92.748 1283.5736,78.24 C1283.5736,65.2296 1289.6576,54.372 1302.1064,54.372 C1313.3384,54.372 1316.8952,63.8256 1318.112,67.476 L1329.9056,62.7024 C1325.8808,51.6576 1315.772,43.2336 1302.0128,43.2336 C1283.8544,43.2336 1270.0952,57.8352 1270.0952,78.6144 C1270.0952,96.3984 1280.8592,112.6848 1301.264,112.6848 Z M1355.6456,111 L1355.6456,44.9184 L1343.4776,44.9184 L1343.4776,111 L1355.6456,111 Z M1411.712,109.4088 C1419.668,106.6008 1423.5056,99.8616 1423.5056,92.28 C1423.5056,82.0776 1416.6728,76.1808 1409.372,74.8704 C1412.9288,74.2152 1415.5496,72.8112 1417.6088,70.0968 C1419.4808,67.5696 1420.4168,64.0128 1420.4168,61.1112 C1420.4168,53.904 1415.456,48.0072 1408.8104,46.0416 C1405.628,45.1056 1403.288,45.012 1394.4896,44.9184 L1370.9024,44.9184 L1370.9024,111 L1397.75402,110.999261 C1404.53077,110.988256 1407.69591,110.836744 1411.712,109.4088 Z M1389.09746,71.5003077 L1383.164,71.5008 L1383.164,55.0272 L1390.9328,55.0272 C1399.9184,55.1208 1401.2288,55.2144 1403.8496,56.712 C1406.3768,58.2096 1407.6872,60.7368 1407.6872,63.264 C1407.6872,66.2592 1405.9088,68.7864 1403.288,70.0968 C1401.0416,71.3136 1397.9528,71.4072 1394.864,71.4072 C1393.62685,71.4845217 1391.68709,71.497969 1389.09746,71.5003077 Z M1396.58994,100.329115 L1383.164,100.3296 L1383.164,80.7672 L1395.4256,80.8608 C1399.6376,80.8608 1406.564,80.8608 1409.5592,86.196 C1410.4952,87.8808 1410.776,89.6592 1410.776,91.1568 C1410.776,94.3392 1409.4656,96.8664 1407.7808,98.0832 C1404.78934,100.194816 1402.87305,100.321513 1396.58994,100.329115 L1396.58994,100.329115 Z M1460.1032,111 L1460.1032,56.1504 L1478.3552,56.1504 L1478.3552,44.9184 L1429.8704,44.9184 L1429.8704,56.1504 L1447.748,56.1504 L1447.748,111 L1460.1032,111 Z M1484.72,70.6584 C1487.06,70.4712 1491.272,70.0032 1494.2672,66.2592 C1496.12935,63.9536842 1496.22736,61.984195 1496.23251,57.3264931 L1496.2328,44.9184 L1484.0648,44.9184 L1484.0648,57.9288 L1489.7744,57.9288 C1489.7744,61.5792 1489.7744,64.2 1484.72,65.6976 L1484.72,70.6584 Z M1530.8648,112.6848 C1544.9048,112.6848 1558.9448,106.6008 1558.9448,91.4376 C1558.9448,77.304 1546.4024,73.6536 1537.5104,71.7816 L1530.6776,70.284 C1530.48436,70.2477677 1530.29093,70.2115355 1530.09751,70.1751524 L1529.51754,70.0654 C1523.9158,68.9971704 1518.5096,67.6752774 1518.5096,62.4216 C1518.5096,57.3672 1524.3128,54.372 1530.9584,54.372 C1541.5352,54.372 1545.8408,60.924 1548.0872,64.2 L1558.196,56.6184 C1553.516,50.2536 1545.8408,43.2336 1531.6136,43.2336 C1516.076,43.2336 1505.4992,51.2832 1505.4992,63.8256 C1505.4992,74.7768 1513.6424,78.8016 1516.6376,80.0184 C1518.6968,80.8608 1520.756,81.3288 1524.968,82.3584 L1532.924,84.0432 C1537.95594,85.22256 1538.89313,85.4773018 1539.95185,85.8614901 L1540.10438,85.9173685 C1540.25865,85.9743552 1540.41949,86.035008 1540.5992,86.1024 C1542.6584,86.9448 1545.56,88.4424 1545.56,92.6544 C1545.56,94.9008 1544.7176,98.2704 1539.944,100.236 C1537.604,101.172 1535.1704,101.3592 1532.8304,101.3592 C1518.884,101.3592 1513.9232,93.7776 1512.332,91.344 L1501.9424,98.6448 C1506.9032,106.6944 1514.672,109.8768 1519.0712,111.1872 C1523.096,112.3104 1527.2144,112.6848 1530.8648,112.6848 Z M1607.336,111 L1606.5872,64.668 L1635.5096,111 L1646.2736,111 L1646.2736,44.9184 L1634.1056,44.9184 L1635.6032,91.6248 L1606.4,44.9184 L1595.2616,44.9184 L1595.2616,111 L1607.336,111 Z M1673.5112,111 L1673.5112,44.9184 L1661.3432,44.9184 L1661.3432,111 L1673.5112,111 Z M1715.5376,112.6848 C1726.3016,112.6848 1733.696,107.9112 1738.376,102.4824 C1741.652,98.5512 1743.2432,94.7136 1744.0856,92.5608 L1732.4792,87.6936 C1732.0112,89.1912 1731.1688,91.6248 1729.016,94.5264 C1726.3016,97.9896 1722.5576,100.9848 1716.38,100.9848 C1705.9904,100.9848 1698.0344,92.6544 1698.0344,77.5848 C1698.0344,63.4512 1705.5224,54.5592 1716.2864,54.5592 C1723.1192,54.5592 1726.7696,58.3032 1728.1736,60.3624 C1729.8584,62.8896 1730.42,65.6976 1730.6072,66.9144 L1742.9624,63.6384 C1741.4648,59.052 1736.5976,43.2336 1716.0056,43.2336 C1699.1576,43.2336 1684.6496,55.308 1684.6496,77.772 C1684.6496,99.8616 1698.0344,112.6848 1715.5376,112.6848 Z M1765.52,111 L1765.52,80.9544 L1793.8808,80.9544 L1793.8808,111 L1806.3296,111 L1806.3296,44.9184 L1793.8808,44.9184 L1793.8808,69.9096 L1765.52,69.9096 L1765.52,44.9184 L1753.1648,44.9184 L1753.1648,111 L1765.52,111 Z M1846.2032,111 L1846.2032,56.1504 L1864.4552,56.1504 L1864.4552,44.9184 L1815.9704,44.9184 L1815.9704,56.1504 L1833.848,56.1504 L1833.848,111 L1846.2032,111 Z M1882.6136,94.5264 L1886.1704,70.1904 L1886.1704,44.9184 L1873.9088,44.9184 L1873.9088,70.1904 L1877.372,94.5264 L1882.6136,94.5264 Z M1886.1704,111 L1886.1704,98.0832 L1873.9088,98.0832 L1873.9088,111 L1886.1704,111 Z" id="GENERATIONENGIBT’SNICHT!" fill="#000000" fill-rule="nonzero"></path>
                <path d="M12.0744,111 L10.8576,56.712 L25.1784,111 L36.3168,111 L50.544,56.712 L49.4208,111 L61.4952,111 L61.4952,44.9184 L43.524,44.9184 L30.888,93.9648 L17.9712,44.9184 L1.59161573e-12,44.9184 L1.59161573e-12,111 L12.0744,111 Z M89.0136,111 L89.0136,88.6296 L98.6544,88.6296 C102.6792,88.6296 106.1424,88.6296 109.7928,87.7872 C121.5864,85.1664 125.7048,75.7128 125.7048,66.9144 C125.7048,53.5296 116.6256,47.7264 110.1672,45.948 C106.555341,44.9789647 102.943482,44.9219626 99.4876934,44.9184 L76.5648,44.9184 L76.5648,111 L89.0136,111 Z M97.9056,78.4272 L89.0136,78.4272 L89.0136,55.4952 L98.3736,55.4952 C102.3984,55.4952 106.704,55.5888 109.7928,58.2096 C110.916,59.2392 113.0688,61.7664 113.0688,66.6336 C113.0688,68.9736 112.6008,75.9936 104.9256,77.8656 C102.7728,78.4272 100.5264,78.4272 97.9056,78.4272 Z M141.2424,111 L145.08,98.0832 L169.884,98.0832 L173.7216,111 L186.9192,111 L164.3616,44.9184 L150.3216,44.9184 L128.0448,111 L141.2424,111 Z M166.608,87.3192 L148.356,87.3192 L157.5288,56.8992 L166.608,87.3192 Z M207.9792,111 L207.9792,88.6296 L217.62,88.6296 C221.6448,88.6296 225.108,88.6296 228.7584,87.7872 C240.552,85.1664 244.6704,75.7128 244.6704,66.9144 C244.6704,53.5296 235.5912,47.7264 229.1328,45.948 C225.520941,44.9789647 221.909082,44.9219626 218.453293,44.9184 L195.5304,44.9184 L195.5304,111 L207.9792,111 Z M216.8712,78.4272 L207.9792,78.4272 L207.9792,55.4952 L217.3392,55.4952 C221.364,55.4952 225.6696,55.5888 228.7584,58.2096 C229.8816,59.2392 232.0344,61.7664 232.0344,66.6336 C232.0344,68.9736 231.5664,75.9936 223.8912,77.8656 C221.7384,78.4272 219.492,78.4272 216.8712,78.4272 Z M302.9832,111 L302.9832,99.8616 L265.824,99.8616 L265.824,82.1712 L297.648,82.1712 L297.648,71.5008 L265.824,71.5008 L265.824,55.9632 L300.6432,55.9632 L300.6432,44.9184 L253.656,44.9184 L253.656,111 L302.9832,111 Z M324.6984,111 L324.6984,86.4768 L335.7432,86.4768 L348.8472,111 L362.9808,111 L348.2856,84.1368 C352.0296,83.0136 361.296,78.6144 361.296,65.9784 C361.296,58.3032 358.1136,53.0616 353.9952,49.692 C348.192,45.012 342.2952,45.012 333.4968,44.9184 L312.4368,44.9184 L312.4368,111 L324.6984,111 Z M329.430513,76.2740699 L324.6984,76.2744 L324.6984,55.5888 L330.408,55.5888 C337.7088,55.5888 340.8912,55.6824 343.512,56.9928 C348.66,59.6136 348.7536,64.4808 348.7536,65.8848 C348.7536,75.5256 339.8616,75.9936 337.1472,76.0872 C336.743752,76.1033379 336.362563,76.1194759 335.986363,76.1351341 L335.310861,76.1626971 C333.80514,76.2223365 332.213453,76.2696949 329.430513,76.2740699 L329.430513,76.2740699 Z M412.776,111 L415.584,90.9696 L424.8504,90.9696 L421.9488,111 L431.4024,111 L434.304,90.9696 L446.94,90.9696 L446.94,81.7032 L435.4272,81.7032 L436.7376,72.8112 L448.9056,72.8112 L448.9056,63.4512 L437.9544,63.4512 L440.4816,44.8248 L431.028,44.8248 L428.5008,63.4512 L419.328,63.4512 L421.9488,44.8248 L412.2144,44.8248 L409.6872,63.4512 L396.7704,63.4512 L396.7704,72.8112 L408.4704,72.8112 L407.3472,81.7032 L394.6176,81.7032 L394.6176,90.9696 L406.0368,90.9696 L403.2288,111 L412.776,111 Z M426.0672,81.7032 L416.7072,81.7032 L418.0176,72.8112 L427.284,72.8112 L426.0672,81.7032 Z M501.4152,111 L501.4152,101.2656 L473.8032,101.2656 C477.36,98.6448 485.784,91.5312 487.188,90.3144 C494.1144,84.0432 500.3856,76.7424 500.3856,66.54 C500.3856,54.5592 492.0552,46.7904 480.0744,46.7904 C473.2416,46.7904 467.2512,49.5984 463.788,53.6232 C461.3544,56.5248 458.4528,62.2344 458.4528,71.1264 L470.2464,72.156 C470.236717,71.6912276 470.225031,71.1663553 470.222118,70.5987914 L470.221594,70.2142817 C470.234417,65.2685536 471.043614,57.5544 479.1384,57.5544 C485.0352,57.5544 487.4688,62.1408 487.4688,67.008 C487.4688,75.3384 481.6656,81.4224 478.2024,84.9792 C474.4584,88.8168 466.5024,96.3984 458.4528,101.9208 L458.4528,111 L501.4152,111 Z" id="MPAPER#2" stroke="#000000" stroke-width="1.25" fill-opacity="0" fill="#000000" fill-rule="nonzero"></path>
                <path d="M1662.62984,672.064 L1662.62984,667.78 L1648.33784,667.78 L1648.33784,660.976 L1660.57784,660.976 L1660.57784,656.872 L1648.33784,656.872 L1648.33784,650.896 L1661.72984,650.896 L1661.72984,646.648 L1643.65784,646.648 L1643.65784,672.064 L1662.62984,672.064 Z M1670.90984,672.064 L1670.90984,646.648 L1666.22984,646.648 L1666.22984,672.064 L1670.90984,672.064 Z M1681.45784,672.064 L1681.16984,654.244 L1692.29384,672.064 L1696.43384,672.064 L1696.43384,646.648 L1691.75384,646.648 L1692.32984,664.612 L1681.09784,646.648 L1676.81384,646.648 L1676.81384,672.064 L1681.45784,672.064 Z M1721.12984,672.064 L1721.12984,667.78 L1706.83784,667.78 L1706.83784,660.976 L1719.07784,660.976 L1719.07784,656.872 L1706.83784,656.872 L1706.83784,650.896 L1720.22984,650.896 L1720.22984,646.648 L1702.15784,646.648 L1702.15784,672.064 L1721.12984,672.064 Z M1739.23784,672.064 L1739.23784,661.3 L1749.85784,661.3 L1749.85784,657.232 L1739.23784,657.232 L1739.23784,650.896 L1751.33384,650.896 L1751.33384,646.648 L1734.52184,646.648 L1734.52184,672.064 L1739.23784,672.064 Z M1765.69784,672.712 C1773.50984,672.712 1777.90184,666.628 1777.938,659.356 C1777.97384,650.68 1772.06984,646 1765.76984,646 C1758.82184,646 1753.56584,651.616 1753.56584,659.392 C1753.56584,662.596 1754.42984,665.908 1756.94984,668.824 C1759.54184,671.812 1762.49384,672.712 1765.69784,672.712 Z M1765.84184,668.32 C1761.62984,668.32 1758.46184,664.9 1758.46184,659.176 C1758.46184,653.884 1761.37784,650.356 1765.73384,650.356 C1770.73784,650.356 1773.29384,654.928 1773.18584,659.896 C1773.07784,666.016 1769.00984,668.32 1765.84184,668.32 Z M1792.04984,672.064 L1792.04984,650.968 L1799.06984,650.968 L1799.06984,646.648 L1780.42184,646.648 L1780.42184,650.968 L1787.29784,650.968 L1787.29784,672.064 L1792.04984,672.064 Z M1813.68584,672.712 C1821.49784,672.712 1825.88984,666.628 1825.926,659.356 C1825.96184,650.68 1820.05784,646 1813.75784,646 C1806.80984,646 1801.55384,651.616 1801.55384,659.392 C1801.55384,662.596 1802.41784,665.908 1804.93784,668.824 C1807.52984,671.812 1810.48184,672.712 1813.68584,672.712 Z M1813.82984,668.32 C1809.61784,668.32 1806.44984,664.9 1806.44984,659.176 C1806.44984,653.884 1809.36584,650.356 1813.72184,650.356 C1818.72584,650.356 1821.28184,654.928 1821.17384,659.896 C1821.06584,666.016 1816.99784,668.32 1813.82984,668.32 Z M1839.53384,672.712 C1844.93384,672.712 1850.33384,670.372 1850.33384,664.54 C1850.33384,659.104 1845.50984,657.7 1842.08984,656.98 L1839.46184,656.404 L1839.04268,656.32507 C1836.87857,655.913289 1834.78184,655.409091 1834.78184,653.38 C1834.78184,651.436 1837.01384,650.284 1839.56984,650.284 C1843.63784,650.284 1845.29384,652.804 1846.15784,654.064 L1850.04584,651.148 C1848.24584,648.7 1845.29384,646 1839.82184,646 C1833.84584,646 1829.77784,649.096 1829.77784,653.92 C1829.77784,658.132 1832.90984,659.68 1834.06184,660.148 C1834.85384,660.472 1835.64584,660.652 1837.26584,661.048 L1840.32584,661.696 C1842.21841,662.139571 1842.60495,662.243071 1843.0019,662.38561 L1843.10669,662.423929 C1843.1602,662.443781 1843.21613,662.464857 1843.27784,662.488 C1844.06984,662.812 1845.18584,663.388 1845.18584,665.008 C1845.18584,665.872 1844.86184,667.168 1843.02584,667.924 C1842.12584,668.284 1841.18984,668.356 1840.28984,668.356 C1834.92584,668.356 1833.01784,665.44 1832.40584,664.504 L1828.40984,667.312 C1830.31784,670.408 1833.30584,671.632 1834.99784,672.136 C1836.54584,672.568 1838.12984,672.712 1839.53384,672.712 Z M1864.04984,672.064 L1864.04984,650.968 L1871.06984,650.968 L1871.06984,646.648 L1852.42184,646.648 L1852.42184,650.968 L1859.29784,650.968 L1859.29784,672.064 L1864.04984,672.064 Z M1879.45784,672.064 L1879.45784,662.632 L1883.70584,662.632 L1888.74584,672.064 L1894.18184,672.064 L1888.52984,661.732 C1889.96984,661.3 1893.53384,659.608 1893.53384,654.748 C1893.53384,651.796 1892.30984,649.78 1890.72584,648.484 C1888.49384,646.684 1886.22584,646.684 1882.84184,646.648 L1874.74184,646.648 L1874.74184,672.064 L1879.45784,672.064 Z M1881.40609,658.707587 L1879.45784,658.708 L1879.45784,650.752 L1881.65384,650.752 C1884.46184,650.752 1885.68584,650.788 1886.69384,651.292 C1888.67384,652.3 1888.70984,654.172 1888.70984,654.712 C1888.70984,658.42 1885.28984,658.6 1884.24584,658.636 C1884.07709,658.64275 1883.91847,658.6495 1883.76142,658.656013 L1883.44691,658.668651 C1882.91781,658.688954 1882.34301,658.704862 1881.40609,658.707587 Z M1916.86184,672.064 L1916.86184,667.78 L1902.56984,667.78 L1902.56984,660.976 L1914.80984,660.976 L1914.80984,656.872 L1902.56984,656.872 L1902.56984,650.896 L1915.96184,650.896 L1915.96184,646.648 L1897.88984,646.648 L1897.88984,672.064 L1916.86184,672.064 Z M1930.79384,672.712 C1934.93384,672.712 1937.77784,670.876 1939.57784,668.788 C1940.83784,667.276 1941.44984,665.8 1941.77384,664.972 L1937.30984,663.1 C1937.12984,663.676 1936.80584,664.612 1935.97784,665.728 C1934.93384,667.06 1933.49384,668.212 1931.11784,668.212 C1927.12184,668.212 1924.06184,665.008 1924.06184,659.212 C1924.06184,653.776 1926.94184,650.356 1931.08184,650.356 C1933.70984,650.356 1935.11384,651.796 1935.65384,652.588 C1936.30184,653.56 1936.51784,654.64 1936.58984,655.108 L1941.34184,653.848 C1940.76584,652.084 1938.89384,646 1930.97384,646 C1924.49384,646 1918.91384,650.644 1918.91384,659.284 C1918.91384,667.78 1924.06184,672.712 1930.79384,672.712 Z M1949.94584,672.064 L1949.94584,664.864 L1954.08584,660.112 L1960.85384,672.064 L1966.28984,672.064 L1957.39784,656.224 L1965.74984,646.648 L1960.13384,646.648 L1949.94584,658.312 L1949.94584,646.648 L1945.22984,646.648 L1945.22984,672.064 L1949.94584,672.064 Z M1988.14184,672.064 L1988.14184,667.78 L1973.84984,667.78 L1973.84984,660.976 L1986.08984,660.976 L1986.08984,656.872 L1973.84984,656.872 L1973.84984,650.896 L1987.24184,650.896 L1987.24184,646.648 L1969.16984,646.648 L1969.16984,672.064 L1988.14184,672.064 Z M2019.31784,672.064 L2019.31784,667.78 L2005.96184,667.78 L2019.31784,650.716 L2019.31784,646.648 L2000.66984,646.648 L2000.66984,650.932 L2013.37784,650.932 L1999.48184,668.176 L1999.48184,672.064 L2019.31784,672.064 Z M2042.14184,672.064 L2042.14184,667.78 L2027.84984,667.78 L2027.84984,660.976 L2040.08984,660.976 L2040.08984,656.872 L2027.84984,656.872 L2027.84984,650.896 L2041.24184,650.896 L2041.24184,646.648 L2023.16984,646.648 L2023.16984,672.064 L2042.14184,672.064 Z M2050.42184,672.064 L2050.42184,646.648 L2045.74184,646.648 L2045.74184,672.064 L2050.42184,672.064 Z M2067.01784,672.712 C2069.14184,672.712 2071.69784,672.136 2073.96584,669.904 L2073.96584,672.064 L2078.03384,672.064 L2078.03384,658.168 L2067.34184,658.168 L2067.34184,662.344 L2073.67784,662.344 C2073.24584,666.844 2070.07784,668.248 2067.41384,668.248 C2063.27384,668.248 2060.21384,665.044 2060.21384,659.464 C2060.21384,654.46 2062.55384,650.284 2067.34184,650.284 C2071.66184,650.284 2073.02984,653.92 2073.49784,655.324 L2078.03384,653.488 C2076.48584,649.24 2072.59784,646 2067.30584,646 C2060.32184,646 2055.02984,651.616 2055.02984,659.608 C2055.02984,666.448 2059.16984,672.712 2067.01784,672.712 Z M2092.82984,672.064 L2092.82984,650.968 L2099.84984,650.968 L2099.84984,646.648 L2081.20184,646.648 L2081.20184,650.968 L2088.07784,650.968 L2088.07784,672.064 L2092.82984,672.064 Z M2114.21384,672.604 C2116.87784,672.604 2119.68584,671.92 2121.19784,669.796 C2122.31384,668.248 2122.34984,666.628 2122.34984,664.612 L2122.34984,646.648 L2117.63384,646.648 L2117.63384,662.884 C2117.63384,664.972 2117.63384,666.052 2116.73384,666.952 C2116.19384,667.528 2115.22184,667.96 2113.81784,667.96 C2112.80984,667.96 2111.98184,667.744 2111.29784,667.6 L2111.29784,672.28 C2111.87384,672.388 2112.73784,672.604 2114.21384,672.604 Z M2145.24584,670.228 C2147.94584,667.924 2147.94584,665.548 2147.98184,662.668 L2147.98184,646.648 L2143.19384,646.648 L2143.19384,662.02 C2143.19384,664.144 2143.19384,665.584 2141.78984,666.844 C2140.44688,668.014783 2138.6428,668.098624 2137.82685,668.103701 L2137.72184,668.104 C2136.20984,668.104 2133.54584,667.816 2132.57384,665.368 C2132.21384,664.396 2132.24984,663.352 2132.24984,662.272 L2132.24984,646.648 L2127.49784,646.648 L2127.49784,661.804 C2127.53384,664.972 2127.53384,665.764 2127.85784,666.88 C2128.43384,668.788 2130.05384,670.984 2133.07784,672.028 C2134.51784,672.532 2136.02984,672.712 2137.57784,672.712 C2139.30584,672.712 2142.65384,672.496 2145.24584,670.228 Z M2164.50584,672.712 C2166.62984,672.712 2169.18584,672.136 2171.45384,669.904 L2171.45384,672.064 L2175.52184,672.064 L2175.52184,658.168 L2164.82984,658.168 L2164.82984,662.344 L2171.16584,662.344 C2170.73384,666.844 2167.56584,668.248 2164.90184,668.248 C2160.76184,668.248 2157.70184,665.044 2157.70184,659.464 C2157.70184,654.46 2160.04184,650.284 2164.82984,650.284 C2169.14984,650.284 2170.51784,653.92 2170.98584,655.324 L2175.52184,653.488 C2173.97384,649.24 2170.08584,646 2164.79384,646 C2157.80984,646 2152.51784,651.616 2152.51784,659.608 C2152.51784,666.448 2156.65784,672.712 2164.50584,672.712 Z M2199.64184,672.064 L2199.64184,667.78 L2185.34984,667.78 L2185.34984,660.976 L2197.58984,660.976 L2197.58984,656.872 L2185.34984,656.872 L2185.34984,650.896 L2198.74184,650.896 L2198.74184,646.648 L2180.66984,646.648 L2180.66984,672.064 L2199.64184,672.064 Z M2207.95784,672.064 L2207.66984,654.244 L2218.79384,672.064 L2222.93384,672.064 L2222.93384,646.648 L2218.25384,646.648 L2218.82984,664.612 L2207.59784,646.648 L2203.31384,646.648 L2203.31384,672.064 L2207.95784,672.064 Z M2236.54184,672.064 C2239.52984,672.028 2242.19384,671.992 2244.71384,670.516 C2248.45784,668.356 2249.93384,663.928 2249.93384,659.572 C2249.93384,656.728 2249.28584,651.616 2245.03784,648.628 C2242.37384,646.72 2239.70984,646.684 2237.51384,646.648 L2228.40584,646.648 L2228.40584,672.064 L2236.54184,672.064 Z M2235.52612,667.779399 L2233.15784,667.78 L2233.15784,650.968 L2235.67784,650.968 C2238.88184,651.004 2239.63784,651.04 2241.00584,651.652 C2244.53384,653.344 2244.89384,657.232 2244.89384,659.608 C2244.89384,664.9 2242.94984,666.484 2241.11384,667.204 C2240.06984,667.5868 2238.85764,667.76776 2235.52612,667.779399 Z M2269.15784,672.064 L2269.15784,667.744 L2259.07784,667.744 L2259.07784,646.612 L2254.28984,646.612 L2254.28984,672.064 L2269.15784,672.064 Z M2277.65384,672.064 L2277.65384,646.648 L2272.97384,646.648 L2272.97384,672.064 L2277.65384,672.064 Z M2293.81784,672.712 C2297.95784,672.712 2300.80184,670.876 2302.60184,668.788 C2303.86184,667.276 2304.47384,665.8 2304.79784,664.972 L2300.33384,663.1 C2300.15384,663.676 2299.82984,664.612 2299.00184,665.728 C2297.95784,667.06 2296.51784,668.212 2294.14184,668.212 C2290.14584,668.212 2287.08584,665.008 2287.08584,659.212 C2287.08584,653.776 2289.96584,650.356 2294.10584,650.356 C2296.73384,650.356 2298.13784,651.796 2298.67784,652.588 C2299.32584,653.56 2299.54184,654.64 2299.61384,655.108 L2304.36584,653.848 C2303.78984,652.084 2301.91784,646 2293.99784,646 C2287.51784,646 2281.93784,650.644 2281.93784,659.284 C2281.93784,667.78 2287.08584,672.712 2293.81784,672.712 Z M2313.04184,672.064 L2313.04184,660.508 L2323.94984,660.508 L2323.94984,672.064 L2328.73784,672.064 L2328.73784,646.648 L2323.94984,646.648 L2323.94984,656.26 L2313.04184,656.26 L2313.04184,646.648 L2308.28984,646.648 L2308.28984,672.064 L2313.04184,672.064 Z M2353.39784,672.064 L2353.39784,667.78 L2339.10584,667.78 L2339.10584,660.976 L2351.34584,660.976 L2351.34584,656.872 L2339.10584,656.872 L2339.10584,650.896 L2352.49784,650.896 L2352.49784,646.648 L2334.42584,646.648 L2334.42584,672.064 L2353.39784,672.064 Z M1646.17784,708.064 L1647.65384,703.096 L1657.19384,703.096 L1658.66984,708.064 L1663.74584,708.064 L1655.06984,682.648 L1649.66984,682.648 L1641.10184,708.064 L1646.17784,708.064 Z M1655.93384,698.956 L1648.91384,698.956 L1652.44184,687.256 L1655.93384,698.956 Z M1681.92584,708.064 L1681.92584,703.744 L1671.84584,703.744 L1671.84584,682.612 L1667.05784,682.612 L1667.05784,708.064 L1681.92584,708.064 Z M1700.68184,708.064 L1700.68184,703.744 L1690.60184,703.744 L1690.60184,682.612 L1685.81384,682.612 L1685.81384,708.064 L1700.68184,708.064 Z M1723.39784,708.064 L1723.39784,703.78 L1709.10584,703.78 L1709.10584,696.976 L1721.34584,696.976 L1721.34584,692.872 L1709.10584,692.872 L1709.10584,686.896 L1722.49784,686.896 L1722.49784,682.648 L1704.42584,682.648 L1704.42584,708.064 L1723.39784,708.064 Z M1731.74984,708.064 L1731.74984,698.632 L1735.99784,698.632 L1741.03784,708.064 L1746.47384,708.064 L1740.82184,697.732 C1742.26184,697.3 1745.82584,695.608 1745.82584,690.748 C1745.82584,687.796 1744.60184,685.78 1743.01784,684.484 C1740.78584,682.684 1738.51784,682.684 1735.13384,682.648 L1727.03384,682.648 L1727.03384,708.064 L1731.74984,708.064 Z M1733.69809,694.707587 L1731.74984,694.708 L1731.74984,686.752 L1734.59005,686.752912 C1736.9483,686.760755 1738.05848,686.82832 1738.98584,687.292 C1740.96584,688.3 1741.00184,690.172 1741.00184,690.712 C1741.00184,694.42 1737.58184,694.6 1736.53784,694.636 C1736.36909,694.64275 1736.21047,694.6495 1736.05342,694.656013 L1735.73891,694.668651 C1735.20981,694.688954 1734.63501,694.704862 1733.69809,694.707587 Z M1768.39784,708.064 L1772.06984,690.388 L1775.63384,708.064 L1781.17784,708.064 L1786.75784,682.648 L1781.86184,682.648 L1778.29784,702.016 L1774.26584,682.648 L1769.83784,682.648 L1765.87784,702.016 L1762.42184,682.648 L1757.56184,682.648 L1762.85384,708.064 L1768.39784,708.064 Z M1808.89784,708.064 L1808.89784,703.78 L1794.60584,703.78 L1794.60584,696.976 L1806.84584,696.976 L1806.84584,692.872 L1794.60584,692.872 L1794.60584,686.896 L1807.99784,686.896 L1807.99784,682.648 L1789.92584,682.648 L1789.92584,708.064 L1808.89784,708.064 Z M1827.43784,708.064 L1827.43784,703.744 L1817.35784,703.744 L1817.35784,682.612 L1812.56984,682.612 L1812.56984,708.064 L1827.43784,708.064 Z M1840.82984,708.064 L1840.82984,686.968 L1847.84984,686.968 L1847.84984,682.648 L1829.20184,682.648 L1829.20184,686.968 L1836.07784,686.968 L1836.07784,708.064 L1840.82984,708.064 Z M1876.97384,707.452 C1880.03384,706.372 1881.50984,703.78 1881.50984,700.864 C1881.50984,696.94 1878.88184,694.672 1876.07384,694.168 C1877.44184,693.916 1878.44984,693.376 1879.24184,692.332 C1879.96184,691.36 1880.32184,689.992 1880.32184,688.876 C1880.32184,686.104 1878.41384,683.836 1875.85784,683.08 C1874.63384,682.72 1873.73384,682.684 1870.34984,682.648 L1861.27784,682.648 L1861.27784,708.064 L1871.21384,708.064 C1874.09384,708.064 1875.35384,708.028 1876.97384,707.452 Z M1868.47804,692.871558 L1865.99384,692.872 L1865.99384,686.536 L1868.98184,686.536 C1872.43784,686.572 1872.94184,686.608 1873.94984,687.184 C1874.92184,687.76 1875.42584,688.732 1875.42584,689.704 C1875.42584,690.856 1874.74184,691.828 1873.73384,692.332 C1872.86984,692.8 1871.68184,692.836 1870.49384,692.836 C1870.05076,692.863692 1869.37337,692.870083 1868.47804,692.871558 Z M1871.24506,703.959685 L1865.99384,703.96 L1865.99384,696.436 L1870.70984,696.472 C1872.32984,696.472 1874.99384,696.472 1876.14584,698.524 C1876.50584,699.172 1876.61384,699.856 1876.61384,700.432 C1876.61384,701.656 1876.10984,702.628 1875.46184,703.096 C1874.32527,703.898286 1873.59223,703.955592 1871.24506,703.959685 Z M1904.90984,708.064 L1904.90984,703.78 L1890.61784,703.78 L1890.61784,696.976 L1902.85784,696.976 L1902.85784,692.872 L1890.61784,692.872 L1890.61784,686.896 L1904.00984,686.896 L1904.00984,682.648 L1885.93784,682.648 L1885.93784,708.064 L1904.90984,708.064 Z M1913.18984,708.064 L1913.18984,682.648 L1908.50984,682.648 L1908.50984,708.064 L1913.18984,708.064 Z M1923.52184,708.064 L1923.05384,687.184 L1928.56184,708.064 L1932.84584,708.064 L1938.31784,687.184 L1937.88584,708.064 L1942.52984,708.064 L1942.52984,682.648 L1935.61784,682.648 L1930.75784,701.512 L1925.78984,682.648 L1918.87784,682.648 L1918.87784,708.064 L1923.52184,708.064 Z M1960.45784,708.064 L1961.93384,703.096 L1971.47384,703.096 L1972.94984,708.064 L1978.02584,708.064 L1969.34984,682.648 L1963.94984,682.648 L1955.38184,708.064 L1960.45784,708.064 Z M1970.21384,698.956 L1963.19384,698.956 L1966.72184,687.256 L1970.21384,698.956 Z M1996.99784,707.452 C2000.05784,706.372 2001.53384,703.78 2001.53384,700.864 C2001.53384,696.94 1998.90584,694.672 1996.09784,694.168 C1997.46584,693.916 1998.47384,693.376 1999.26584,692.332 C1999.98584,691.36 2000.34584,689.992 2000.34584,688.876 C2000.34584,686.104 1998.43784,683.836 1995.88184,683.08 C1994.65784,682.72 1993.75784,682.684 1990.37384,682.648 L1981.30184,682.648 L1981.30184,708.064 L1991.23784,708.064 C1994.11784,708.064 1995.37784,708.028 1996.99784,707.452 Z M1988.50204,692.871558 L1986.01784,692.872 L1986.01784,686.536 L1989.00584,686.536 C1992.46184,686.572 1992.96584,686.608 1993.97384,687.184 C1994.94584,687.76 1995.44984,688.732 1995.44984,689.704 C1995.44984,690.856 1994.76584,691.828 1993.75784,692.332 C1992.89384,692.8 1991.70584,692.836 1990.51784,692.836 C1990.07476,692.863692 1989.39737,692.870083 1988.50204,692.871558 Z M1991.26906,703.959685 L1986.01784,703.96 L1986.01784,696.436 L1990.73384,696.472 C1992.35384,696.472 1995.01784,696.472 1996.16984,698.524 C1996.52984,699.172 1996.63784,699.856 1996.63784,700.432 C1996.63784,701.656 1996.13384,702.628 1995.48584,703.096 C1994.34927,703.898286 1993.61623,703.955592 1991.26906,703.959685 L1991.26906,703.959685 Z M2010.82184,708.064 L2010.82184,696.508 L2021.72984,696.508 L2021.72984,708.064 L2026.51784,708.064 L2026.51784,682.648 L2021.72984,682.648 L2021.72984,692.26 L2010.82184,692.26 L2010.82184,682.648 L2006.06984,682.648 L2006.06984,708.064 L2010.82184,708.064 Z M2039.58584,680.272 L2039.58584,675.844 L2035.55384,675.844 L2035.55384,680.272 L2039.58584,680.272 Z M2046.85784,680.272 L2046.85784,675.844 L2042.75384,675.844 L2042.75384,680.272 L2046.85784,680.272 Z M2034.72584,708.064 L2036.20184,703.096 L2045.74184,703.096 L2047.21784,708.064 L2052.29384,708.064 L2043.61784,682.648 L2038.21784,682.648 L2029.64984,708.064 L2034.72584,708.064 Z M2044.48184,698.956 L2037.46184,698.956 L2040.98984,687.256 L2044.48184,698.956 Z M2060.24984,708.064 L2059.96184,690.244 L2071.08584,708.064 L2075.22584,708.064 L2075.22584,682.648 L2070.54584,682.648 L2071.12184,700.612 L2059.88984,682.648 L2055.60584,682.648 L2055.60584,708.064 L2060.24984,708.064 Z M2091.78584,708.712 C2093.90984,708.712 2096.46584,708.136 2098.73384,705.904 L2098.73384,708.064 L2102.80184,708.064 L2102.80184,694.168 L2092.10984,694.168 L2092.10984,698.344 L2098.44584,698.344 C2098.01384,702.844 2094.84584,704.248 2092.18184,704.248 C2088.04184,704.248 2084.98184,701.044 2084.98184,695.464 C2084.98184,690.46 2087.32184,686.284 2092.10984,686.284 C2096.42984,686.284 2097.79784,689.92 2098.26584,691.324 L2102.80184,689.488 C2101.25384,685.24 2097.36584,682 2092.07384,682 C2085.08984,682 2079.79784,687.616 2079.79784,695.608 C2079.79784,702.448 2083.93784,708.712 2091.78584,708.712 Z M2126.92184,708.064 L2126.92184,703.78 L2112.62984,703.78 L2112.62984,696.976 L2124.86984,696.976 L2124.86984,692.872 L2112.62984,692.872 L2112.62984,686.896 L2126.02184,686.896 L2126.02184,682.648 L2107.94984,682.648 L2107.94984,708.064 L2126.92184,708.064 Z M2135.23784,708.064 L2134.94984,690.244 L2146.07384,708.064 L2150.21384,708.064 L2150.21384,682.648 L2145.53384,682.648 L2146.10984,700.612 L2134.87784,682.648 L2130.59384,682.648 L2130.59384,708.064 L2135.23784,708.064 Z" id="EINEFOTOSTRECKEZEIGTJUGENDLICHEALLERWELTBEIMABHÄNGEN" fill="#000000" fill-rule="nonzero"></path>
                <path d="M435.8088,711.4512 C449.8488,711.4512 463.8888,705.3672 463.8888,690.204 C463.8888,676.0704 451.3464,672.42 442.4544,670.548 L435.6216,669.0504 C435.428361,669.014168 435.234928,668.977935 435.041513,668.941552 L434.461539,668.8318 L434.461539,668.8318 L433.594595,668.663495 L433.594595,668.663495 L433.020512,668.547522 C427.967876,667.506438 423.4536,665.988774 423.4536,661.188 C423.4536,656.1336 429.2568,653.1384 435.9024,653.1384 C446.4792,653.1384 450.7848,659.6904 453.0312,662.9664 L463.14,655.3848 C458.46,649.02 450.7848,642 436.5576,642 C421.02,642 410.4432,650.0496 410.4432,662.592 C410.4432,673.5432 418.5864,677.568 421.5816,678.7848 C423.6408,679.6272 425.7,680.0952 429.912,681.1248 L437.868,682.8096 C442.899936,683.98896 443.837134,684.243702 444.895853,684.62789 L445.048381,684.683769 C445.202646,684.740755 445.363488,684.801408 445.5432,684.8688 C447.6024,685.7112 450.504,687.2088 450.504,691.4208 C450.504,693.6672 449.6616,697.0368 444.888,699.0024 C442.548,699.9384 440.1144,700.1256 437.7744,700.1256 C423.828,700.1256 418.8672,692.544 417.276,690.1104 L406.8864,697.4112 C411.8472,705.4608 419.616,708.6432 424.0152,709.9536 C428.04,711.0768 432.1584,711.4512 435.8088,711.4512 Z M487.1016,709.7664 L487.1016,679.7208 L515.4624,679.7208 L515.4624,709.7664 L527.9112,709.7664 L527.9112,643.6848 L515.4624,643.6848 L515.4624,668.676 L487.1016,668.676 L487.1016,643.6848 L474.7464,643.6848 L474.7464,709.7664 L487.1016,709.7664 Z M571.4352,711.4512 C591.7464,711.4512 603.1656,695.6328 603.259626,676.7256 C603.3528,654.168 588.0024,642 571.6224,642 C553.5576,642 539.892,656.6016 539.892,676.8192 C539.892,685.1496 542.1384,693.7608 548.6904,701.3424 C555.4296,709.1112 563.1048,711.4512 571.4352,711.4512 Z M571.8096,700.032 C560.8584,700.032 552.6216,691.14 552.6216,676.2576 C552.6216,662.4984 560.2032,653.3256 571.5288,653.3256 C584.5392,653.3256 591.1848,665.2128 590.904,678.1296 C590.6232,694.0416 580.0464,700.032 571.8096,700.032 Z M636.8616,709.7664 L646.4088,663.8088 L655.6752,709.7664 L670.0896,709.7664 L684.5976,643.6848 L671.868,643.6848 L662.6016,694.0416 L652.1184,643.6848 L640.6056,643.6848 L630.3096,694.0416 L621.324,643.6848 L608.688,643.6848 L622.4472,709.7664 L636.8616,709.7664 Z M730.0872,709.7664 L728.8704,655.4784 L743.1912,709.7664 L754.3296,709.7664 L768.5568,655.4784 L767.4336,709.7664 L779.508,709.7664 L779.508,643.6848 L761.5368,643.6848 L748.9008,692.7312 L735.984,643.6848 L718.0128,643.6848 L718.0128,709.7664 L730.0872,709.7664 Z M843.5304,709.7664 L843.5304,698.628 L806.3712,698.628 L806.3712,680.9376 L838.1952,680.9376 L838.1952,670.2672 L806.3712,670.2672 L806.3712,654.7296 L841.1904,654.7296 L841.1904,643.6848 L794.2032,643.6848 L794.2032,709.7664 L843.5304,709.7664 Z M900.0648,709.7664 L909.612,663.8088 L918.8784,709.7664 L933.2928,709.7664 L947.8008,643.6848 L935.0712,643.6848 L925.8048,694.0416 L915.3216,643.6848 L903.8088,643.6848 L893.5128,694.0416 L884.5272,643.6848 L871.8912,643.6848 L885.6504,709.7664 L900.0648,709.7664 Z M968.6736,709.7664 L968.6736,679.7208 L997.0344,679.7208 L997.0344,709.7664 L1009.4832,709.7664 L1009.4832,643.6848 L997.0344,643.6848 L997.0344,668.676 L968.6736,668.676 L968.6736,643.6848 L956.3184,643.6848 L956.3184,709.7664 L968.6736,709.7664 Z M1053.0072,711.4512 C1073.3184,711.4512 1084.7376,695.6328 1084.83163,676.7256 C1084.9248,654.168 1069.5744,642 1053.1944,642 C1035.1296,642 1021.464,656.6016 1021.464,676.8192 C1021.464,685.1496 1023.7104,693.7608 1030.2624,701.3424 C1037.0016,709.1112 1044.6768,711.4512 1053.0072,711.4512 Z M1053.3816,700.032 C1042.4304,700.032 1034.1936,691.14 1034.1936,676.2576 C1034.1936,662.4984 1041.7752,653.3256 1053.1008,653.3256 C1066.1112,653.3256 1072.7568,665.2128 1072.476,678.1296 C1072.1952,694.0416 1061.6184,700.032 1053.3816,700.032 Z M1149.696,709.7664 L1149.696,683.652 L1171.9728,643.6848 L1158.2136,643.6848 L1143.7056,671.1096 L1129.3848,643.6848 L1115.4384,643.6848 L1137.528,683.652 L1137.528,709.7664 L1149.696,709.7664 Z M1209.0384,711.4512 C1229.3496,711.4512 1240.7688,695.6328 1240.86283,676.7256 C1240.956,654.168 1225.6056,642 1209.2256,642 C1191.1608,642 1177.4952,656.6016 1177.4952,676.8192 C1177.4952,685.1496 1179.7416,693.7608 1186.2936,701.3424 C1193.0328,709.1112 1200.708,711.4512 1209.0384,711.4512 Z M1209.4128,700.032 C1198.4616,700.032 1190.2248,691.14 1190.2248,676.2576 C1190.2248,662.4984 1197.8064,653.3256 1209.132,653.3256 C1222.1424,653.3256 1228.788,665.2128 1228.5072,678.1296 C1228.2264,694.0416 1217.6496,700.032 1209.4128,700.032 Z M1298.8008,704.9928 C1305.8208,699.0024 1305.8208,692.8248 1305.9144,685.3368 L1305.9144,643.6848 L1293.4656,643.6848 L1293.4656,683.652 C1293.4656,689.1744 1293.4656,692.9184 1289.8152,696.1944 C1286.33863,699.225257 1281.67349,699.454482 1279.53911,699.46944 L1279.2384,699.4704 C1275.3072,699.4704 1268.3808,698.7216 1265.8536,692.3568 C1264.9176,689.8296 1265.0112,687.1152 1265.0112,684.3072 L1265.0112,643.6848 L1252.656,643.6848 L1252.656,683.0904 C1252.7496,691.3272 1252.7496,693.3864 1253.592,696.288 C1255.0896,701.2488 1259.3016,706.9584 1267.164,709.6728 C1270.908,710.9832 1274.8392,711.4512 1278.864,711.4512 C1283.3568,711.4512 1292.0616,710.8896 1298.8008,704.9928 Z M1352.6208,709.7664 L1356.4584,696.8496 L1381.2624,696.8496 L1385.1,709.7664 L1398.2976,709.7664 L1375.74,643.6848 L1361.7,643.6848 L1339.4232,709.7664 L1352.6208,709.7664 Z M1377.9864,686.0856 L1359.7344,686.0856 L1368.9072,655.6656 L1377.9864,686.0856 Z M1419.0768,709.7664 L1419.0768,685.2432 L1430.1216,685.2432 L1443.2256,709.7664 L1457.3592,709.7664 L1442.664,682.9032 C1446.408,681.78 1455.6744,677.3808 1455.6744,664.7448 C1455.6744,657.0696 1452.492,651.828 1448.3736,648.4584 C1442.5704,643.7784 1436.6736,643.7784 1427.8752,643.6848 L1406.8152,643.6848 L1406.8152,709.7664 L1419.0768,709.7664 Z M1423.80891,675.04047 L1419.0768,675.0408 L1419.0768,654.3552 L1424.7864,654.3552 C1432.0872,654.3552 1435.2696,654.4488 1437.8904,655.7592 C1443.0384,658.38 1443.132,663.2472 1443.132,664.6512 C1443.132,674.292 1434.24,674.76 1431.5256,674.8536 C1430.96077,674.876193 1430.43957,674.898786 1429.91461,674.920063 L1429.46262,674.937947 C1428.02139,674.993365 1426.45271,675.036314 1423.80891,675.04047 L1423.80891,675.04047 Z M1516.3272,709.7664 L1516.3272,698.628 L1479.168,698.628 L1479.168,680.9376 L1510.992,680.9376 L1510.992,670.2672 L1479.168,670.2672 L1479.168,654.7296 L1513.9872,654.7296 L1513.9872,643.6848 L1467,643.6848 L1467,709.7664 L1516.3272,709.7664 Z" id="SHOWMEWHOYOUARE" fill="#000000" fill-rule="nonzero"></path>
            </g>
        </g>
    </g>
</svg>